<svg id="Layer_1" data-name="Layer 1" xmlns="http://www.w3.org/2000/svg" xmlns:xlink="http://www.w3.org/1999/xlink" viewBox="0 0 926.83993 990.53933"><defs><style>.cls-1{fill:#51a3b7;opacity:0.1;}.cls-10,.cls-2,.cls-29{fill:none;stroke-miterlimit:10;}.cls-2{stroke:#e8b520;}.cls-3{fill:url(#linear-gradient);}.cls-4{fill:url(#linear-gradient-2);}.cls-5{fill:url(#linear-gradient-3);}.cls-6{fill:url(#linear-gradient-4);}.cls-7{fill:url(#linear-gradient-5);}.cls-8{fill:url(#linear-gradient-6);}.cls-9{fill:url(#linear-gradient-7);}.cls-10{stroke:#2267b1;}.cls-11{fill:url(#linear-gradient-8);}.cls-12{fill:url(#linear-gradient-9);}.cls-13{fill:url(#linear-gradient-10);}.cls-14{opacity:0.39;fill:url(#linear-gradient-11);}.cls-15,.cls-23{opacity:0.54;}.cls-15{fill:url(#linear-gradient-12);}.cls-16{fill:url(#linear-gradient-13);}.cls-17{fill:#18193d;}.cls-18{fill:#1a2855;}.cls-19{fill:url(#linear-gradient-14);}.cls-20{fill:url(#linear-gradient-15);}.cls-21{fill:#7a8e9f;}.cls-22,.cls-24{opacity:0.57;}.cls-22{fill:url(#linear-gradient-16);}.cls-23{fill:url(#linear-gradient-17);}.cls-24{fill:url(#linear-gradient-18);}.cls-25,.cls-26{opacity:0.25;}.cls-25{fill:url(#linear-gradient-19);}.cls-26{fill:url(#linear-gradient-20);}.cls-27,.cls-28{fill:#fff;}.cls-28{opacity:0.65;}.cls-29{stroke:#29abe2;stroke-linecap:round;stroke-width:5px;}</style><linearGradient id="linear-gradient" x1="-596.74555" y1="432.01391" x2="164.36349" y2="853.76288" gradientTransform="matrix(-1, 0, 0, 1, 223.87301, -101.52821)" gradientUnits="userSpaceOnUse"><stop offset="0" stop-color="#51a2b6"/><stop offset="0.03116" stop-color="#4b93ad"/><stop offset="0.09353" stop-color="#427a9e"/><stop offset="0.164" stop-color="#3c6793"/><stop offset="0.2462" stop-color="#375a8b"/><stop offset="0.35087" stop-color="#345286"/><stop offset="0.55415" stop-color="#335085"/><stop offset="0.87225" stop-color="#51a2b6"/></linearGradient><linearGradient id="linear-gradient-2" x1="-362.77272" y1="1015.35963" x2="193.09836" y2="1015.35963" gradientTransform="matrix(-1, 0, 0, 1, 223.87301, -101.52821)" gradientUnits="userSpaceOnUse"><stop offset="0" stop-color="#7acde1"/><stop offset="0.97716" stop-color="#7a8e9f"/></linearGradient><linearGradient id="linear-gradient-3" x1="-580.79047" y1="465.03404" x2="62.70317" y2="465.03404" gradientTransform="matrix(-1, 0, 0, 1, 223.87301, -101.52821)" gradientUnits="userSpaceOnUse"><stop offset="0.06238" stop-color="#9698af"/><stop offset="0.38641" stop-color="#9d9185"/><stop offset="1" stop-color="#5c6f86"/></linearGradient><linearGradient id="linear-gradient-4" x1="-585.03605" y1="529.25122" x2="130.13903" y2="529.25122" xlink:href="#linear-gradient-3"/><linearGradient id="linear-gradient-5" x1="-537.40016" y1="287.25273" x2="-1.57901" y2="287.25273" gradientTransform="matrix(-1, 0, 0, 1, 223.87301, -101.52821)" gradientUnits="userSpaceOnUse"><stop offset="0.06238" stop-color="#75b0e0"/><stop offset="0.33376" stop-color="#667b96"/><stop offset="1" stop-color="#2e79b8"/></linearGradient><linearGradient id="linear-gradient-6" x1="-543.94598" y1="320.71423" x2="13.30372" y2="320.71423" xlink:href="#linear-gradient-3"/><linearGradient id="linear-gradient-7" x1="-549.69479" y1="352.31154" x2="24.88788" y2="352.31154" gradientTransform="matrix(-1, 0, 0, 1, 223.87301, -101.52821)" gradientUnits="userSpaceOnUse"><stop offset="0" stop-color="#4883c0"/><stop offset="0.13367" stop-color="#a1a0ab"/><stop offset="0.20145" stop-color="#aba39c"/><stop offset="0.34315" stop-color="#bca882"/><stop offset="0.42737" stop-color="#c2aa78"/><stop offset="0.44954" stop-color="#b6a179"/><stop offset="0.4926" stop-color="#a59579"/><stop offset="0.53977" stop-color="#9b8d7a"/><stop offset="0.59835" stop-color="#988b7a"/><stop offset="0.97716" stop-color="#2267b1"/></linearGradient><linearGradient id="linear-gradient-8" x1="-565.29102" y1="409.99534" x2="-231.24693" y2="409.99534" gradientTransform="matrix(-1, 0, 0, 1, 223.87301, -101.52821)" gradientUnits="userSpaceOnUse"><stop offset="0" stop-color="#76b1e0"/><stop offset="0.25285" stop-color="#a1a0ab"/><stop offset="0.40839" stop-color="#597497"/><stop offset="0.49441" stop-color="#365f8e"/><stop offset="0.49618" stop-color="#38608e"/><stop offset="0.55701" stop-color="#738084"/><stop offset="0.60891" stop-color="#9e977e"/><stop offset="0.64928" stop-color="#b8a57a"/><stop offset="0.67318" stop-color="#c2aa78"/><stop offset="0.70741" stop-color="#b6a179"/><stop offset="0.77393" stop-color="#a59579"/><stop offset="0.84679" stop-color="#9b8d7a"/><stop offset="0.93727" stop-color="#988b7a"/></linearGradient><linearGradient id="linear-gradient-9" x1="-192.25607" y1="327.46802" x2="-149.67895" y2="327.46802" xlink:href="#linear-gradient-3"/><linearGradient id="linear-gradient-10" x1="-97.27635" y1="428.19296" x2="52.37177" y2="428.19296" xlink:href="#linear-gradient-5"/><linearGradient id="linear-gradient-11" x1="-649.16549" y1="722.95115" x2="-303.22883" y2="722.95115" gradientTransform="matrix(-1, 0, 0, 1, 223.87301, -101.52821)" gradientUnits="userSpaceOnUse"><stop offset="0.06238" stop-color="#18193d"/><stop offset="0.07173" stop-color="#1e2247"/><stop offset="0.11533" stop-color="#364a74"/><stop offset="0.1594" stop-color="#4a6b98"/><stop offset="0.20332" stop-color="#5985b5"/><stop offset="0.24709" stop-color="#6497c9"/><stop offset="0.29064" stop-color="#6ba2d5"/><stop offset="0.33376" stop-color="#6da6d9"/><stop offset="0.47657" stop-color="#6da5d8" stop-opacity="0.99042"/><stop offset="0.54703" stop-color="#6ca4d6" stop-opacity="0.95746"/><stop offset="0.60169" stop-color="#6aa0d2" stop-opacity="0.9007"/><stop offset="0.64819" stop-color="#689bcc" stop-opacity="0.82003"/><stop offset="0.68952" stop-color="#6495c4" stop-opacity="0.71525"/><stop offset="0.72715" stop-color="#618ebb" stop-opacity="0.58627"/><stop offset="0.76203" stop-color="#5c85b0" stop-opacity="0.43268"/><stop offset="0.7938" stop-color="#577ba3" stop-opacity="0.25989"/><stop offset="0.80354" stop-color="#55779f" stop-opacity="0.2"/><stop offset="0.90295" stop-color="#3b4f75" stop-opacity="0.54312"/><stop offset="1" stop-color="#18193d"/></linearGradient><linearGradient id="linear-gradient-12" x1="-686.3993" y1="951.7636" x2="-28.5529" y2="951.7636" gradientTransform="matrix(-1, 0, 0, 1, 223.87301, -101.52821)" gradientUnits="userSpaceOnUse"><stop offset="0" stop-color="#7acde1"/><stop offset="0.13367" stop-color="#e8b520"/><stop offset="0.18287" stop-color="#eec017"/><stop offset="0.28639" stop-color="#f6d10a"/><stop offset="0.39978" stop-color="#fbdb02"/><stop offset="0.54061" stop-color="#fdde00"/><stop offset="0.63666" stop-color="#fbda03"/><stop offset="0.7393" stop-color="#f4cd0d"/><stop offset="0.84468" stop-color="#e9b81e"/><stop offset="0.85533" stop-color="#e8b520"/><stop offset="0.97716" stop-color="#2267b1"/></linearGradient><linearGradient id="linear-gradient-13" x1="-476.19716" y1="653.14336" x2="165.24532" y2="653.14336" gradientTransform="matrix(-1, 0, 0, 1, 223.87301, -101.52821)" gradientUnits="userSpaceOnUse"><stop offset="0.13367" stop-color="#a1a0ab"/><stop offset="0.20145" stop-color="#aba39c"/><stop offset="0.34315" stop-color="#bca882"/><stop offset="0.42737" stop-color="#c2aa78"/><stop offset="0.44954" stop-color="#b6a179"/><stop offset="0.4926" stop-color="#a59579"/><stop offset="0.53977" stop-color="#9b8d7a"/><stop offset="0.59835" stop-color="#988b7a"/><stop offset="0.97716" stop-color="#4fa2b7"/></linearGradient><linearGradient id="linear-gradient-14" x1="-263.54147" y1="885.773" x2="-224.84123" y2="583.04815" gradientTransform="matrix(-1, 0, 0, 1, 223.87301, -101.52821)" gradientUnits="userSpaceOnUse"><stop offset="0" stop-color="#51a2b6"/><stop offset="0.03359" stop-color="#4b95aa"/><stop offset="0.14167" stop-color="#3c6f89"/><stop offset="0.25449" stop-color="#2f506d"/><stop offset="0.37163" stop-color="#253858"/><stop offset="0.49496" stop-color="#1e2649"/><stop offset="0.62861" stop-color="#191c40"/><stop offset="0.79141" stop-color="#18193d"/></linearGradient><linearGradient id="linear-gradient-15" x1="-33.32321" y1="1024.81832" x2="20.28039" y2="605.51488" xlink:href="#linear-gradient-14"/><linearGradient id="linear-gradient-16" x1="-686.3993" y1="951.62397" x2="-298.28554" y2="951.62397" gradientTransform="matrix(-1, 0, 0, 1, 223.87301, -101.52821)" gradientUnits="userSpaceOnUse"><stop offset="0" stop-color="#18193d"/><stop offset="0.23502" stop-color="#1d1d3f"/><stop offset="0.50585" stop-color="#2b2a44"/><stop offset="0.79336" stop-color="#423e4e"/><stop offset="1" stop-color="#575156"/></linearGradient><linearGradient id="linear-gradient-17" x1="-117.95697" y1="913.93242" x2="-7.02743" y2="913.93242" xlink:href="#linear-gradient-12"/><linearGradient id="linear-gradient-18" x1="-374.67551" y1="874.18755" x2="-331.35009" y2="874.18755" xlink:href="#linear-gradient-12"/><linearGradient id="linear-gradient-19" x1="-660.55765" y1="966.13998" x2="-298.28554" y2="966.13998" xlink:href="#linear-gradient-12"/><linearGradient id="linear-gradient-20" x1="-39.67743" y1="959.22502" x2="17.07525" y2="959.22502" xlink:href="#linear-gradient-12"/></defs><polygon class="cls-1" points="853.18 779.961 730.361 293.364 440.509 0 209.61 226.61 90.067 458.491 0 825.635 248.912 846.715 385.196 753.611 591.167 739.558 853.18 779.961"/><polygon class="cls-2" points="926.17 806.304 803.352 319.707 513.5 26.343 282.601 252.953 163.058 484.834 72.991 851.978 321.903 873.058 458.186 779.954 664.157 765.901 926.17 806.304"/><polygon class="cls-3" points="878.658 802.641 755.839 316.043 465.987 22.679 235.088 249.29 115.545 481.17 25.478 848.314 274.39 869.394 410.674 776.291 616.645 762.237 878.658 802.641"/><polyline class="cls-4" points="586.646 864.612 294.325 892.075 276.635 837.124 60.251 837.124 30.775 990.539 531.875 978.828"/><polygon class="cls-5" points="792.701 465.881 450.905 221.216 161.17 433.773 161.17 454.853 451.718 258.106 804.663 505.796 795.141 481.203 792.701 465.881"/><polygon class="cls-6" points="808.909 558.285 439.847 344.443 93.734 570.079 107.13 516.125 447.292 285.367 808.909 528.421 808.909 558.285"/><polygon class="cls-7" points="758.571 326.865 465.62 33.877 232.328 254.645 225.452 267.982 464.529 64.326 761.273 337.572 758.571 326.865"/><polygon class="cls-8" points="764.102 348.778 465.62 74.866 225.452 275.206 210.569 296.85 462.345 105.315 767.819 363.506 764.102 348.778"/><polygon class="cls-9" points="770.123 372.633 460.231 115.285 206.798 304.166 198.985 319.32 462.345 150.989 773.568 386.282 770.123 372.633"/><line class="cls-10" x1="719.90349" y1="285.83826" x2="820.34181" y2="770.16244"/><line class="cls-10" x1="673.12948" y1="236.53765" x2="773.5678" y2="757.52226"/><line class="cls-10" x1="642.51001" y1="201.34078" x2="723.34864" y2="738.2295"/><line class="cls-10" x1="426.1396" y1="448.379" x2="465.98741" y2="114.61175"/><line class="cls-10" x1="471.93122" y1="502.93336" x2="512.77092" y2="78.12359"/><polygon class="cls-11" points="455.12 205.638 789.164 446.037 777.489 401.818 691.155 339.212 695.916 363.058 661.227 337.572 665.777 355.869 630.709 328.998 630.709 337.572 583.769 305.796 584.265 266.083 558.417 245.849 459.768 170.897 455.12 205.638"/><polygon class="cls-12" points="416.129 194.32 373.552 221.216 373.552 257.56 416.129 225.94 416.129 194.32"/><polygon class="cls-13" points="321.149 304.404 321.149 281.495 263.652 327.046 266.985 308.467 270.202 280.314 187.86 342.368 171.501 373.016 266.033 308.467 257.187 350.257 321.149 304.404"/><polygon class="cls-14" points="873.039 780.377 599.055 669.184 558.693 563.285 708.846 641.914 695.943 556.216 527.102 480.399 531.546 462.469 581.349 485.927 581.349 462.469 825.01 590.094 873.039 780.377"/><polygon class="cls-15" points="910.272 955.211 871.516 825.843 865.133 805.308 645.685 731.857 356.321 774.664 252.426 854.397 252.426 898.997 566.427 881.86 510.702 968.613 910.272 955.211"/><polygon class="cls-16" points="688.331 558.285 700.07 637.318 455.12 538.627 353.173 538.627 58.628 713.185 78.454 632.366 437.782 390.046 688.331 558.285"/><line class="cls-10" x1="522.21103" y1="662.59511" x2="548.08143" y2="107.97545"/><line class="cls-10" x1="586.64573" y1="144.79963" x2="579.79931" y2="710.07399"/><line class="cls-10" x1="673.12948" y1="739.77914" x2="614.61045" y2="173.10319"/><polygon class="cls-17" points="610.747 699.859 445.806 285.838 308.567 603.08 75.424 819.313 26.297 829.528 275.209 868.174 373.37 786.903 608.636 761.724 877.839 804.934 610.747 699.859"/><polygon class="cls-18" points="327.946 558.285 71.509 799.785 37.383 799.785 26.297 829.528 75.424 819.313 308.567 603.08 327.946 558.285"/><polygon class="cls-19" points="610.747 699.859 325.215 564.597 404.484 757.522 610.747 699.859"/><polygon class="cls-20" points="274.314 853.625 75.424 819.313 331.723 580.808 404.484 757.522 274.39 869.394 274.314 853.625"/><polygon class="cls-21" points="341.83 673.366 330.088 645.98 306.604 683.9 206.798 978.828 224.411 766.058 238.558 736.565 263.55 744.992 224.411 978.828 238.558 978.828 341.83 673.366"/><polygon class="cls-21" points="606.197 793.226 579.69 724.697 555.223 724.697 580.71 836.058 606.197 793.226"/><polygon class="cls-22" points="865.133 805.308 622.142 725.101 522.159 975.09 910.272 955.211 865.133 805.308"/><polygon class="cls-21" points="872.274 847.479 613.328 750.395 490.991 978.828 544.004 978.828 625.561 781.805 872.274 864.612 872.274 847.479"/><polygon class="cls-23" points="330.088 645.98 230.9 978.828 238.558 978.828 341.83 673.366 330.088 645.98"/><polygon class="cls-24" points="568.606 725.101 598.549 800.217 575.718 820.622 555.223 724.697 568.606 725.101"/><polygon class="cls-25" points="544.004 978.828 522.159 975.09 622.142 750.395 878.782 850.096 884.431 869.394 624.826 782.544 544.004 978.828"/><polygon class="cls-26" points="263.55 744.992 238.558 736.565 206.798 978.828 239.954 885.965 263.55 744.992"/><rect class="cls-27" x="720.27394" y="351.2024" width="15.62526" height="33.00295"/><rect class="cls-28" x="414.90145" y="652.99865" width="30.76561" height="16.76156"/><rect class="cls-27" x="331.62543" y="593.75985" width="7.81263" height="16.50148"/><rect class="cls-28" x="517.23741" y="284.42995" width="41.57702" height="26.51309"/><path class="cls-29" d="M-2228.5,74.5" transform="translate(-986.56011 -101.52821)"/><path class="cls-29" d="M1919.5,82.5" transform="translate(-986.56011 -101.52821)"/></svg>