<svg id="Layer_1" data-name="Layer 1" xmlns="http://www.w3.org/2000/svg" viewBox="0 0 1928.42528 774.24593"><defs><style>.cls-1{fill:#3359a8;opacity:0.21;}.cls-2{fill:none;stroke:#39b54a;stroke-linecap:round;stroke-miterlimit:10;stroke-width:5px;}</style></defs><polygon class="cls-1" points="1342.228 467.524 1342.228 656.389 1245.216 656.389 1245.216 619.812 1166.025 619.812 1166.025 560.883 1128.435 560.883 1092.615 534.229 1050.477 565.585 1050.477 635.867 1050.477 704.59 1002.18 704.59 1002.18 650.292 966.244 650.292 966.244 556.819 938.557 556.819 891.177 592.076 787.555 592.076 787.555 556.819 735.064 556.819 735.064 704.59 633.531 704.59 633.531 571.044 564.089 571.044 503.387 525.874 400.492 525.874 340.012 570.879 340.012 732.306 173.549 732.306 173.549 694.997 81.922 694.997 38.23 662.485 0 662.485 0 774.246 1928.425 774.246 1928.425 115.956 1770.64 115.956 1770.64 0 1672.417 0 1672.417 60.542 1644.498 81.318 1622.646 81.318 1622.646 44.057 1605.673 44.057 1605.673 250.504 1543.801 296.545 1543.801 267.579 1474.651 267.579 1474.651 396.245 1414.522 396.245 1342.228 467.524"/><g id="Line_Four"><line class="cls-2" x1="1924.16251" y1="94.79372" x2="1481.99996" y2="94.79372"/><g id="Line_Four-2" data-name="Line_Four"><line class="cls-2" x1="1481.68627" y1="95.24091" x2="1166.31373" y2="405.15685"/></g><line class="cls-2" x1="1163.08128" y1="405.19888" x2="3.5" y2="405.19888"/></g></svg>