<svg id="Layer_1" data-name="Layer 1" xmlns="http://www.w3.org/2000/svg" viewBox="0 0 1924.21264 377.80982"><defs><style>.cls-1{fill:none;stroke:#b00875;stroke-linecap:round;stroke-miterlimit:10;stroke-width:5px;}.cls-2{fill:#3359a8;opacity:0.21;}</style></defs><g id="Line_Four"><line class="cls-1" x1="1919.21265" y1="8.57605" x2="2.5" y2="8.57605"/></g><polygon class="cls-2" points="1655.187 54.21 1564.136 54.21 1564.136 0 1507.455 0 1507.455 28.304 1491.344 38.016 1478.734 38.016 1478.734 20.597 1468.94 20.597 1468.94 117.111 1433.237 138.635 1433.237 125.094 1393.333 125.094 1393.333 185.245 1358.635 185.245 1316.917 218.569 1316.917 306.863 1260.936 306.863 1260.936 289.764 1215.238 289.764 1215.238 262.214 1193.546 262.214 1172.876 249.753 1148.56 264.412 1148.56 297.27 1148.56 329.398 1120.69 329.398 1120.69 304.013 1099.953 304.013 1099.953 260.314 1083.976 260.314 1056.635 276.797 996.839 276.797 996.839 260.314 966.549 260.314 966.549 329.398 907.958 329.398 907.958 266.964 867.886 266.964 832.858 245.847 773.481 245.847 738.581 266.887 738.581 342.355 642.522 342.355 642.522 324.913 589.648 324.913 564.435 309.713 542.374 309.713 542.374 361.962 1564.136 361.962 1564.136 377.81 1924.213 377.81 1924.213 54.21 1655.187 54.21"/></svg>