<svg id="Layer_1" data-name="Layer 1" xmlns="http://www.w3.org/2000/svg" viewBox="0 0 1929 759.41342"><defs><style>.cls-1{fill:#3359a8;opacity:0.21;}.cls-2{fill:none;stroke:#f6e17e;stroke-linecap:round;stroke-miterlimit:10;stroke-width:5px;}</style></defs><polygon class="cls-1" points="1553.201 309.786 1426.69 309.786 1426.69 234.464 1347.935 234.464 1347.935 273.791 1325.55 287.286 1308.029 287.286 1308.029 263.083 1294.42 263.083 1294.42 397.185 1244.812 427.092 1244.812 408.276 1189.368 408.276 1189.368 491.854 1141.156 491.854 1083.192 538.156 1083.192 660.837 1005.408 660.837 1005.408 637.077 941.912 637.077 941.912 598.799 911.773 598.799 883.053 581.485 849.267 601.853 849.267 647.507 849.267 692.147 810.543 692.147 810.543 656.877 781.729 656.877 781.729 596.159 759.53 596.159 721.541 619.061 638.458 619.061 638.458 596.159 596.371 596.159 596.371 692.147 514.962 692.147 514.962 605.399 459.284 605.399 410.613 576.058 328.113 576.058 279.62 605.292 279.62 710.151 146.151 710.151 146.151 685.916 72.685 685.916 37.653 664.796 7 664.796 7 737.394 1426.69 737.394 1426.69 759.413 1927 759.413 1927 309.786 1553.201 309.786"/><g id="Line_Two"><line class="cls-2" x1="454.5" y1="300.5" x2="1926.5" y2="300.5"/><path class="cls-2" d="M300.5,244.16667" transform="translate(7 -345)"/><path class="cls-2" d="M161.5,383.16667" transform="translate(7 -345)"/><line class="cls-2" x1="315.5" y1="431.5" x2="315.5" y2="695.5"/><line class="cls-2" x1="75.5" y1="3.5" x2="75.5" y2="719.5"/><line class="cls-2" x1="75.5" y1="3.5" x2="2.5" y2="2.5"/></g><path class="cls-2" d="M565.7296,400.88337" transform="translate(7 -345)"/><path class="cls-2" d="M309.01761,776.00213q-.03557-.99742-.05364-1.99887c-1.25611-69.676,61.80513-127.31437,140.85121-128.73891" transform="translate(7 -345)"/></svg>