<svg id="Layer_1" data-name="Layer 1" xmlns="http://www.w3.org/2000/svg" viewBox="0 0 2303 758.41342"><defs><style>.cls-1{fill:#3359a8;opacity:0.21;}.cls-2{fill:none;stroke:#f6e17e;stroke-linecap:round;stroke-miterlimit:10;stroke-width:5px;}</style></defs><polygon class="cls-1" points="1927.201 308.786 1800.69 308.786 1800.69 233.464 1721.935 233.464 1721.935 272.791 1699.55 286.286 1682.029 286.286 1682.029 262.083 1668.42 262.083 1668.42 396.185 1618.812 426.092 1618.812 407.276 1563.368 407.276 1563.368 490.854 1515.156 490.854 1457.192 537.156 1457.192 659.837 1379.408 659.837 1379.408 636.077 1315.912 636.077 1315.912 597.799 1285.773 597.799 1257.053 580.485 1223.267 600.853 1223.267 646.507 1223.267 691.147 1184.543 691.147 1184.543 655.877 1155.729 655.877 1155.729 595.159 1133.53 595.159 1095.541 618.061 1012.458 618.061 1012.458 595.159 970.371 595.159 970.371 691.147 888.962 691.147 888.962 604.399 833.284 604.399 784.613 575.058 702.113 575.058 653.62 604.292 653.62 709.151 520.151 709.151 520.151 684.916 446.685 684.916 411.653 663.796 381 663.796 381 736.394 1800.69 736.394 1800.69 758.413 2301 758.413 2301 308.786 1927.201 308.786"/><g id="Line_Two"><line class="cls-2" x1="828.5" y1="299.5" x2="2300.5" y2="299.5"/><path class="cls-2" d="M300.5,244.16667" transform="translate(381 -346)"/><path class="cls-2" d="M161.5,383.16667" transform="translate(381 -346)"/><line class="cls-2" x1="689.5" y1="430.5" x2="689.5" y2="694.5"/><line class="cls-2" x1="449.5" y1="2.5" x2="449.5" y2="718.5"/><line class="cls-2" x1="449.5" y1="2.5" x2="2.5" y2="2.5"/></g><path class="cls-2" d="M565.7296,400.88337" transform="translate(381 -346)"/><path class="cls-2" d="M309.01761,776.00213q-.03557-.99742-.05364-1.99887c-1.25611-69.676,61.80513-127.31437,140.85121-128.73891" transform="translate(381 -346)"/></svg>