<svg id="Layer_1" data-name="Layer 1" xmlns="http://www.w3.org/2000/svg" viewBox="0 0 1922 845.16342"><defs><style>.cls-1{fill:#3359a8;opacity:0.21;}.cls-2{fill:none;stroke:#f6e17e;stroke-linecap:round;stroke-miterlimit:10;stroke-width:5px;}</style></defs><polygon class="cls-1" points="1546.201 395.536 1419.69 395.536 1419.69 320.214 1340.935 320.214 1340.935 359.541 1318.55 373.036 1301.029 373.036 1301.029 348.833 1287.42 348.833 1287.42 482.935 1237.812 512.842 1237.812 494.026 1182.368 494.026 1182.368 577.604 1134.156 577.604 1076.192 623.906 1076.192 746.587 998.408 746.587 998.408 722.827 934.912 722.827 934.912 684.549 904.773 684.549 876.053 667.235 842.267 687.603 842.267 733.257 842.267 777.897 803.543 777.897 803.543 742.627 774.729 742.627 774.729 681.909 752.53 681.909 714.541 704.811 631.458 704.811 631.458 681.909 589.371 681.909 589.371 777.897 507.962 777.897 507.962 691.149 452.284 691.149 403.613 661.808 321.113 661.808 272.62 691.042 272.62 795.901 139.151 795.901 139.151 771.666 65.685 771.666 30.653 750.546 0 750.546 0 823.144 1419.69 823.144 1419.69 845.163 1920 845.163 1920 395.536 1546.201 395.536"/><g id="Line_Two"><line class="cls-2" x1="374.48194" y1="2.5" x2="1919.5" y2="2.5"/><line class="cls-2" x1="272.5" y1="105.25" x2="374" y2="3.75"/><line class="cls-2" x1="272.5" y1="105.25" x2="272.5" y2="815.25"/></g></svg>