<svg id="Layer_1" data-name="Layer 1" xmlns="http://www.w3.org/2000/svg" xmlns:xlink="http://www.w3.org/1999/xlink" viewBox="0 0 305.64934 745.03424"><defs><style>.cls-1{fill:url(#linear-gradient);}.cls-2{fill:#a4b7c3;}.cls-3{fill:url(#linear-gradient-2);}.cls-4{fill:url(#linear-gradient-3);}.cls-5{opacity:0.4;}.cls-6{fill:url(#linear-gradient-4);}.cls-7{fill:url(#linear-gradient-5);}.cls-8{fill:url(#linear-gradient-6);}.cls-9{fill:url(#linear-gradient-7);}.cls-10{fill:url(#linear-gradient-8);}.cls-11{fill:url(#linear-gradient-9);}.cls-12{fill:url(#linear-gradient-10);}.cls-13{fill:url(#linear-gradient-11);}.cls-14{fill:url(#linear-gradient-12);}.cls-15{fill:url(#linear-gradient-13);}.cls-16{fill:url(#linear-gradient-14);}.cls-17{fill:url(#linear-gradient-15);}.cls-18{fill:url(#linear-gradient-16);}</style><linearGradient id="linear-gradient" x1="196.77892" y1="273.20424" x2="303.21238" y2="273.20424" gradientUnits="userSpaceOnUse"><stop offset="0" stop-color="#61676d"/><stop offset="0.98231" stop-color="#7c8289"/></linearGradient><linearGradient id="linear-gradient-2" x1="951.82478" y1="382.77795" x2="1014.86369" y2="382.77795" gradientUnits="userSpaceOnUse"><stop offset="0" stop-color="#6f767d"/><stop offset="0.97858" stop-color="#899098"/></linearGradient><linearGradient id="linear-gradient-3" y1="372.51712" x2="58.04106" y2="372.51712" gradientUnits="userSpaceOnUse"><stop offset="0" stop-color="#9ba9b6"/><stop offset="0.25326" stop-color="#8d959f"/><stop offset="0.56206" stop-color="#89919a"/><stop offset="0.90171" stop-color="#7e858d"/><stop offset="1" stop-color="#7a8088"/></linearGradient><linearGradient id="linear-gradient-4" x1="23.39459" y1="71.64505" x2="323.84325" y2="139.75109" gradientUnits="userSpaceOnUse"><stop offset="0.05423" stop-color="#2c3e80"/><stop offset="0.80227" stop-color="#1d2047"/><stop offset="0.93704" stop-color="#18193d"/></linearGradient><linearGradient id="linear-gradient-5" x1="24.54171" y1="94.32816" x2="321.1559" y2="161.565" xlink:href="#linear-gradient-4"/><linearGradient id="linear-gradient-6" x1="24.39779" y1="116.72746" x2="318.85982" y2="183.47645" xlink:href="#linear-gradient-4"/><linearGradient id="linear-gradient-7" x1="24.06243" y1="140.9081" x2="321.22434" y2="208.26909" xlink:href="#linear-gradient-4"/><linearGradient id="linear-gradient-8" x1="23.40791" y1="167.83592" x2="319.1067" y2="234.86525" xlink:href="#linear-gradient-4"/><linearGradient id="linear-gradient-9" x1="22.61293" y1="197.91608" x2="315.79644" y2="264.37524" xlink:href="#linear-gradient-4"/><linearGradient id="linear-gradient-10" x1="24.64549" y1="227.21833" x2="310.34322" y2="291.98061" xlink:href="#linear-gradient-4"/><linearGradient id="linear-gradient-11" x1="21.80334" y1="255.73129" x2="309.15882" y2="320.86935" xlink:href="#linear-gradient-4"/><linearGradient id="linear-gradient-12" x1="20.54987" y1="288.80632" x2="303.95671" y2="353.0493" xlink:href="#linear-gradient-4"/><linearGradient id="linear-gradient-13" x1="24.97873" y1="316.82983" x2="305.01104" y2="377.09777" xlink:href="#linear-gradient-4"/><linearGradient id="linear-gradient-14" x1="24.44846" y1="343.48064" x2="302.26245" y2="403.27116" xlink:href="#linear-gradient-4"/><linearGradient id="linear-gradient-15" x1="27.03366" y1="367.88846" x2="297.82645" y2="426.16789" xlink:href="#linear-gradient-4"/><linearGradient id="linear-gradient-16" x1="24.9288" y1="391.67305" x2="297.43025" y2="450.32021" xlink:href="#linear-gradient-4"/></defs><polygon class="cls-1" points="303.212 205.719 201.406 36.043 196.779 442.512 303.212 510.366 303.212 205.719"/><path class="cls-2" d="M825.84163,570.30051,860.78688,168.948s109.7215-.59782,112.80652-.59782-9.42851,431.25813-9.42851,431.25813Z" transform="translate(-807.17533 -167.98288)"/><path class="cls-3" d="M971.1062,167.98288s27.425,7.14547,43.75749,34.36631l-6.63708,394.16335L951.82478,597.573Z" transform="translate(-807.17533 -167.98288)"/><polygon class="cls-4" points="0 667.909 20.755 68.789 58.041 0 23.138 745.034 0 667.909"/><g class="cls-5"><polygon class="cls-6" points="19.619 101.566 54.336 19.753 57.216 18.022 161.575 23.576 163.222 24.176 209.495 59.08 210.224 59.872 304.66 214.795 205.153 63.079 205.882 63.87 159.609 28.966 161.256 29.567 56.897 24.013 59.777 22.282 19.619 101.566"/></g><g class="cls-5"><polygon class="cls-7" points="20.249 126.566 53.084 46.177 56.031 44.414 163.932 52.022 165.553 52.639 209.52 86.55 210.18 87.255 303.212 231.401 205.197 90.596 205.856 91.301 161.889 57.39 163.51 58.007 55.609 50.399 58.557 48.636 20.249 126.566"/></g><g class="cls-5"><polygon class="cls-8" points="17.593 160.049 50.282 79.829 53.02 78.057 158.44 78.057 160.02 78.507 209.381 109.085 210.274 109.937 301.986 248.707 205.329 113.335 206.221 114.186 156.86 83.607 158.44 84.057 53.02 84.057 55.757 82.285 17.593 160.049"/></g><g class="cls-5"><polygon class="cls-9" points="14.479 196.525 50.265 105.996 53.108 104.185 157.275 107.247 158.904 107.786 204.749 139.793 205.361 140.362 305.649 268.596 200.704 144.145 201.315 144.713 155.469 112.706 157.098 113.244 52.932 110.183 55.774 108.372 14.479 196.525"/></g><g class="cls-5"><polygon class="cls-10" points="14.479 220.478 48.675 140.705 51.39 138.981 155.714 138.981 157.312 139.442 206.948 170.672 207.64 171.272 304.66 290.437 203.062 175.15 203.753 175.75 154.116 144.52 155.714 144.981 51.39 144.981 54.104 143.258 14.479 220.478"/></g><g class="cls-5"><polygon class="cls-11" points="12.722 254.846 47.234 171.09 49.968 169.324 157.512 169.324 158.991 169.713 206.655 196.709 207.441 197.352 303.158 312.107 202.912 201.287 203.698 201.93 156.034 174.934 157.512 175.324 49.968 175.324 52.702 173.558 12.722 254.846"/></g><g class="cls-5"><polygon class="cls-12" points="15.468 280.931 48.039 206.251 50.64 204.553 154.673 200.956 155.931 201.185 205.638 221.9 206.716 222.664 299.78 330.739 202.252 226.674 203.33 227.438 153.623 206.723 154.88 206.952 50.847 210.549 53.447 208.851 15.468 280.931"/></g><g class="cls-5"><polygon class="cls-13" points="12.334 310.583 48.861 236.177 51.321 234.601 152.389 228.406 153.755 228.644 203.629 250.039 204.535 250.642 301.274 348.595 200.359 254.95 201.264 255.553 151.39 234.158 152.756 234.395 51.688 240.59 54.147 239.014 12.334 310.583"/></g><g class="cls-5"><polygon class="cls-14" points="10.649 345.549 49.612 267.258 52.11 265.69 157.065 260.765 158.632 261.122 200.286 284.551 200.599 284.757 299.78 365.642 197.896 288.189 198.209 288.394 155.78 266.401 157.346 266.758 52.391 271.683 54.889 270.114 10.649 345.549"/></g><g class="cls-5"><polygon class="cls-15" points="17.506 365.344 48.266 297.787 50.868 296.141 150.056 293.626 151.512 293.961 199.363 318.75 200.085 319.273 294.877 416.56 195.881 323.554 196.603 324.078 148.752 299.289 150.208 299.624 51.02 302.139 53.621 300.492 17.506 365.344"/></g><g class="cls-5"><polygon class="cls-16" points="16.561 393.983 47.532 323.114 50.156 321.422 152.406 318.83 153.746 319.108 199.632 340.421 200.443 340.975 293.906 434.627 196.294 345.309 197.105 345.863 151.218 324.55 152.558 324.828 50.308 327.42 52.932 325.728 16.561 393.983"/></g><g class="cls-5"><polygon class="cls-17" points="19.722 415.622 49.047 352.337 51.546 350.719 150.381 345.218 151.504 345.37 199.201 361.408 200.283 362.05 291.087 450.212 196.207 366.453 197.289 367.095 149.592 351.057 150.715 351.209 51.879 356.709 54.378 355.091 19.722 415.622"/></g><g class="cls-5"><polygon class="cls-18" points="17.368 440.37 50.473 377.192 52.833 375.704 148.795 368.113 150.015 368.27 197.884 384.869 198.784 385.368 292.884 465.033 195.02 390.04 195.919 390.538 148.049 373.938 149.268 374.095 53.306 381.685 55.666 380.198 17.368 440.37"/></g></svg>