<svg id="Layer_1" data-name="Layer 1" xmlns="http://www.w3.org/2000/svg" xmlns:xlink="http://www.w3.org/1999/xlink" viewBox="0 0 1629.48334 1085"><defs><style>.cls-1,.cls-11,.cls-21,.cls-30{fill:#201f50;}.cls-2{fill:#1b4b99;opacity:0.56;}.cls-18,.cls-24,.cls-3,.cls-4,.cls-90,.cls-91{fill:#fff;}.cls-16,.cls-18,.cls-24,.cls-3,.cls-4,.cls-47{stroke:#231f20;}.cls-12,.cls-15,.cls-16,.cls-17,.cls-18,.cls-24,.cls-3,.cls-31,.cls-32,.cls-33,.cls-34,.cls-35,.cls-36,.cls-37,.cls-38,.cls-39,.cls-4,.cls-40,.cls-41,.cls-42,.cls-43,.cls-44,.cls-47,.cls-72,.cls-82,.cls-84,.cls-89{stroke-miterlimit:10;}.cls-3,.cls-47{opacity:0.19;}.cls-4{opacity:0.51;}.cls-5{fill:url(#linear-gradient);}.cls-6{fill:url(#linear-gradient-2);}.cls-7{fill:url(#linear-gradient-3);}.cls-8{fill:url(#linear-gradient-4);}.cls-9{fill:url(#linear-gradient-5);}.cls-10{fill:url(#linear-gradient-6);}.cls-11{opacity:0.29;}.cls-12,.cls-15,.cls-16,.cls-17,.cls-31,.cls-32,.cls-33,.cls-34,.cls-35,.cls-36,.cls-37,.cls-38,.cls-39,.cls-40,.cls-41,.cls-42,.cls-43,.cls-44,.cls-47,.cls-72,.cls-82,.cls-84,.cls-89{fill:none;}.cls-12,.cls-15,.cls-16,.cls-17,.cls-31,.cls-32,.cls-33,.cls-34,.cls-35,.cls-36,.cls-37,.cls-38,.cls-39,.cls-40,.cls-41,.cls-42,.cls-43,.cls-44{stroke-width:4px;}.cls-12,.cls-13,.cls-15,.cls-17{opacity:0.99;}.cls-12{stroke:url(#linear-gradient-7);}.cls-14{fill:url(#linear-gradient-8);}.cls-15{stroke:url(#linear-gradient-9);}.cls-17{stroke:url(#linear-gradient-10);}.cls-19{fill:url(#linear-gradient-11);}.cls-20,.cls-23{fill:#38447d;}.cls-20{opacity:0.73;}.cls-21,.cls-28{opacity:0.78;}.cls-22{fill:#f7e07e;opacity:0.81;}.cls-24,.cls-80{opacity:0.39;}.cls-25{fill:#212057;}.cls-26{fill:#203460;}.cls-27{fill:url(#linear-gradient-12);}.cls-28{fill:#212449;}.cls-29{fill:url(#linear-gradient-13);}.cls-30{opacity:0.77;}.cls-31,.cls-32,.cls-33,.cls-34,.cls-35,.cls-36,.cls-37,.cls-38,.cls-39,.cls-40,.cls-41,.cls-42,.cls-43,.cls-44,.cls-54,.cls-57{opacity:0.69;}.cls-31{stroke:url(#linear-gradient-14);}.cls-32{stroke:url(#linear-gradient-15);}.cls-33{stroke:url(#linear-gradient-16);}.cls-34{stroke:url(#linear-gradient-17);}.cls-35{stroke:url(#linear-gradient-18);}.cls-36{stroke:url(#linear-gradient-19);}.cls-37{stroke:url(#linear-gradient-20);}.cls-38{stroke:url(#linear-gradient-21);}.cls-39{stroke:url(#linear-gradient-22);}.cls-40{stroke:url(#linear-gradient-23);}.cls-41{stroke:url(#linear-gradient-24);}.cls-42{stroke:url(#linear-gradient-25);}.cls-43{stroke:url(#linear-gradient-26);}.cls-44{stroke:url(#linear-gradient-27);}.cls-45{opacity:0.94;}.cls-46{fill:#232551;}.cls-47{stroke-width:8px;}.cls-48{fill:#7a8e9f;}.cls-49{fill:url(#linear-gradient-28);}.cls-50,.cls-51,.cls-83{opacity:0.48;}.cls-50{fill:url(#linear-gradient-29);}.cls-51{fill:url(#linear-gradient-30);}.cls-52{fill:url(#linear-gradient-31);}.cls-53{fill:url(#linear-gradient-32);}.cls-54{fill:url(#linear-gradient-33);}.cls-55{fill:url(#linear-gradient-34);}.cls-56,.cls-58,.cls-67,.cls-69,.cls-70,.cls-71{opacity:0.57;}.cls-56{fill:url(#linear-gradient-35);}.cls-57{fill:url(#linear-gradient-36);}.cls-58{fill:url(#linear-gradient-37);}.cls-59{fill:url(#linear-gradient-38);}.cls-60{fill:url(#linear-gradient-39);}.cls-61{fill:url(#linear-gradient-40);}.cls-62{fill:url(#linear-gradient-41);}.cls-63{fill:#f0c38c;}.cls-64{fill:url(#linear-gradient-42);}.cls-65{fill:url(#linear-gradient-43);}.cls-66{fill:url(#linear-gradient-44);}.cls-67{fill:url(#linear-gradient-45);}.cls-68{fill:url(#linear-gradient-46);}.cls-69{fill:url(#linear-gradient-47);}.cls-70{fill:url(#linear-gradient-48);}.cls-71{fill:url(#linear-gradient-49);}.cls-72{stroke:url(#linear-gradient-50);}.cls-73{fill:url(#linear-gradient-51);}.cls-74{fill:url(#linear-gradient-52);}.cls-75{fill:url(#linear-gradient-53);}.cls-76{fill:url(#linear-gradient-54);}.cls-77{fill:url(#linear-gradient-55);}.cls-78{fill:url(#linear-gradient-56);}.cls-79{fill:url(#linear-gradient-57);}.cls-80{fill:url(#linear-gradient-58);}.cls-81{opacity:0.41;fill:url(#linear-gradient-59);}.cls-82{stroke:#232551;stroke-width:9px;}.cls-83{fill:url(#linear-gradient-60);}.cls-84{stroke:#e8b520;}.cls-85{fill:url(#linear-gradient-61);}.cls-86{fill:url(#linear-gradient-62);}.cls-87{fill:url(#linear-gradient-63);}.cls-88{fill:url(#linear-gradient-64);}.cls-89{stroke:#201f50;stroke-width:3px;}.cls-91{opacity:0.65;}.cls-92{fill:#fdde00;}.cls-93{fill:#51a2b6;}</style><linearGradient id="linear-gradient" x1="2055.36105" y1="160.03238" x2="1334.69544" y2="590.42989" gradientUnits="userSpaceOnUse"><stop offset="0" stop-color="#51a2b6"/><stop offset="0.00787" stop-color="#50a0b4"/><stop offset="0.14737" stop-color="#417a94"/><stop offset="0.29287" stop-color="#355b7a"/><stop offset="0.44399" stop-color="#2c4366"/><stop offset="0.60318" stop-color="#253157"/><stop offset="0.77563" stop-color="#21274f"/><stop offset="0.98569" stop-color="#20244c"/></linearGradient><linearGradient id="linear-gradient-2" x1="836.90447" y1="600.97532" x2="1883.11947" y2="600.97532" gradientUnits="userSpaceOnUse"><stop offset="0" stop-color="#3c4e98"/><stop offset="0.12069" stop-color="#595882"/><stop offset="0.34984" stop-color="#8a6a5c"/><stop offset="0.5513" stop-color="#ad7741"/><stop offset="0.71527" stop-color="#c37f30"/><stop offset="0.82123" stop-color="#cb822a"/><stop offset="0.95438" stop-color="#e48727"/></linearGradient><linearGradient id="linear-gradient-3" x1="729.32633" y1="501.14028" x2="1587.30448" y2="501.14028" xlink:href="#linear-gradient-2"/><linearGradient id="linear-gradient-4" x1="1105.66391" y1="360.91225" x2="1851.96311" y2="492.50494" xlink:href="#linear-gradient-2"/><linearGradient id="linear-gradient-5" x1="1066.9523" y1="300.43457" x2="1841.00987" y2="436.92181" xlink:href="#linear-gradient-2"/><linearGradient id="linear-gradient-6" x1="1125.00257" y1="186.40084" x2="1855.84367" y2="315.26784" xlink:href="#linear-gradient-2"/><linearGradient id="linear-gradient-7" x1="1107.14188" y1="256.98606" x2="1918.14365" y2="256.98606" gradientTransform="matrix(0.98721, -0.01873, 0.01844, 0.97197, -7.43304, 30.84296)" gradientUnits="userSpaceOnUse"><stop offset="0.07022" stop-color="#faaf40"/><stop offset="0.5248" stop-color="#f9af42"/><stop offset="0.68852" stop-color="#f4b049"/><stop offset="0.80519" stop-color="#edb154"/><stop offset="0.89956" stop-color="#e2b265"/><stop offset="0.97946" stop-color="#d4b37b"/><stop offset="1" stop-color="#d0b482"/></linearGradient><linearGradient id="linear-gradient-8" x1="932.81883" y1="471.09427" x2="1906.58653" y2="333.54958" gradientTransform="matrix(1, 0, 0, 1, 0, 0)" xlink:href="#linear-gradient-7"/><linearGradient id="linear-gradient-9" x1="742.16947" y1="517.46105" x2="1604.14761" y2="517.46105" gradientTransform="matrix(1, 0, 0, 1, 0, 0)" xlink:href="#linear-gradient-7"/><linearGradient id="linear-gradient-10" x1="1164.31577" y1="493.00546" x2="1943.50167" y2="493.00546" gradientTransform="matrix(0.98796, -0.08263, 0.08283, 0.9903, -62.60308, 65.99357)" xlink:href="#linear-gradient-7"/><linearGradient id="linear-gradient-11" x1="331.64052" y1="879.512" x2="1608.84445" y2="879.512" gradientUnits="userSpaceOnUse"><stop offset="0" stop-color="#4a4b4c"/><stop offset="0.15388" stop-color="#4f4f4e"/><stop offset="0.33127" stop-color="#5d5a54"/><stop offset="0.52032" stop-color="#746c5d"/><stop offset="0.71759" stop-color="#94856a"/><stop offset="0.9192" stop-color="#bda57a"/><stop offset="1" stop-color="#d0b482"/></linearGradient><linearGradient id="linear-gradient-12" x1="854.70275" y1="1282.45693" x2="1462.79184" y2="482.90272" gradientUnits="userSpaceOnUse"><stop offset="0.06238" stop-color="#20244c"/><stop offset="0.09831" stop-color="#343c5f"/><stop offset="0.16148" stop-color="#52607b"/><stop offset="0.22068" stop-color="#687a8f"/><stop offset="0.27379" stop-color="#75899c"/><stop offset="0.31564" stop-color="#7a8fa0"/><stop offset="0.37927" stop-color="#7f93a4"/><stop offset="0.45745" stop-color="#8ea0ae"/><stop offset="0.54327" stop-color="#a7b4c0"/><stop offset="0.63386" stop-color="#cad1d8"/><stop offset="0.7067" stop-color="#ebecef"/><stop offset="0.94134" stop-color="#fff"/></linearGradient><linearGradient id="linear-gradient-13" x1="393.1144" y1="800.04619" x2="461.01304" y2="800.04619" gradientUnits="userSpaceOnUse"><stop offset="0" stop-color="#7acde1"/><stop offset="0.97716" stop-color="#7a8e9f"/></linearGradient><linearGradient id="linear-gradient-14" x1="1463.30656" y1="352.86359" x2="1572.11867" y2="352.86359" gradientUnits="userSpaceOnUse"><stop offset="0.07022" stop-color="#faaf40"/><stop offset="0.43126" stop-color="#f9af3e"/><stop offset="0.56114" stop-color="#f7ad37"/><stop offset="0.65354" stop-color="#f4ab2c"/><stop offset="0.66244" stop-color="#f3ab2a"/><stop offset="1" stop-color="#ee9224"/></linearGradient><linearGradient id="linear-gradient-15" x1="1396.31305" y1="364.09003" x2="1491.93683" y2="364.09003" xlink:href="#linear-gradient-14"/><linearGradient id="linear-gradient-16" x1="1030.74656" y1="461.86175" x2="1108.94453" y2="461.86175" xlink:href="#linear-gradient-14"/><linearGradient id="linear-gradient-17" x1="977.13356" y1="483.8413" x2="1034.6939" y2="483.8413" xlink:href="#linear-gradient-14"/><linearGradient id="linear-gradient-18" x1="1003.00804" y1="474.21993" x2="1071.80366" y2="474.21993" xlink:href="#linear-gradient-14"/><linearGradient id="linear-gradient-19" x1="949.90417" y1="497.54203" x2="1007.87603" y2="497.54203" xlink:href="#linear-gradient-14"/><linearGradient id="linear-gradient-20" x1="931.16996" y1="505.89706" x2="994.83352" y2="505.89706" xlink:href="#linear-gradient-14"/><linearGradient id="linear-gradient-21" x1="1067.897" y1="454.74349" x2="1149.23586" y2="454.74349" xlink:href="#linear-gradient-14"/><linearGradient id="linear-gradient-22" x1="1105.03213" y1="439.53295" x2="1184.02246" y2="439.53295" xlink:href="#linear-gradient-14"/><linearGradient id="linear-gradient-23" x1="1145.34162" y1="436.35542" x2="1235.41982" y2="436.35542" xlink:href="#linear-gradient-14"/><linearGradient id="linear-gradient-24" x1="1225.81218" y1="426.99209" x2="1316.91779" y2="426.99209" xlink:href="#linear-gradient-14"/><linearGradient id="linear-gradient-25" x1="1329.45668" y1="389.7882" x2="1409.80966" y2="389.7882" xlink:href="#linear-gradient-14"/><linearGradient id="linear-gradient-26" x1="1276.01145" y1="402.69488" x2="1344.44257" y2="402.69488" xlink:href="#linear-gradient-14"/><linearGradient id="linear-gradient-27" x1="1177.14514" y1="343.13554" x2="1214.46645" y2="343.13554" xlink:href="#linear-gradient-14"/><linearGradient id="linear-gradient-28" x1="671.91363" y1="788.99034" x2="713.00692" y2="830.08363" gradientUnits="userSpaceOnUse"><stop offset="0" stop-color="#6a6259"/><stop offset="0.25165" stop-color="#786d5f"/><stop offset="0.72566" stop-color="#9d8b6f"/><stop offset="1" stop-color="#b59e79"/></linearGradient><linearGradient id="linear-gradient-29" x1="735.83791" y1="839.14517" x2="1152.92956" y2="839.14517" xlink:href="#linear-gradient-14"/><linearGradient id="linear-gradient-30" x1="1198.24242" y1="858.78573" x2="1615.33408" y2="858.78573" xlink:href="#linear-gradient-14"/><linearGradient id="linear-gradient-31" x1="775.90384" y1="778.02254" x2="827.15548" y2="829.27419" xlink:href="#linear-gradient-28"/><linearGradient id="linear-gradient-32" x1="846.10828" y1="754.92186" x2="846.10828" y2="846.75674" xlink:href="#linear-gradient-11"/><linearGradient id="linear-gradient-33" x1="925.28446" y1="796.97073" x2="983.94682" y2="796.97073" xlink:href="#linear-gradient-14"/><linearGradient id="linear-gradient-34" x1="950.97215" y1="742.00812" x2="950.97215" y2="846.75674" xlink:href="#linear-gradient-11"/><linearGradient id="linear-gradient-35" x1="650.19692" y1="838.84256" x2="619.39278" y2="785.48822" gradientUnits="userSpaceOnUse"><stop offset="0" stop-color="#7acde1"/><stop offset="0.33479" stop-color="#e8b520"/><stop offset="0.41521" stop-color="#eec017"/><stop offset="0.58444" stop-color="#f6d10a"/><stop offset="0.76979" stop-color="#fbdb02"/><stop offset="1" stop-color="#fdde00"/></linearGradient><linearGradient id="linear-gradient-36" x1="1048.49354" y1="792.32901" x2="1118.64054" y2="792.32901" xlink:href="#linear-gradient-14"/><linearGradient id="linear-gradient-37" x1="692.07153" y1="838.61012" x2="660.78249" y2="784.4159" xlink:href="#linear-gradient-35"/><linearGradient id="linear-gradient-38" x1="1079.21025" y1="726.60609" x2="1079.21025" y2="851.86189" xlink:href="#linear-gradient-11"/><linearGradient id="linear-gradient-39" x1="1312.27895" y1="924.69407" x2="1312.27895" y2="811.3721" gradientUnits="userSpaceOnUse"><stop offset="0" stop-color="#786c5f"/><stop offset="0.19145" stop-color="#8b7d64"/><stop offset="0.57899" stop-color="#bcaa6f"/><stop offset="1" stop-color="#f7e07e"/></linearGradient><linearGradient id="linear-gradient-40" x1="1650.93037" y1="924.68151" x2="1650.93037" y2="804.16968" xlink:href="#linear-gradient-39"/><linearGradient id="linear-gradient-41" x1="1693.19805" y1="926.70201" x2="1693.19805" y2="800.44985" xlink:href="#linear-gradient-39"/><linearGradient id="linear-gradient-42" x1="745.23925" y1="782.43184" x2="794.61415" y2="831.80675" xlink:href="#linear-gradient-28"/><linearGradient id="linear-gradient-43" x1="708.70979" y1="784.14411" x2="754.66269" y2="830.09702" xlink:href="#linear-gradient-28"/><linearGradient id="linear-gradient-44" x1="866.83248" y1="768.34048" x2="931.9548" y2="833.4628" xlink:href="#linear-gradient-28"/><linearGradient id="linear-gradient-45" x1="992.15602" y1="864.30147" x2="995.40511" y2="765.33049" xlink:href="#linear-gradient-35"/><linearGradient id="linear-gradient-46" x1="1133.60666" y1="717.66945" x2="1133.60666" y2="855.33009" xlink:href="#linear-gradient-11"/><linearGradient id="linear-gradient-47" x1="772.03316" y1="842.16455" x2="734.70584" y2="777.51173" xlink:href="#linear-gradient-35"/><linearGradient id="linear-gradient-48" x1="901.24034" y1="848.43215" x2="852.12584" y2="763.36334" xlink:href="#linear-gradient-35"/><linearGradient id="linear-gradient-49" x1="1202.48105" y1="856.01856" x2="1127.3338" y2="725.85971" xlink:href="#linear-gradient-35"/><linearGradient id="linear-gradient-50" x1="1334.56777" y1="706.77539" x2="1542.32986" y2="706.77539" xlink:href="#linear-gradient-11"/><linearGradient id="linear-gradient-51" x1="918.29191" y1="867.46879" x2="1854.47473" y2="867.46879" gradientUnits="userSpaceOnUse"><stop offset="0" stop-color="#4a4b4c"/><stop offset="0.56973" stop-color="#4f4d50"/><stop offset="1" stop-color="#575156"/></linearGradient><linearGradient id="linear-gradient-52" x1="1151.17291" y1="734.78113" x2="1250.57976" y2="834.18798" xlink:href="#linear-gradient-28"/><linearGradient id="linear-gradient-53" x1="918.29187" y1="875.70573" x2="1854.4748" y2="875.70573" xlink:href="#linear-gradient-51"/><linearGradient id="linear-gradient-54" x1="913.29044" y1="885.12256" x2="1854.39791" y2="885.12256" xlink:href="#linear-gradient-51"/><linearGradient id="linear-gradient-55" x1="1706.43404" y1="713.76597" x2="1861.35367" y2="868.6856" xlink:href="#linear-gradient-11"/><linearGradient id="linear-gradient-56" x1="1731.46194" y1="742.40333" x2="1844.85039" y2="855.79178" xlink:href="#linear-gradient-11"/><linearGradient id="linear-gradient-57" x1="1461.40078" y1="769.47472" x2="1519.528" y2="827.60194" xlink:href="#linear-gradient-11"/><linearGradient id="linear-gradient-58" x1="919.83764" y1="353.08258" x2="1768.77944" y2="353.08258" gradientUnits="userSpaceOnUse"><stop offset="0.06238" stop-color="#20244c"/><stop offset="0.12893" stop-color="#364974"/><stop offset="0.20153" stop-color="#4a6a98"/><stop offset="0.27466" stop-color="#5984b5"/><stop offset="0.34751" stop-color="#6497c9"/><stop offset="0.42001" stop-color="#6ba2d5"/><stop offset="0.4918" stop-color="#6da6d9"/><stop offset="0.58657" stop-color="#6da5d8" stop-opacity="0.99042"/><stop offset="0.63332" stop-color="#6ca4d6" stop-opacity="0.95746"/><stop offset="0.6696" stop-color="#6aa0d2" stop-opacity="0.9007"/><stop offset="0.70045" stop-color="#689bcc" stop-opacity="0.82003"/><stop offset="0.72788" stop-color="#6495c4" stop-opacity="0.71525"/><stop offset="0.75285" stop-color="#618ebb" stop-opacity="0.58627"/><stop offset="0.776" stop-color="#5c85b0" stop-opacity="0.43268"/><stop offset="0.79708" stop-color="#577ba3" stop-opacity="0.25989"/><stop offset="0.80354" stop-color="#55779f" stop-opacity="0.2"/><stop offset="0.87488" stop-color="#465f87" stop-opacity="0.42721"/><stop offset="1" stop-color="#20244c"/></linearGradient><linearGradient id="linear-gradient-59" x1="1497.93307" y1="314.12409" x2="930.20404" y2="616.5286" gradientUnits="userSpaceOnUse"><stop offset="0.12699" stop-color="#d7c56f"/><stop offset="0.3128" stop-color="#d6c470" stop-opacity="0.99103"/><stop offset="0.40449" stop-color="#d1c171" stop-opacity="0.96021"/><stop offset="0.47557" stop-color="#c8bc75" stop-opacity="0.90715"/><stop offset="0.53609" stop-color="#bcb579" stop-opacity="0.83168"/><stop offset="0.58984" stop-color="#acab7f" stop-opacity="0.73373"/><stop offset="0.63882" stop-color="#989f86" stop-opacity="0.61306"/><stop offset="0.68419" stop-color="#81918f" stop-opacity="0.46949"/><stop offset="0.72555" stop-color="#678299" stop-opacity="0.30777"/><stop offset="0.74932" stop-color="#55779f" stop-opacity="0.2"/><stop offset="0.84036" stop-color="#465f87" stop-opacity="0.42721"/><stop offset="1" stop-color="#20244c"/></linearGradient><linearGradient id="linear-gradient-60" x1="617.5428" y1="738.92443" x2="1053.54361" y2="738.92443" xlink:href="#linear-gradient-14"/><linearGradient id="linear-gradient-61" x1="1372.86986" y1="536.04656" x2="754.7522" y2="655.30605" gradientUnits="userSpaceOnUse"><stop offset="0" stop-color="#839092" stop-opacity="0.3"/><stop offset="0.14713" stop-color="#748896" stop-opacity="0.26831"/><stop offset="0.32102" stop-color="#55779f" stop-opacity="0.2"/><stop offset="0.48286" stop-color="#3f547c" stop-opacity="0.53871"/><stop offset="0.73557" stop-color="#20244c"/></linearGradient><linearGradient id="linear-gradient-62" x1="981.3485" y1="769.92539" x2="1064.95028" y2="818.1929" xlink:href="#linear-gradient-28"/><linearGradient id="linear-gradient-63" x1="1318.03714" y1="822.67122" x2="1318.03714" y2="862.75175" xlink:href="#linear-gradient-11"/><linearGradient id="linear-gradient-64" x1="1287.96905" y1="730.40623" x2="1552.17304" y2="730.40623" xlink:href="#linear-gradient-11"/></defs><polygon class="cls-1" points="10.52 872.619 610.264 840.981 716.023 733.651 1629.483 599.049 1622.809 909.321 716.023 1060.12 0 1060.12 10.52 872.619"/><path class="cls-2" d="M933.751,614.97357s52.7427-145.66436,244.617-305.20151S1883.11947,7.60523,1883.11947,7.60523V109.05005s-290.91567,64.446-571.53075,206.79136S933.751,614.97357,933.751,614.97357Z" transform="translate(-295.815)"/><path class="cls-3" d="M899.65009,702.72934c-1.5494,3.61123,5.79327-146.66438,316.62473-329.54539s666.84465-259.6149,666.84465-259.6149V198.1064s-98.95215,31.39893-628.82023,280.92411C1254.29924,479.03051,924.20272,645.50406,899.65009,702.72934Z" transform="translate(-295.815)"/><path class="cls-4" d="M913.29044,702.7931s261.19768-128.82064,934.6976-375.92982l35.13143-11.05488V198.1064S1033.32554,531.181,913.29044,702.7931Z" transform="translate(-295.815)"/><path class="cls-5" d="M836.90447,746.94888s-2.14167-25.144,370.03259-172.33818,676.18241-258.8023,676.18241-258.8023v92.37267s-541.522,155.38679-969.829,308.85459Z" transform="translate(-295.815)"/><path class="cls-6" d="M861.45711,793.76956,1883.11947,661.111V408.18107S911.92641,689.7236,836.90447,746.94888Z" transform="translate(-295.815)"/><polygon class="cls-1" points="753.879 711.833 762.063 727.44 1587.304 550.562 1579.12 490.736 753.879 711.833"/><path class="cls-1" d="M1040.568,710.38228,1882.0463,479.09786l.77722-70.485s-815.87915,260.20751-841.88871,268.50139Z" transform="translate(-295.815)"/><polygon class="cls-7" points="729.326 658.51 729.326 666.313 1587.304 377.586 1587.304 335.967 729.326 658.51"/><path class="cls-8" d="M1063.33432,600.97532s282.35528-185.673,819.78515-384.66088v99.494L1063.33432,635.1326Z" transform="translate(-295.815)"/><path class="cls-9" d="M1025.14133,590.87993V537.55637s252.34651-283.52526,857.97814-407.07985V198.1064s-766.27938,336.7159-857.97814,408.82611Z" transform="translate(-295.815)"/><path class="cls-10" d="M1076.26744,462.79152S1457.25726,227.426,1858.75363,133.09916l30.47879-7.18834V36.17118S1301.33325,170.19412,1076.26744,462.79152Z" transform="translate(-295.815)"/><path class="cls-11" d="M1892.66772,669.994l5.29489-641.49634s-868.5925,134.0062-988.5328,702.62334Z" transform="translate(-295.815)"/><path class="cls-12" d="M1098.9976,454.78372s367.77679-229.85041,758.07262-320.95825l29.628-6.94094-1.59017-79.93287S1217.456,219.9722,1098.9976,454.78372Z" transform="translate(-295.815)"/><g class="cls-13"><path class="cls-14" d="M962.02844,659.7522c-1.49438,1.7868-3.15863-.96131-2.44769-.31879a3.38833,3.38833,0,0,1-.07758-.4068c-.03033-.229-.044-.42932-.05413-.6286-.01874-.39514-.01752-.77118-.00769-1.14447.02069-.74487.07794-1.47229.15472-2.19464.15472-1.44348.39154-2.86157.675-4.26593a73.95636,73.95636,0,0,1,2.22113-8.25507,115.1522,115.1522,0,0,1,6.56622-15.65869A204.79225,204.79225,0,0,1,986.9267,598.197q4.98129-6.81967,10.36676-13.32281,5.33313-6.54008,10.97284-12.8191,11.20688-12.61449,23.38055-24.3266c8.11206-7.79437,16.52857-15.26245,25.11365-22.5216q12.87853-10.88937,26.25549-21.15842c17.81165-13.71231,36.16333-26.70233,54.865-39.14978q28.05506-18.67113,57.0625-35.83359c19.31409-11.46051,38.832-22.58246,58.61487-33.20175q59.18628-32.164,120.17029-60.83423,60.87872-28.80794,123.04284-54.76989,62.10663-26.038,125.14685-49.76041,63.03425-23.69612,126.85779-45.21448,31.90925-10.74717,64.004-20.93907c21.40808-6.77219,42.84546-13.38708,64.45838-19.58795l.00366-.001,2.18677-.62093.33374,2.25305,8.10791,54.73064.00048.00334.23731,1.60858-1.54993.57051c-4.98327,1.83438-10.02514,3.80492-15.01526,5.79637l-7.49878,2.996-7.47924,3.056q-7.48591,3.03852-14.93921,6.16659l-14.91321,6.23761q-29.78907,12.573-59.44727,25.47393c-39.568,17.141-78.97229,34.66946-118.36743,52.21554q-118.11255,52.808-235.6333,106.94873c-39.22278,17.94394-78.33118,36.09894-117.49548,54.15225-4.92237,2.21091-9.69483,4.63321-14.54859,7.01093l-14.48645,7.18182-28.90735,14.49884q-28.86548,14.583-57.55932,29.50067c-38.23914,19.92005-76.27014,40.2558-113.69336,61.64484-18.694,10.71887-37.25171,21.68689-55.356,33.33978-9.04071,5.83832-17.97607,11.84626-26.57422,18.27619-4.29223,3.21972-8.49835,6.5534-12.46783,10.11694-1.97937,1.78485-3.89569,3.63287-5.6673,5.58331A28.02005,28.02005,0,0,0,962.02844,659.7522Zm-2.23742-1.04383a30.2516,30.2516,0,0,1,4.8753-6.87176c1.85089-2.0437,3.81879-3.94452,5.83966-5.77265,4.05017-3.64648,8.29962-7.02246,12.62653-10.27868,8.66473-6.49945,17.62939-12.54492,26.694-18.41809,18.1488-11.71924,36.72-22.73157,55.42419-33.49329,37.44068-21.47247,75.46607-41.87713,113.69861-61.86584q28.68255-14.978,57.54663-29.60172l28.90149-14.54941,14.48511-7.20791c4.82556-2.373,9.668-4.838,14.58032-7.05286,39.14856-18.11655,78.25635-36.34152,117.45032-54.34241q117.50262-54.19625,235.50659-107.31158c39.37854-17.60849,78.76562-35.19913,118.3269-52.40688q29.65632-12.93821,59.44825-25.5784l14.92053-6.26664q7.45844-3.13735,14.95264-6.198l7.48864-3.07273,7.5166-3.01609c5.02161-2.01168,10.02039-3.97647,15.15332-5.87369l-1.31237,2.17882-.00049-.00333-8.10791-54.73064,2.52026,1.632-.00354.001c-21.51953,6.17093-42.96423,12.784-64.33752,19.54242q-32.06324,10.15663-63.93738,20.90781-63.75824,21.46014-126.74915,45.1147-62.97839,23.64756-125.0841,49.53146-62.08046,25.90572-122.97278,54.531-60.83826,28.68342-120.08276,60.57727c-19.7677,10.5751-39.26087,21.64688-58.55079,33.05621q-28.9151,17.14612-56.97509,35.66666c-37.29969,24.78866-73.35865,51.64547-106.01673,82.27163-8.1687,7.6416-16.16949,15.47113-23.77508,23.67743q-5.674,6.18045-11.05316,12.62067-5.32746,6.47855-10.28351,13.24383a193.284,193.284,0,0,0-17.452,28.51722,118.47418,118.47418,0,0,0-6.30188,15.40557,71.60318,71.60318,0,0,0-2.10486,7.99622c-.26391,1.34576-.48114,2.6983-.61755,4.04443-.06781.67225-.11615,1.34418-.13055,2.00122-.007.32752-.00531.65314.011.95832.00824.15075.02063.30035.03736.4187l.01935.10974C962.69171,659.55768,961.16644,657.17926,959.791,658.70837Z" transform="translate(-295.815)"/></g><polygon class="cls-15" points="744.169 674.883 744.169 682.687 1602.148 393.959 1602.148 352.341 744.169 674.883"/><polyline class="cls-16" points="839.813 746.949 803.314 630.695 797.528 574.611 818.671 441.528 853.454 360.707"/><polyline class="cls-16" points="861.339 743.844 823.356 622.862 817.334 564.497 839.337 426.002 875.534 341.894"/><path class="cls-17" d="M1141.30777,586.93946s252.02343-159.388,741.81166-347.72655l6.50206,74.12031L1143.54,612.38572Z" transform="translate(-295.815)"/><polyline class="cls-16" points="882.667 745.396 842.844 618.555 836.531 557.363 859.599 412.161 897.55 323.979"/><polyline class="cls-16" points="906.153 742.008 864.711 610.009 858.141 546.328 882.147 395.22 921.641 303.453"/><polygon class="cls-18" points="474.35 768.84 507.693 755.1 666.334 761.911 682.896 761.97 682.896 818.225 591.96 850.306 578.623 846.935 570.136 798.585 525.231 801.017 507.693 801.017 505.268 844.236 468.288 844.236 474.35 768.84"/><polygon class="cls-18" points="550.684 502.619 550.684 613.396 566.498 601.153 558.591 723.528 612.227 693.582 617.229 502.619 550.684 502.619"/><polyline class="cls-16" points="921.641 735.244 883.462 583.076 875.534 520.454 903.388 377.703 945.35 293.711"/><polyline class="cls-16" points="1095.505 718.336 1048.373 569.667 1033.882 531.379 1021.23 445.216 1036.028 310.862 1077.132 198.106"/><polygon class="cls-19" points="1417.489 783.012 1608.844 789.853 1608.844 918.738 1247.639 976.012 331.641 897.816 1417.489 783.012"/><polygon class="cls-20" points="464.65 565.637 469.197 554.006 487.384 555.665 493.75 547.93 511.937 547.93 528.305 522.909 535.841 522.909 540.127 527.487 550.684 502.619 599.555 507.287 605.568 480.443 682.896 484.123 687.142 490.914 715.633 490.914 647.531 727.618 553.4 732.296 464.65 730.518 464.65 565.637"/><polygon class="cls-21" points="471.925 586.74 480.16 574.918 517.393 580.722 517.393 596.019 485.566 596.019 471.925 601.289 471.925 586.74"/><polygon class="cls-21" points="471.925 619.766 476.472 611.258 512.846 611.258 512.846 634.678 480.16 630.678 471.925 636.939 471.925 619.766"/><polygon class="cls-21" points="468.288 664.254 475.563 653.201 517.393 653.201 517.393 674.038 477.381 674.038 468.288 679.784 468.288 664.254"/><polygon class="cls-21" points="468.288 709.235 475.563 696.956 517.393 703.095 512.846 724.938 480.16 715.789 468.288 726.807 468.288 709.235"/><path class="cls-22" d="M881.40992,467.00115s42.73977,194.30952,0,239.24711L955.78371,576.0108S907.78127,466.34171,881.40992,467.00115Z" transform="translate(-295.815)"/><path class="cls-1" d="M887.77542,467.00115s42.73977,194.30952,0,239.24711L962.14921,576.0108S914.14676,466.34171,887.77542,467.00115Z" transform="translate(-295.815)"/><polygon class="cls-21" points="527.214 534.123 525.231 742.026 535.841 740.4 542.071 529.195 527.214 534.123"/><polygon class="cls-23" points="462.226 846.935 617.229 840.768 659.969 826.908 659.969 721.873 454.951 727.618 435.551 846.935 462.226 846.935"/><polygon class="cls-24" points="431.307 759.172 454.951 743.893 457.982 861.049 431.307 856.199 431.307 759.172"/><polygon class="cls-21" points="479.806 783.946 499.812 775.886 499.812 809.229 481.625 813.459 479.806 783.946"/><polygon class="cls-21" points="479.806 825.856 499.812 820.874 499.812 866.202 482.231 866.202 479.806 825.856"/><polygon class="cls-21" points="507.693 787.126 507.693 813.459 525.231 811.048 525.231 787.126 507.693 787.126"/><polygon class="cls-21" points="507.693 850.306 570.742 846.935 564.68 803.074 512.846 808.057 507.693 850.306"/><polygon class="cls-25" points="376.746 843.538 450.707 843.538 450.707 653.201 427.064 647.082 427.064 636.939 413.726 636.939 405.845 647.082 387.658 653.201 384.627 653.201 376.746 843.538"/><polygon class="cls-26" points="319.76 541.736 360.984 550.316 360.984 691.013 385.84 708.593 379.777 856.199 312.485 852.878 319.76 541.736"/><path class="cls-27" d="M731.36605,801.0173s-223.70178,31.67123-86.3889,136.58425S785.62434,1085,785.62434,1085l822.1682-39.01724S485.83971,874.32131,731.36605,801.0173Z" transform="translate(-295.815)"/><polygon class="cls-28" points="291.873 487.923 334.916 492.166 339.765 861.049 256.105 866.202 248.224 484.657 291.873 487.923"/><polygon class="cls-29" points="393.114 754.667 404.633 743.893 461.013 743.893 457.691 849.807 403.42 856.199 393.114 759.172 393.114 754.667"/><polyline class="cls-16" points="1518.466 32.49 1453.833 148.018 1463.177 230.621 1475.454 368.705 1558.66 666.313"/><polyline class="cls-16" points="1478.725 44.891 1401.7 163.993 1386.791 264.436 1396.193 390.25 1468.606 676.524"/><polyline class="cls-16" points="1021.23 225.916 975.92 341.894 967.607 480.806 975.798 565.853 1021.23 734.613"/><polyline class="cls-16" points="1058.368 727.44 999.417 544.804 993.482 468.434 1005.657 325.544 1045.125 213.689"/><polyline class="cls-16" points="994.418 735.244 945.35 561.098 940.377 493.935 951.664 349.402 993.482 252.731"/><polyline class="cls-30" points="967.607 735.244 928.234 583.734 921.641 503.043 927.917 368.705 981.542 269.638"/><polyline class="cls-16" points="945.35 735.244 905.174 581.513 897.55 514.862 910.442 373.965 967.607 278.678"/><polyline class="cls-16" points="1135.809 718.336 1064.197 506.961 1058.368 432.186 1064.197 296.594 1107.848 183.87"/><polyline class="cls-16" points="1170.592 702.793 1102.39 497.568 1095.505 408.181 1105.457 278.678 1141.605 168.906"/><polyline class="cls-16" points="1222.016 708.542 1135.809 480.265 1135.809 391.447 1148.085 252.731 1170.592 156.556"/><polyline class="cls-16" points="1244.489 126.837 1222.016 225.916 1216.287 341.894 1233.374 453.672 1216.287 470.565 1278.992 701.144"/><polyline class="cls-16" points="1396.34 689.724 1330.392 432.549 1336.322 421.8 1319.954 303.453 1346.154 182.5 1365.843 82.381"/><polyline class="cls-16" points="1330.976 694.394 1266.756 450.45 1278.992 441.314 1266.756 323.979 1278.992 206.623 1306.187 103.636"/><polyline class="cls-16" points="1178.912 534.688 1167.864 490.736 1180.822 480.265 1167.864 376.714 1184.426 244.422 1200.96 144.059"/><polyline class="cls-31" points="1529.998 36.171 1465.366 151.699 1474.71 234.301 1486.986 372.385 1570.193 669.994"/><polyline class="cls-32" points="1490.257 48.571 1413.232 167.674 1398.324 268.116 1407.726 393.931 1480.138 680.204"/><polyline class="cls-33" points="1107.038 722.017 1059.906 573.348 1045.415 535.059 1032.763 448.896 1047.56 314.543 1088.665 201.787"/><polyline class="cls-34" points="1032.763 229.596 987.452 345.575 979.139 484.487 987.33 569.534 1032.763 738.294"/><polyline class="cls-35" points="1069.9 731.121 1010.949 548.484 1005.015 472.115 1017.19 329.224 1056.657 217.37"/><polyline class="cls-36" points="1005.951 738.924 956.882 564.779 951.91 497.615 963.197 353.083 1005.015 256.411"/><polyline class="cls-37" points="993.075 273.319 939.45 372.385 933.174 506.724 939.767 587.414 979.139 738.924"/><polyline class="cls-38" points="1147.342 722.017 1075.73 510.642 1069.9 435.867 1075.73 300.274 1119.381 187.55"/><polyline class="cls-39" points="1182.125 706.474 1113.923 501.249 1107.038 411.862 1116.99 282.359 1153.138 172.587"/><polyline class="cls-40" points="1233.549 712.223 1147.342 483.945 1147.342 395.128 1159.618 256.411 1182.125 160.237"/><polyline class="cls-41" points="1256.022 130.518 1233.549 229.596 1227.82 345.575 1244.907 457.353 1252.283 492.805 1314.988 723.384"/><polyline class="cls-42" points="1377.376 86.061 1357.687 186.18 1331.486 307.134 1347.855 425.481 1341.925 436.23 1407.872 693.404"/><polyline class="cls-43" points="1342.508 698.075 1278.289 454.13 1290.525 444.995 1278.289 327.66 1290.525 210.304 1317.72 107.316"/><polyline class="cls-44" points="1190.445 538.368 1179.396 494.416 1192.355 483.945 1179.396 380.395 1195.959 248.103 1212.493 147.74"/><g class="cls-45"><path class="cls-46" d="M946.84979,639.46564a4.55362,4.55362,0,0,1-2.11139-3.28815,4.3715,4.3715,0,0,1,.31946-2.25647l.21808-.5495.43964-1.08978.8938-2.1485c.6043-1.42194,1.21441-2.83905,1.84539-4.24011q1.87482-4.21748,3.86206-8.36c2.61615-5.54419,5.37836-11.00305,8.21521-16.41821,5.68427-10.8244,11.74976-21.42462,18.04383-31.87634,12.58026-20.91089,26.30475-41.08789,40.77716-60.68708a993.86965,993.86965,0,0,1,95.56848-110.33368c4.3396-4.26571,8.60058-8.61288,13.00488-12.81155l13.21-12.59943,13.4458-12.346c2.224-2.07657,4.52137-4.07135,6.79932-6.08765l6.84106-6.04111c2.29017-2.00232,4.53894-4.05273,6.863-6.01556l6.95728-5.90625c4.65161-3.92581,9.22656-7.918,14.02063-11.72064,4.70581-3.89814,9.597-7.54786,14.42529-11.28193,4.92944-3.59182,9.80115-7.26867,14.82507-10.722,19.93494-14.05652,40.66565-26.88992,61.7262-39.096,21.07288-12.19339,42.577-23.597,64.2865-34.56521,21.71423-10.96326,43.69311-21.37835,65.82959-31.43071q33.19281-15.10663,66.84216-29.15641,67.27972-28.11751,135.81763-53.02127Q1688.2895,90.40851,1757.56348,67.692q34.62909-11.36535,69.44482-22.1593c23.22266-7.18348,46.458-14.214,69.88171-20.88854l.00074-.00021,5.0719-1.42149V133.15317l-3.135.69462c-44.37732,9.83284-88.52661,21.5813-132.33326,34.15331q-65.73651,18.90822-130.52026,41.00693c-21.57226,7.39994-43.09143,14.96479-64.47778,22.89363-21.41956,7.8405-42.69373,16.07185-63.91284,24.4431q-63.553,25.37479-125.65772,54.215c-5.17956,2.3881-10.30566,4.8891-15.4613,7.32819-5.14246,2.46649-10.31177,4.87888-15.43262,7.39l-15.342,7.5766-7.67139,3.78846c-2.55627,1.26464-5.07336,2.60516-7.61206,3.904-10.13,5.24286-20.30481,10.40274-30.29443,15.91162-5.01148,2.72293-10.04529,5.4057-15.03858,8.1618l-14.89294,8.42508-7.44678,4.21268-7.36792,4.3486-14.7312,8.70645-14.57324,8.96851-7.28223,4.492-7.20337,4.61707-14.38879,9.2633-14.2168,9.52582c-4.76477,3.13788-9.42065,6.43451-14.1018,9.6947-4.66748,3.27945-9.39173,6.47974-13.98072,9.86951l-13.83508,10.074-13.65039,10.32315c-2.2876,1.70443-4.53027,3.467-6.76953,5.23385l-6.72949,5.286c-4.5127,3.491-8.92163,7.11158-13.34021,10.72022q-26.514,21.64559-51.53467,45.0422l-6.23035,5.86658-6.13513,5.96588c-2.03455,1.99945-4.103,3.9646-6.10956,5.99219l-6.02386,6.07849-3.00928,3.04187-2.95984,3.09-5.91974,6.18005c-3.8612,4.19977-7.80121,8.32819-11.575,12.60773Q979.59964,594.95374,968.863,608.296c-1.78235,2.22711-3.55237,4.465-5.284,6.73187-1.68164,2.30512-3.311,4.65107-4.77722,7.11072a74.44538,74.44538,0,0,0-4.01654,7.62091c-.57917,1.32361-1.13684,2.661-1.62073,4.033l-.67053,2.08344c-.11035.3421-.18866.70385-.27942,1.05609-.0484.18377-.07825.33856-.14154.54547a4.41294,4.41294,0,0,1-2.29193,1.91925A4.79739,4.79739,0,0,1,946.84979,639.46564Zm3.48859-7.19928a3.53273,3.53273,0,0,0-2.64514-.38306,3.216,3.216,0,0,0-2.0058,1.46722c.131-.092.29584-.23608.44183-.35119.29828-.24555.60883-.48157.88764-.73718l1.71338-1.47022c1.11639-.9895,2.19592-1.98865,3.2395-3.01129,2.1123-2.02173,4.08557-4.12195,6.02533-6.23987,3.87146-4.23822,7.30157-8.78845,10.861-13.25024q10.69024-13.36845,22.167-26.08209c3.76819-4.28528,7.70264-8.41944,11.55847-12.62513l5.91169-6.18908,2.95593-3.09455,3.00537-3.04645,6.01611-6.08776c2.004-2.0307,4.07-3.999,6.102-6.00159l6.12769-5.97546,6.22314-5.87616q24.92614-23.46927,51.48181-45.12357c4.41455-3.61569,8.81958-7.24335,13.32837-10.74149l6.72376-5.29675c2.23742-1.77051,4.47827-3.53665,6.76391-5.24472l13.63965-10.34509,13.82337-10.09815c4.57629-3.4103,9.28808-6.63128,13.94336-9.93161,4.66882-3.28106,9.31286-6.59875,14.06591-9.75781l14.18238-9.58987,14.35595-9.32825,7.1875-4.64987,7.26685-4.52493,14.54333-9.0351,14.70276-8.77368,7.35425-4.38254,7.43347-4.24673c39.58033-22.77018,80.26538-43.5785,121.49329-63.19449,82.53247-39.11035,167.312-73.415,253.45068-103.81577q64.59265-22.8498,130.20349-42.73164,32.78687-9.96708,65.82032-19.13445,16.5108-4.603,33.09655-8.95857c11.07019-2.89662,22.116-5.72554,33.313-8.37l-3.13476,3.90519V28.49774l5.07153,3.85368-.00061.0002c-23.30859,6.50869-46.58887,13.41753-69.79041,20.46081q-34.80944,10.58722-69.4436,21.7552-69.26953,22.31306-137.724,47.05248-68.412,24.801-135.704,52.51226c-44.77844,18.61726-89.10559,38.35953-132.40173,60.14444-21.637,10.90486-43.05933,22.23857-64.02747,34.34413-20.9552,12.11722-41.56372,24.84894-61.33069,38.75879-4.98474,3.41858-9.80725,7.05246-14.69238,10.60352-4.77661,3.68786-9.62158,7.29425-14.269,11.13754-4.72241,3.7366-9.30042,7.72262-13.929,11.62134l-6.92968,5.87091c-2.31507,1.95108-4.55433,3.98919-6.83521,5.97952l-6.81348,6.00473c-2.26879,2.00412-4.557,3.98682-6.77172,6.05084l-13.39063,12.27094L1131.826,389.44116c-4.38611,4.17282-8.62817,8.493-12.94959,12.73218a935.74691,935.74691,0,0,0-94.667,109.941c-14.17486,19.60028-27.589,39.75055-39.83636,60.57355q-9.15738,15.63033-17.33881,31.77148c-2.7091,5.38214-5.34125,10.80078-7.81683,16.27649-1.25,2.73291-2.442,5.48883-3.59955,8.24835-.58557,1.37934-1.14532,2.76239-1.69818,4.146l-.80982,2.07269-.38971,1.02979-.19073.51257c-.2005.37884.29095-.17761.11865-1.72412A3.64787,3.64787,0,0,0,950.33838,632.26636Z" transform="translate(-295.815)"/></g><g class="cls-45"><path class="cls-46" d="M931.16882,716.56128a2.56465,2.56465,0,0,0-.16626-1.33258,2.10513,2.10513,0,0,0-.77575-.94635c-.54462-.42365-1.13227-.0268-.16065-.49927l3.69275-1.7644,7.3905-3.51087,14.80793-6.92944c9.90777-4.52655,19.777-9.148,29.72046-13.58673,19.83349-9.00769,39.76739-17.7735,59.68731-26.57288l29.9624-13.00061,14.98438-6.49273,15.02332-6.39838,30.04675-12.79675c10.01025-4.27845,20.07641-8.42054,30.11194-12.63746l30.12805-12.59777c10.03869-4.20935,20.12939-8.2898,30.19153-12.441l30.20666-12.40357,15.10718-6.1922,15.14111-6.10693,60.56641-24.42328,60.71033-24.057c10.12524-3.9916,20.22119-8.05893,30.3706-11.9884l30.42529-11.84735,60.85962-23.67047,60.98548-23.34058c20.32763-7.78241,40.64538-15.59119,61.035-23.2084l61.11524-22.99445,30.56579-11.48169,30.64234-11.33612,61.28479-22.67166,15.32116-5.66782,7.66065-2.83386,3.83215-1.412,3.9021-1.22808,31.21643-9.82389-2.79919,3.81543V214.4799l5.45959,3.72409-.00183.00069q-32.037,12.28233-63.98621,24.97342-31.9248,12.68776-63.75891,25.61221-63.64929,25.89044-126.91516,52.72538-63.23676,26.89412-126.06372,54.74688-62.77221,27.968-125.01953,57.10022-62.2359,29.14819-123.61914,60.07544c-40.89514,20.65351-81.51868,41.86823-121.48279,64.2815-39.93848,22.44006-79.37891,45.84338-117.33362,71.5235-18.94915,12.86846-37.51989,26.32983-55.18548,40.92352a242.50549,242.50549,0,0,0-24.91437,23.60589A160.67555,160.67555,0,0,0,940.313,707.02417c-.85065,1.14044-1.65045,2.31628-2.44507,3.493-.79077,1.17957-1.59772,2.34338-2.31726,3.56555l-1.10388,1.8114-.544.90863a1.90863,1.90863,0,0,0-.2467.49073c-.05408.12542-.15027-.1203-.60962-.39966A3.01787,3.01787,0,0,0,931.16882,716.56128Zm-6.07049,5.21045a27.84148,27.84148,0,0,1,.6488-3.80676,11.564,11.564,0,0,1,1.91681-3.87391,10.40628,10.40628,0,0,1,1.03619-1.23156l.778-.78418,1.54-1.57428c1.01434-1.05817,2.05761-2.08087,3.09979-3.10156,1.04016-1.0221,2.048-2.06843,3.11768-3.05347,4.15167-4.0586,8.425-7.93616,12.69128-11.79352,8.57172-7.67194,17.29651-15.08923,26.12878-22.38593,17.64484-14.61889,36.19727-28.10876,55.12952-41.00592,37.92114-25.73767,77.33252-49.20123,117.24316-71.702,79.9054-44.9032,161.92505-85.92462,244.59791-125.46976q62.0213-29.64193,124.63806-58.02069,62.55377-28.50678,125.55468-56.02631,62.96631-27.59267,126.28907-54.37524,31.65-13.41751,63.39563-26.61475,31.73986-13.22873,63.59741-26.19551l.00171-.00067,5.45984-2.14627V335.11658l-2.79944.8808-31.05884,9.77246-3.88245,1.22143-3.82495,1.40955-7.64685,2.82916-15.2937,5.6583-61.17517,22.63266-30.58765,11.316-30.55029,11.47586-61.09241,22.98584c-20.38232,7.61447-40.6914,15.42-61.01062,23.19909l-60.96,23.33084-60.83154,23.65952-30.411,11.8418c-10.14478,3.9277-20.23486,7.9927-30.355,11.98226l-60.67835,24.04426-60.53,24.40869-15.1322,6.10321-15.0968,6.18805-30.18591,12.395c-10.05493,4.14825-20.13965,8.22625-30.17,12.43219l-30.104,12.58776c-10.0271,4.21338-20.08643,8.3526-30.087,12.6269L1108.48,642.883l-15.00915,6.39233-14.96766,6.48547-29.92859,12.986c-19.89233,8.78729-39.80078,17.5418-59.59613,26.53222-9.92877,4.43213-19.76867,9.04016-29.65478,13.5567l-14.75787,6.90595-7.35187,3.49249-3.67066,1.75379a12.08519,12.08519,0,0,1-3.83374,1.2777,9.47064,9.47064,0,0,1-2.61029-.05383C926.30817,722.08887,925.651,721.91052,925.09833,721.77173Z" transform="translate(-295.815)"/></g><g class="cls-45"><path class="cls-46" d="M849.63544,766.71918c-3.77912-7.01374-.85175-3.27106-1.61591-4.80286a4.17112,4.17112,0,0,1,.30109-.652,5.92569,5.92569,0,0,1,.30237-.52313l.26965-.3642a8.99356,8.99356,0,0,1,1.05347-1.19946,11.07311,11.07311,0,0,1,1.01623-.91638c.33746-.27844.666-.57654.996-.80737,1.31879-1.01008,2.62354-1.87085,3.92994-2.71125,1.30993-.8164,2.60955-1.62359,3.922-2.37109,1.305-.772,2.61158-1.51129,3.92572-2.23309,5.248-2.89106,10.46283-5.70136,15.71772-8.431,10.4989-5.46076,20.86706-11.09027,31.372-16.49231,21.00476-10.80286,42.36639-20.895,63.83209-30.74475q32.20377-14.76874,64.7702-28.72815c10.8291-4.71167,21.71533-9.28974,32.57788-13.9234l32.68262-13.67542q65.44409-27.16169,131.33667-53.22913l131.792-52.092q65.93536-25.94787,131.97046-51.64379l66.032-25.7053,66.08362-25.57458,66.10413-25.52509,66.15478-25.39712,66.18665-25.32135,66.23425-25.22775.00085-.00034,5.37867-1.98691V427.58521l-2.89685.81414q-33.067,9.29311-66.11622,18.76474l-66.02087,19.13971-65.96081,19.35343-65.89783,19.57135-65.81555,19.84832-65.75513,20.04963-65.6626,20.35052q-16.4231,5.06471-32.80542,10.25879l-32.78711,10.31732-32.78174,10.33545-32.7301,10.4964c-21.81018,7.02838-43.6582,13.94183-65.42053,21.11707l-65.33887,21.3692-65.20056,21.78619-16.29614,5.45892-16.25965,5.56549-32.51293,11.15033-32.513,11.15033-32.42224,11.394-32.41247,11.421-16.20642,5.71057c-1.35.48205-2.70221.93792-4.05042,1.44146l-4.04016,1.57789-8.08569,3.15167c-10.80145,4.18817-21.54108,8.33911-32.45728,12.93786C872.57422,756.69971,861.48291,761.46869,849.63544,766.71918Zm4.2243-6.79376c9.49127-3.1059,19.73871-6.6933,30.13562-10.467,10.42249-3.75763,21.02167-7.96308,31.5589-12.13129l7.9184-3.1156,3.96185-1.55573c1.33435-.50006,2.69684-.96148,4.04388-1.44409l16.20838-5.73138,32.417-11.46283L1012.53,702.58221l32.50647-11.188,32.50659-11.188,16.25659-5.58435,16.29261-5.47766,65.15417-21.96052,65.27808-21.58837c21.74255-7.24854,43.57019-14.235,65.36059-21.33655l32.69434-10.62634,32.72961-10.51624,32.73572-10.49835q16.36469-5.25925,32.75439-10.43988l65.56031-20.71845,65.61316-20.55224,65.67627-20.35172,65.71-20.247L1765.13,460.25644l65.83765-19.84024q32.91852-9.93453,65.8916-19.70654l-2.8966,3.84472V332.18192l5.37841,3.75488-.00085.0003c-88.92493,31.82206-177.547,64.57755-266.0415,97.63092l-66.32,24.93424-66.27112,25.066q-66.21789,25.2063-132.32056,50.716-66.11736,25.4718-132.05,51.41925c-43.97388,17.24738-87.87012,34.69574-131.5282,52.73l-32.69995,13.62921c-10.86829,4.61835-21.7605,9.181-32.59546,13.87732q-32.55369,13.97461-64.80689,28.6366c-21.47833,9.81946-42.85309,19.88135-63.87231,30.65472-10.49933,5.39325-20.99121,10.862-30.86682,17.35041a149.34461,149.34461,0,0,0-14.288,10.38861c-1.12518.94159-2.24963,1.87756-3.30279,2.88305-1.09217.96717-2.10224,1.999-3.09766,3.02723a32.78854,32.78854,0,0,0-2.67114,3.18719,6.633,6.633,0,0,0-.52655.79877,5.23921,5.23921,0,0,0-.42212.76483,1.85636,1.85636,0,0,0-.219.60913l-.01849.10846c-.00079.03021.05249-.01264.06983-.02142.03942-.05243.01239.03888.09344-.14014C854.78375,762.83582,857.6355,766.7525,853.85974,759.92542Z" transform="translate(-295.815)"/></g><path class="cls-47" d="M876.30024,810.143,1897.96261,677.48436V424.55448S926.76954,706.097,851.7476,763.32228Z" transform="translate(-295.815)"/><g class="cls-45"><path class="cls-46" d="M1068.20068,729.81232c1.57483,2.12909,3.08789,4.10138,4.426,6.058a58.04084,58.04084,0,0,1,3.63708,6.08563l-4.38073-2.05346c69.61145-10.8144,138.40844-25.429,207.13818-40.35682L1382.152,677.322l103.084-22.44165,103.04981-22.60138,103.00708-22.80072q102.98492-22.90393,205.83142-46.45386l-3.12476,4.45319-8.1842-59.8262,4.99817,3.3215q-102.716,27.80089-205.26392,55.46875-102.6394,27.52772-205.22974,54.89691l-205.44494,54.50086L1171.87463,702.937l-51.72473,13.46527Zm-7.32727-3.21106,51.20606-14.22724,51.43042-14.17187L1266.82,670.02533l207.17566-56.04791q103.60766-28.01624,207.39086-55.65192,103.68659-27.75165,207.35669-55.08011l4.38489-1.1629.61341,4.48456,8.1842,59.8262.5105,3.73138-3.63538.722q-103.48809,20.55615-206.78918,41.98523l-103.30323,21.41882L1485.44788,655.8689l-103.2262,21.77789-103.17957,21.99585c-68.81042,14.55182-137.55371,29.41693-205.48242,48.08215l-2.88464.79267-1.49622-2.84626c-1.6073-3.05725-3.16394-6.27533-4.54724-9.52118C1063.24182,732.90442,1062.02673,729.67438,1060.87341,726.60126Z" transform="translate(-295.815)"/></g><g class="cls-45"><path class="cls-46" d="M1061.51086,715.9892c34.06983-8.54358,68.68958-17.63562,103.443-26.93671,34.77673-9.32507,69.72949-18.93268,104.61828-28.45581l209.352-57.31128,209.18372-57.645,104.46375-28.94824,104.34313-29.05035-2.95214,3.86026V424.55457l5.19653,3.81674-52.5752,15.97537L1794.0448,460.4371l-105.07312,32.19782-209.98975,64.89389-209.8573,65.31689L1164.2417,655.6499l-52.43482,16.423c-8.72253,2.79028-17.396,5.73681-25.998,8.91162-8.59741,3.18933-17.14441,6.5393-25.53125,10.40027l2.80334-3.81671c.00391,4.741-.1167,9.35412-.41394,14.02716C1062.37622,706.26514,1061.93066,711.03888,1061.51086,715.9892Zm-4.85986,6.35461c-.41968-5.58252-.86523-11.34155-1.15613-17.20447-.29712-5.8598-.41784-11.77935-.41394-17.57122l.0022-3.31818,2.80139-.49878c9.08985-1.61847,18.01953-3.748,26.89881-6.03815,8.87475-2.30456,17.67785-4.83746,26.43212-7.52667l52.4253-16.45361,104.8374-32.94922,209.5835-66.18982,209.45092-66.61286,104.64734-33.55557L1844.481,437.639l52.28491-16.90134,5.19678-1.67987v75.524l-2.95252.78073-105.3772,27.86575-105.25659,27.96784-210.25708,56.18719-210.08874,56.52081c-35.01807,9.44892-69.97205,18.8133-105.102,28.46027C1127.77515,702.0354,1092.488,711.91534,1056.651,722.34381Z" transform="translate(-295.815)"/></g><g class="cls-45"><path class="cls-46" d="M1056.1344,529.55536c8.0293-5.63941,15.33276-11.99463,22.76465-18.22232,7.4303-6.22275,14.80078-12.50913,22.273-18.67682q22.41339-18.50583,45.81469-35.767c31.11548-23.1026,63.25074-44.821,96.11292-65.381q49.32807-30.78644,100.93335-57.74411,51.52038-26.99125,104.76843-50.50632a2040.91581,2040.91581,0,0,1,217.73267-81.70419c9.23742-2.94858,18.53747-5.69165,27.80847-8.53232l13.95435-4.09929,6.97827-2.04686,6.9967-1.98233,13.99451-3.96176,14.033-3.82317,7.01745-1.90875,7.03455-1.84346,14.06958-3.6869q56.35912-14.43444,113.34619-26.25362l.001-.00021,5.39965-1.12821v76.10951l-2.68981,1.17759q-108.865,47.66067-217.38184,96.19716-108.54273,48.44325-216.663,97.81866-108.08241,49.45286-215.448,100.42554-26.83412,12.756-53.54761,25.76068c-17.79675,8.69293-35.56592,17.44494-53.18738,26.48291q-13.22533,6.76025-26.3717,13.66852c-8.75842,4.61541-17.49829,9.267-26.13123,14.10638q-12.97028,7.21957-25.5896,15.01709c-8.34155,5.264-16.66418,10.68842-24.1289,16.93176l-.00013.00012-5.07714,3.69959,1.63781-5.93127,25.44947-92.16626L1036.78992,624.809l-3.43909-2.23163.00012-.00012c8.22046-5.87836,16.74878-10.95319,25.3197-15.99,8.58069-5.0033,17.23816-9.844,25.91346-14.64734q26.03118-14.39832,52.42639-28.08575,52.76862-27.41556,106.1167-53.67212c71.0935-35.079,142.8396-68.79224,214.684-102.27378q107.79639-50.16252,216.08655-99.24273,108.2448-49.18712,216.95959-97.33139l-2.68958,4.11966V147.82416l5.39942,4.40909-.001.00021q-56.82385,11.47808-113.08825,25.52843c-18.724,4.77551-37.4336,9.61871-56.04285,14.82856l-6.98645,1.9249-6.96826,1.98936L1696.545,200.489c-9.25817,2.76392-18.54687,5.43041-27.77282,8.30219a2034.19539,2034.19539,0,0,0-217.59986,79.86432,1765.68555,1765.68555,0,0,0-206.15539,105.976c-33.10523,19.98371-65.44287,41.27271-96.67566,64.09607q-23.40289,17.14353-45.94812,35.41947c-7.50183,6.101-14.93567,12.29113-22.106,18.77938-7.17383,6.47754-14.23791,13.101-20.34424,20.68744Z" transform="translate(-295.815)"/></g><polygon class="cls-48" points="617.475 787.039 622.477 840.59 628.842 840.59 647.939 840.59 647.939 783.084 617.475 787.039"/><polygon class="cls-48" points="658.851 781.631 658.851 834.521 671.582 834.521 671.582 778.625 658.851 781.631"/><path class="cls-22" d="M1113.14917,758.75119V818.047l395.15888,4.62426,3.79385,32.65887,55.11689,3.45564,4.28894-151.50189S1111.02762,763.529,1113.14917,758.75119Z" transform="translate(-295.815)"/><polygon class="cls-21" points="613.854 821.177 715.51 773.767 1620.586 646.563 1624.532 757.671 613.854 821.177"/><polygon class="cls-48" points="671.582 844.058 683.404 844.058 682.279 778.625 671.582 778.625 671.582 844.058"/><polygon class="cls-49" points="702.5 840.59 702.5 775.999 682.279 778.625 683.404 844.058 702.5 840.59"/><polygon class="cls-50" points="735.838 818.047 1141.411 822.671 1152.93 860.243 744.169 836.352 735.838 818.047"/><polygon class="cls-51" points="1198.242 837.688 1603.816 842.312 1615.334 879.884 1206.574 855.993 1198.242 837.688"/><polygon class="cls-48" points="748.423 770.036 753.879 769.328 759.009 768.662 759.009 850.128 748.423 850.128 748.423 770.036"/><polygon class="cls-52" points="789.183 764.744 789.183 844.058 812.371 844.058 812.371 761.733 789.183 764.744"/><polygon class="cls-48" points="868.297 754.471 868.297 852.729 882.553 859.665 882.553 752.62 868.297 754.471"/><polygon class="cls-48" points="981.542 855.33 981.542 731.121 1003.752 731.121 1005.951 859.665 985.31 859.665 981.542 855.33"/><polygon class="cls-53" points="823.92 760.233 825.491 845.023 835.109 845.023 836.531 782.017 848.75 780.861 846.434 845.023 868.297 846.757 867.04 837.508 862.693 836.93 864.825 754.922 823.92 760.233"/><polygon class="cls-48" points="1151.723 870.07 1178.912 870.07 1177.412 708.542 1151.723 712.223 1151.723 870.07"/><polygon class="cls-54" points="929.872 749.537 929.872 772.756 925.284 774.779 925.284 776.224 929.872 776.224 929.872 846.647 931.878 847.9 931.878 774.779 946.663 773.045 946.663 849.345 948.993 849.345 951.513 773.045 963.941 771.25 963.941 849.345 968.791 847.9 968.791 771.25 983.947 771.25 983.947 768.218 966.768 768.218 967.923 744.596 963.335 744.596 963.032 768.218 952.119 769.576 950.604 746.402 948.993 746.402 948.993 769.865 931.878 769.865 931.878 747.985 929.872 749.537"/><polygon class="cls-55" points="926.229 746.949 926.229 770.167 921.641 772.19 921.641 773.636 926.229 773.636 926.229 844.058 928.234 845.312 928.234 772.19 943.02 770.456 943.02 846.757 945.35 846.757 947.87 770.456 960.297 768.662 960.297 846.757 965.147 845.312 965.147 768.662 980.303 768.662 980.303 765.629 963.124 765.629 964.28 742.008 959.691 742.008 959.388 765.629 948.476 766.988 946.96 743.814 945.35 743.814 945.35 767.277 928.234 767.277 928.234 745.396 926.229 746.949"/><polygon class="cls-56" points="616.831 786.967 621.833 840.518 628.198 840.518 647.295 840.518 647.295 783.012 616.831 786.967"/><polygon class="cls-57" points="1053.98 735.609 1053.98 763.373 1048.494 765.792 1048.494 767.52 1053.98 767.52 1053.98 851.73 1056.378 853.229 1056.378 765.792 1074.058 763.719 1074.058 854.957 1076.844 854.957 1079.857 763.719 1094.718 761.573 1094.718 854.957 1100.517 853.229 1100.517 761.573 1118.641 761.573 1118.641 757.947 1098.098 757.947 1099.48 729.701 1093.993 729.701 1093.631 757.947 1080.582 759.572 1078.77 731.86 1076.844 731.86 1076.844 759.917 1056.378 759.917 1056.378 733.753 1053.98 735.609"/><polygon class="cls-58" points="670.938 843.986 682.76 843.986 681.635 778.553 670.938 778.553 670.938 843.986"/><polygon class="cls-59" points="1049.623 732.514 1049.623 760.278 1044.137 762.697 1044.137 764.425 1049.623 764.425 1049.623 848.635 1052.021 850.134 1052.021 762.697 1069.701 760.624 1069.701 851.862 1072.487 851.862 1075.5 760.624 1090.361 758.478 1090.361 851.862 1096.161 850.134 1096.161 758.478 1114.284 758.478 1114.284 754.852 1093.741 754.852 1095.123 726.606 1089.636 726.606 1089.274 754.852 1076.225 756.477 1074.413 728.765 1072.487 728.765 1072.487 756.822 1052.021 756.822 1052.021 730.657 1049.623 732.514"/><polygon class="cls-23" points="1327.228 743.814 1342.233 855.33 1297.22 855.33 1312.279 742.981 1319.954 742.008 1327.228 742.008 1327.228 743.814"/><polygon class="cls-60" points="1308.132 855.33 1310.399 839.484 1315.407 839.484 1317.832 855.33 1330.976 855.33 1319.954 742.008 1305.707 743.814 1293.582 855.33 1308.132 855.33"/><path class="cls-23" d="M1647.36872,738.2739,1657.599,736.761s13.413.86705,16.8231,21.67625c0,0,1.81871-23.92256,14.54971-23.88321s10.23026-1.04447,10.23026-1.04447,20.46053-.66777,20.68787,22.31779,0,85.84666,0,85.84666-.83358,19.18926-22.58236,19.13217-57.44621-2.42884-57.44621-2.42884-12.61116-1.39319-9.24-54.63676S1629.8636,748.02372,1647.36872,738.2739Z" transform="translate(-295.815)"/><path class="cls-61" d="M1653.96156,784.07242h14.24659s4.24366-44.89553-16.36842-45.77831S1630.6214,765.735,1630.6214,765.735V832.7868s.60624,42.19642,23.34016,19.07509v6.92384h17.27778V798.66911l-23.037-.1393v15.75993l5.75926,3.75722v22.54329s-12.35253,21.13188-11.82164-39.59527,8.79045-41.04036,8.79045-41.04036Z" transform="translate(-295.815)"/><path class="cls-62" d="M1671.23934,793.22554s-3.63743-60.83206,20.9152-58.61215,23.9464,36.10286,22.73392,60.77977,1.21248,62.24907-15.15594,64.85022-20.61209-4.33525-23.037-10.11558S1671.23934,793.22554,1671.23934,793.22554Z" transform="translate(-295.815)"/><path class="cls-23" d="M1697.30757,763.32228s-3.63743-16.8635-5.153,0,0,66.57435,0,66.57435,1.5156,18.49707,5.153,0" transform="translate(-295.815)"/><polyline class="cls-23" points="1312.279 777.296 1312.279 818.047 1317.226 818.047"/><polygon class="cls-63" points="1287.969 858.786 1419.019 862.075 1431.041 862.075 1431.041 865.543 1417.098 867.469 1287.969 863.127 1287.969 860.806 1287.969 858.786"/><polygon class="cls-64" points="782.362 844.058 782.362 765.629 759.009 768.662 759.009 850.128 782.362 844.058"/><polygon class="cls-65" points="718.997 773.857 716.141 840.59 744.169 840.59 744.169 770.589 718.997 773.857"/><polygon class="cls-66" points="915.29 850.128 921.641 747.545 882.553 752.62 882.553 859.665 915.29 850.128"/><polygon class="cls-67" points="982.214 855.33 982.214 731.121 1004.424 731.121 1006.623 859.665 985.982 859.665 982.214 855.33"/><polygon class="cls-68" points="1117.233 724.936 1116.252 752.62 1114.284 754.852 1118.641 763.322 1117.233 851.862 1152.93 855.33 1151.723 717.669 1117.233 724.936"/><polygon class="cls-69" points="747.779 769.964 753.235 769.256 758.365 768.59 758.365 850.056 747.779 850.056 747.779 769.964"/><polygon class="cls-70" points="867.652 754.399 867.652 852.657 881.909 859.593 881.909 752.548 867.652 754.399"/><polygon class="cls-71" points="1151.078 869.998 1178.268 869.998 1176.768 708.47 1151.078 712.151 1151.078 869.998"/><polyline class="cls-72" points="1336.012 699.809 1335.083 733.586 1342.369 732.978 1338.726 694.394 1351.38 693.404 1349.486 733.586 1358.147 733.586 1361.854 693.404 1386.791 689.724 1382.221 726.96 1393.429 728.719 1393.429 700.644 1398.324 698.896 1398.579 729.701 1413.708 729.701 1419.019 689.724 1449.777 685.919 1445.665 730.406 1449.777 730.406 1453.833 682.687 1458.5 686.497 1453.833 731.121 1486.122 726.606 1486.122 682.687 1491.12 680.204 1493.918 727.44 1499.452 727.44 1497.959 682.687 1527.888 680.204 1527.888 723.544 1534.091 720.598 1534.091 686.321 1538.8 682.687 1541.831 724.704"/><path class="cls-73" d="M1854.47473,885.67683,918.29191,840.59025s43.64912,6.9364,936.18282,53.75708Z" transform="translate(-295.815)"/><polygon class="cls-74" points="1222.016 862.752 1222.016 698.075 1177.412 708.542 1178.912 870.07 1222.016 862.752"/><path class="cls-75" d="M1854.4748,907.35312v-9.53749c-326.52642-20.84493-695.67243-29.76412-936.18293-53.75729C927.45759,844.35537,1421.37073,876.67529,1854.4748,907.35312Z" transform="translate(-295.815)"/><path class="cls-76" d="M1854.39791,920.11732v-9.53755s-394.37111-24.90294-941.10747-60.452C913.29044,850.1278,1365.71535,882.49765,1854.39791,920.11732Z" transform="translate(-295.815)"/><path class="cls-77" d="M1853.93627,876.103l-129.398-7.64937,1.798-125.50668-36.9306-12.15259,146.55474-16.593,17.97586,10.48351Zm-117.34758-18.30274,105.45017,6.23508V731.0436l-8.77009-5.11435-94.94407,10.75122Z" transform="translate(-295.815)"/><path class="cls-78" d="M1835.92555,864.71663,1739.839,860.771l-4.50607-122.23865,95.92681-6.32186Zm-84.58224-14.82794,72.26074,2.96706-3.82154-108.51851-72.15521,4.75616Z" transform="translate(-295.815)"/><polygon class="cls-79" points="1485.172 850.197 1483.859 747.016 1495.757 746.88 1497.07 850.06 1485.172 850.197"/><path class="cls-63" d="M1602.31373,712.31705l-3.22008,19.12576,2.88221-.24043.56368-3.73857,3.53209-.29464v-.0526l.56541,3.697,3.108-.25926-3.2218-18.58839Zm.593,12.557,1.35663-9.43409.05689-.00474,1.38422,9.20544Z" transform="translate(-295.815)"/><path class="cls-63" d="M1618.41411,720.24066v-.05424c1.80073-.67761,2.17846-3.10756,2.03388-5.04605.50658-5.17115-5.55692-3.88442-9.2101-3.56776v18.85715l3.108-.25927v-8.08163c4.85963-1.53,2.23578,5.7911,3.30626,7.80583l3.16319-.26387C1619.66861,727.12526,1621.93628,721.01293,1618.41411,720.24066Zm-2.93737-.94-1.13082.09433v-5.38776c1.50467-.17318,3.13-.45525,2.99425,1.68948C1617.44619,717.156,1617.38521,719.39189,1615.47674,719.30065Z" transform="translate(-295.815)"/><polygon class="cls-63" points="1325.93 713.39 1329.179 713.119 1329.179 729.282 1332.287 729.023 1332.287 712.86 1335.536 712.589 1335.536 709.895 1325.93 710.696 1325.93 713.39"/><path class="cls-63" d="M1637.1364,713.88282v9.91426c-.58911,6.35876,9.85632,5.48783,9.26721-.77305v-6.16847l-4.49225.37473v2.69388l1.55315-.12956v3.69011c.17561,2.47686-3.39547,2.77784-3.22008.26841v-10.317c-.17259-2.5071,3.39289-2.807,3.22008-.26861v1.80468l2.9391-.24517C1648.341,707.5565,1637.03,706.3919,1637.1364,713.88282Z" transform="translate(-295.815)"/><path class="cls-63" d="M1650.80622,708.27189l-3.22008,19.12576,2.88221-.24043.56368-3.73857,3.53209-.29464v-.0526l.56541,3.697,3.108-.25927-3.2218-18.58839Zm.593,12.557,1.35663-9.43409.05689-.00475,1.38422,9.20545Z" transform="translate(-295.815)"/><polygon class="cls-63" points="1367.023 707.268 1363.915 707.527 1363.915 726.385 1372.138 725.699 1372.138 723.005 1367.023 723.431 1367.023 707.268"/><polygon class="cls-63" points="1376.739 706.458 1373.631 706.717 1373.631 725.574 1381.853 724.888 1381.853 722.194 1376.739 722.621 1376.739 706.458"/><polygon class="cls-63" points="1383.346 724.764 1391.822 724.057 1391.822 721.363 1386.454 721.811 1386.454 716.018 1390.721 715.663 1390.721 712.969 1386.454 713.325 1386.454 708.341 1391.822 707.893 1391.822 705.2 1383.346 705.907 1383.346 724.764"/><path class="cls-63" d="M1696.58888,713.71945v-.05424c1.80073-.67761,2.17846-3.10755,2.03388-5.04605.50658-5.17114-5.55692-3.88442-9.2101-3.56776v18.85715l3.108-.25927v-8.08163c4.85963-1.53,2.23578,5.7911,3.30626,7.80583l3.16319-.26387C1697.84338,720.60405,1700.11105,714.49172,1696.58888,713.71945Zm-2.93738-.94-1.13081.09433V707.486c1.50467-.17318,3.13-.45525,2.99425,1.68948C1695.621,710.6348,1695.56,712.87068,1693.6515,712.77944Z" transform="translate(-295.815)"/><polygon class="cls-63" points="1409.105 710.681 1409.05 710.685 1406.93 703.939 1403.625 704.215 1407.381 714.731 1407.381 722.759 1410.489 722.499 1410.489 714.472 1414.247 703.329 1411.225 703.581 1409.105 710.681"/><path class="cls-63" d="M1720.48066,702.19062c-7.23332.10086-4.052,11.11147-4.71785,15.04758-.55248,6.35385,9.98862,5.47309,9.43657-.78677C1724.54433,712.63722,1727.70687,701.076,1720.48066,702.19062Zm1.61026,14.70871c.17259,2.5067-3.39246,2.80635-3.22073.26867.60183-1.47686-1.562-12.43141,1.61155-12.284C1723.65915,704.2329,1721.48284,715.4932,1722.09092,716.89933Z" transform="translate(-295.815)"/><polygon class="cls-63" points="1431.471 720.749 1434.58 720.49 1434.58 712.274 1438.591 711.939 1438.591 709.245 1434.58 709.58 1434.58 704.327 1439.694 703.9 1439.694 701.206 1431.471 701.892 1431.471 720.749"/><path class="cls-63" d="M1746.012,700.06084c-7.23332.10085-4.052,11.11147-4.71785,15.04758-.55248,6.35385,9.98861,5.47309,9.43656-.78678C1750.07567,710.50743,1753.23822,698.94626,1746.012,700.06084Zm1.61025,14.70871c.1726,2.5067-3.39246,2.80635-3.22072.26867.60182-1.47686-1.562-12.43141,1.61155-12.284C1749.1905,702.10312,1747.01419,713.36342,1747.62226,714.76955Z" transform="translate(-295.815)"/><polygon class="cls-63" points="1463.981 710.467 1463.924 710.472 1460.9 699.437 1457.001 699.762 1457.001 718.62 1459.77 718.389 1459.77 704.622 1459.826 704.617 1463.557 718.073 1466.749 717.806 1466.749 698.949 1463.981 699.18 1463.981 710.467"/><polygon class="cls-63" points="1477.847 698.023 1468.242 698.825 1468.242 701.519 1471.491 701.248 1471.491 717.411 1474.599 717.152 1474.599 700.988 1477.847 700.717 1477.847 698.023"/><path class="cls-63" d="M1776.25991,697.80675l-3.22007,19.12576,2.8822-.24043.56369-3.73857,3.53209-.29464v-.0526l.56541,3.697,3.108-.25926-3.22181-18.58839Zm.593,12.557,1.35664-9.43409.05689-.00474,1.38422,9.20545Z" transform="translate(-295.815)"/><path class="cls-63" d="M1792.36029,705.73036v-.05424c1.80074-.67761,2.17847-3.10756,2.03388-5.046.50659-5.17115-5.55691-3.88442-9.2101-3.56776v18.85715l3.108-.25927v-8.08163c4.85964-1.53,2.23578,5.7911,3.30627,7.80583l3.16319-.26387C1793.6148,712.615,1795.88247,706.50263,1792.36029,705.73036Zm-2.93737-.94-1.13082.09433v-5.38776c1.50467-.17318,3.13-.45525,2.99426,1.68948C1791.39237,702.64571,1791.33139,704.88159,1789.42292,704.79035Z" transform="translate(-295.815)"/><polygon class="cls-63" points="1500.751 714.97 1503.859 714.711 1503.859 695.854 1500.751 696.113 1500.751 714.97"/><path class="cls-63" d="M1806.4798,695.01672c-7.23332.10085-4.052,11.11147-4.71785,15.04757-.55248,6.35386,9.98862,5.4731,9.43657-.78677C1810.54347,705.46331,1813.706,693.90214,1806.4798,695.01672Zm1.61026,14.70871c.17259,2.5067-3.39246,2.80635-3.22073.26867.60183-1.47686-1.562-12.43141,1.61155-12.284C1809.65829,697.059,1807.482,708.3193,1808.09006,709.72543Z" transform="translate(-295.815)"/><path class="cls-80" d="M1600.21084,200.26586s-608.304,250.83006-680.3732,474.8102c0,0,39.20834-414.99709,848.9418-643.987Z" transform="translate(-295.815)"/><path class="cls-81" d="M1594.70819,190.76893s-34.35921,169.5667-25.25548,176.7239c0,0-646.07984,253.34316-625.63185,249.85085s147.251-215.72611,637.88111-429.79319" transform="translate(-295.815)"/><polygon class="cls-82" points="744.753 731.353 770.686 747.545 1609.287 666.313 1602.148 566.936 744.753 731.353"/><path class="cls-30" d="M834.59828,750.33124l33.37891,51.72024,407.07348-67.54813s-129.55588-48.14863-83.99221-124.18847S834.59828,750.33124,834.59828,750.33124Z" transform="translate(-295.815)"/><polygon class="cls-83" points="671.594 712.395 617.543 778.965 1053.544 706.282 873.534 698.884 667.956 732.983 671.594 712.395"/><polygon class="cls-84" points="650.792 721.015 596.741 787.586 1032.742 714.902 852.733 707.504 647.155 741.603 650.792 721.015"/><path class="cls-85" d="M890.75822,721.35018s129.503-236.62826,535.23011-284.9284C1818.18175,389.73277,890.75822,721.35018,890.75822,721.35018Z" transform="translate(-295.815)"/><polygon class="cls-86" points="1043.509 734.613 1003.752 731.121 1005.951 855.33 1043.509 855.33 1043.509 734.613"/><path class="cls-87" d="M1307.49662,824.98335s10.3346-5.2023,21.081,0v34.682s-15.23163,6.94443-21.081,0Z" transform="translate(-295.815)"/><polygon class="cls-88" points="1287.969 738.924 1540.619 716.999 1552.173 720.598 1547.287 723.544 1538.8 720.064 1287.969 743.814 1287.969 738.924"/><polyline class="cls-89" points="1420.865 913.278 1417.228 865.59 1437.813 870.792 1478.775 838.134 1493.614 838.134 1493.614 885.532"/><polyline class="cls-89" points="1167.864 898.532 1167.864 862.983 1175.794 862.983 1184.131 856.913 1227.716 830.902 1237.709 830.902 1236.524 875.606"/><rect class="cls-90" x="635.05826" y="500.78299" width="14.69768" height="27.59286"/><rect class="cls-90" x="230.70556" y="763.5046" width="14.69768" height="28.93924"/><rect class="cls-91" x="908.06101" y="753.10655" width="28.93924" height="14.01388"/><rect class="cls-92" x="233.32952" y="444.57479" width="9.44977" height="18.60628"/><rect class="cls-93" x="1318.27223" y="261.39665" width="9.30314" height="16.6985"/><rect class="cls-91" x="1510.73145" width="19.26703" height="36.17118"/></svg>