<svg id="Layer_1" data-name="Layer 1" xmlns="http://www.w3.org/2000/svg" xmlns:xlink="http://www.w3.org/1999/xlink" viewBox="0 0 1920 1108.88983"><defs><style>.cls-1{fill:#3359a8;}.cls-2{fill:#e8b520;opacity:0.17;}.cls-3{fill:url(#linear-gradient);}.cls-34,.cls-4,.cls-44,.cls-45,.cls-52,.cls-53,.cls-54,.cls-56{stroke:#16183c;}.cls-34,.cls-4,.cls-44,.cls-45,.cls-52,.cls-53,.cls-54,.cls-56,.cls-57,.cls-58,.cls-59,.cls-60{stroke-miterlimit:10;}.cls-4{stroke-width:13px;fill:url(#linear-gradient-2);}.cls-4,.cls-55{opacity:0.39;}.cls-5{fill:url(#linear-gradient-3);}.cls-6{fill:url(#linear-gradient-4);}.cls-7{fill:url(#linear-gradient-5);}.cls-8{fill:url(#linear-gradient-6);}.cls-14,.cls-20,.cls-9{fill:#18193d;}.cls-10{fill:url(#linear-gradient-7);}.cls-11{fill:url(#linear-gradient-8);}.cls-12{fill:url(#linear-gradient-9);}.cls-13{fill:url(#linear-gradient-10);}.cls-14{opacity:0.12;}.cls-15{fill:url(#linear-gradient-11);}.cls-16{fill:url(#linear-gradient-12);}.cls-17,.cls-47,.cls-50{fill:#fff;}.cls-18{fill:url(#linear-gradient-13);}.cls-19{fill:url(#linear-gradient-14);}.cls-20,.cls-59{opacity:0.48;}.cls-21{fill:url(#linear-gradient-15);}.cls-22{fill:url(#linear-gradient-16);}.cls-23{fill:url(#linear-gradient-17);}.cls-24{fill:url(#linear-gradient-18);}.cls-25{fill:url(#linear-gradient-19);}.cls-26{fill:url(#linear-gradient-20);}.cls-27{fill:url(#linear-gradient-21);}.cls-28{fill:url(#linear-gradient-22);}.cls-29{fill:url(#linear-gradient-23);}.cls-30{fill:url(#linear-gradient-24);}.cls-31{fill:url(#linear-gradient-25);}.cls-32{fill:url(#linear-gradient-26);}.cls-33{fill:url(#linear-gradient-27);}.cls-34,.cls-44{stroke-width:9px;}.cls-34{fill:url(#linear-gradient-28);}.cls-35{fill:url(#linear-gradient-29);}.cls-36,.cls-60{opacity:0.75;}.cls-36{fill:url(#linear-gradient-30);}.cls-37{fill:url(#linear-gradient-31);}.cls-38{fill:url(#linear-gradient-32);}.cls-39{fill:url(#linear-gradient-33);}.cls-40{fill:url(#linear-gradient-34);}.cls-41{fill:url(#linear-gradient-35);}.cls-42,.cls-46,.cls-49{opacity:0.66;}.cls-42{fill:url(#linear-gradient-36);}.cls-43{fill:url(#linear-gradient-37);}.cls-44{opacity:0.59;fill:url(#linear-gradient-38);}.cls-45{stroke-width:5px;fill:url(#linear-gradient-39);}.cls-46{fill:url(#linear-gradient-40);}.cls-47{opacity:0.5;}.cls-48{fill:url(#linear-gradient-41);}.cls-49{fill:url(#linear-gradient-42);}.cls-50{opacity:0.44;}.cls-51{fill:url(#linear-gradient-43);}.cls-52,.cls-59{stroke-width:2px;}.cls-52{opacity:0.98;fill:url(#linear-gradient-44);}.cls-53,.cls-54,.cls-56{stroke-width:3px;}.cls-53{fill:url(#linear-gradient-45);}.cls-54{fill:url(#linear-gradient-46);}.cls-55{fill:url(#linear-gradient-47);}.cls-56{opacity:0.83;fill:url(#linear-gradient-48);}.cls-57,.cls-58,.cls-59,.cls-60{fill:none;stroke:#18193d;}.cls-57{stroke-width:1.5px;opacity:0.6;}</style><linearGradient id="linear-gradient" x1="-701.28329" y1="361.92892" x2="-704.50875" y2="160.3571" gradientTransform="translate(1044.40246 11.93603)" gradientUnits="userSpaceOnUse"><stop offset="0" stop-color="#4a4b4c"/><stop offset="0.16294" stop-color="#4f4e4d"/><stop offset="0.35084" stop-color="#5d574e"/><stop offset="0.55102" stop-color="#746651"/><stop offset="0.75988" stop-color="#947a55"/><stop offset="0.97349" stop-color="#bd9459"/><stop offset="1" stop-color="#c3985a"/></linearGradient><linearGradient id="linear-gradient-2" x1="-334.70521" y1="758.71788" x2="-100.74892" y2="936.08628" gradientTransform="translate(1044.40246 11.93603)" gradientUnits="userSpaceOnUse"><stop offset="0.06238" stop-color="#18193d"/><stop offset="0.07173" stop-color="#1e2247"/><stop offset="0.11533" stop-color="#364a74"/><stop offset="0.1594" stop-color="#4a6b98"/><stop offset="0.20332" stop-color="#5985b5"/><stop offset="0.24709" stop-color="#6497c9"/><stop offset="0.29064" stop-color="#6ba2d5"/><stop offset="0.33376" stop-color="#6da6d9"/><stop offset="0.47657" stop-color="#6da5d8" stop-opacity="0.99042"/><stop offset="0.54703" stop-color="#6ca4d6" stop-opacity="0.95746"/><stop offset="0.60169" stop-color="#6aa0d2" stop-opacity="0.9007"/><stop offset="0.64819" stop-color="#689bcc" stop-opacity="0.82003"/><stop offset="0.68952" stop-color="#6495c4" stop-opacity="0.71525"/><stop offset="0.72715" stop-color="#618ebb" stop-opacity="0.58627"/><stop offset="0.76203" stop-color="#5c85b0" stop-opacity="0.43268"/><stop offset="0.7938" stop-color="#577ba3" stop-opacity="0.25989"/><stop offset="0.80354" stop-color="#55779f" stop-opacity="0.2"/><stop offset="0.90295" stop-color="#3b4f75" stop-opacity="0.54312"/><stop offset="1" stop-color="#18193d"/></linearGradient><linearGradient id="linear-gradient-3" x1="-714.56829" y1="1034.50502" x2="-727.10409" y2="251.09294" xlink:href="#linear-gradient"/><linearGradient id="linear-gradient-4" x1="-431.808" y1="332.90953" x2="-361.19078" y2="332.90953" gradientTransform="translate(1044.40246 11.93603)" gradientUnits="userSpaceOnUse"><stop offset="0" stop-color="#4a4b4c"/><stop offset="0.62576" stop-color="#4f4c48"/><stop offset="1" stop-color="#554d43"/></linearGradient><linearGradient id="linear-gradient-5" x1="-351.40899" y1="390.56014" x2="-352.28753" y2="335.65644" xlink:href="#linear-gradient"/><linearGradient id="linear-gradient-6" x1="-470.87486" y1="469.39853" x2="-276.3524" y2="469.39853" xlink:href="#linear-gradient-4"/><linearGradient id="linear-gradient-7" x1="-1044.40246" y1="581.93258" x2="-844.69443" y2="581.93258" xlink:href="#linear-gradient-4"/><linearGradient id="linear-gradient-8" x1="-888.68497" y1="700.50925" x2="-889.27392" y2="663.70343" xlink:href="#linear-gradient"/><linearGradient id="linear-gradient-9" x1="-574.4827" y1="726.78482" x2="-575.06188" y2="690.58958" xlink:href="#linear-gradient"/><linearGradient id="linear-gradient-10" x1="-687.98635" y1="527.92355" x2="-690.44655" y2="374.17611" gradientTransform="translate(1044.40246)" xlink:href="#linear-gradient"/><linearGradient id="linear-gradient-11" x1="-734.76963" y1="510.18145" x2="-736.87797" y2="547.35774" xlink:href="#linear-gradient"/><linearGradient id="linear-gradient-12" x1="-654.72051" y1="522.95003" x2="-656.64326" y2="556.85399" xlink:href="#linear-gradient"/><linearGradient id="linear-gradient-13" x1="-862.46212" y1="669.26456" x2="-865.21991" y2="496.91934" xlink:href="#linear-gradient"/><linearGradient id="linear-gradient-14" x1="-558.73475" y1="695.02936" x2="-560.59976" y2="578.47745" xlink:href="#linear-gradient"/><linearGradient id="linear-gradient-15" x1="-695.83532" y1="550.96229" x2="-696.90421" y2="484.16291" xlink:href="#linear-gradient"/><linearGradient id="linear-gradient-16" x1="-686.00586" y1="505.82473" x2="-687.72752" y2="398.23099" gradientTransform="translate(1044.40246)" xlink:href="#linear-gradient"/><linearGradient id="linear-gradient-17" x1="-687.02662" y1="491.96899" x2="-688.05006" y2="428.0104" gradientTransform="translate(1044.40246)" xlink:href="#linear-gradient"/><linearGradient id="linear-gradient-18" x1="-637.47633" y1="502.0522" x2="-638.32282" y2="449.1514" gradientTransform="translate(1044.40246)" xlink:href="#linear-gradient"/><linearGradient id="linear-gradient-19" x1="-731.61742" y1="728.74145" x2="-732.19999" y2="692.33437" xlink:href="#linear-gradient"/><linearGradient id="linear-gradient-20" x1="-639.4521" y1="268.0963" x2="-641.55701" y2="305.21203" gradientTransform="translate(1044.40246)" xlink:href="#linear-gradient"/><linearGradient id="linear-gradient-21" x1="-737.91042" y1="483.93923" x2="-738.74432" y2="431.82494" gradientTransform="translate(1044.40246)" xlink:href="#linear-gradient"/><linearGradient id="linear-gradient-22" x1="-738.89904" y1="795.60149" x2="-739.61084" y2="751.11804" xlink:href="#linear-gradient"/><linearGradient id="linear-gradient-23" x1="-864.4795" y1="810.48011" x2="-859.88156" y2="908.34922" xlink:href="#linear-gradient"/><linearGradient id="linear-gradient-24" x1="-824.3379" y1="797.39239" x2="-764.17221" y2="876.91693" xlink:href="#linear-gradient"/><linearGradient id="linear-gradient-25" x1="-740.417" y1="777.71392" x2="-746.84059" y2="890.98114" xlink:href="#linear-gradient"/><linearGradient id="linear-gradient-26" x1="-675.06764" y1="824.3633" x2="-615.48125" y2="903.12214" xlink:href="#linear-gradient"/><linearGradient id="linear-gradient-27" x1="-1121.86814" y1="364.44713" x2="-907.4503" y2="483.26126" gradientTransform="translate(1044.40246 11.93603)" gradientUnits="userSpaceOnUse"><stop offset="0" stop-color="#51a2b6"/><stop offset="0.03116" stop-color="#4b93ad"/><stop offset="0.09353" stop-color="#427a9e"/><stop offset="0.164" stop-color="#3c6793"/><stop offset="0.2462" stop-color="#375a8b"/><stop offset="0.35087" stop-color="#345286"/><stop offset="0.55415" stop-color="#335085"/><stop offset="0.87225" stop-color="#51a2b6"/></linearGradient><linearGradient id="linear-gradient-28" x1="-573.99847" y1="1074.22749" x2="600.17765" y2="151.5399" gradientTransform="translate(1044.40246 11.93603)" gradientUnits="userSpaceOnUse"><stop offset="0.07728" stop-color="#a47e4e"/><stop offset="0.30075" stop-color="#48516a"/><stop offset="0.59497" stop-color="#18193d"/><stop offset="0.76793" stop-color="#1d2045" stop-opacity="0.93722"/><stop offset="0.8575" stop-color="#2d3a5f" stop-opacity="0.72326"/><stop offset="0.92771" stop-color="#49658c" stop-opacity="0.35732"/><stop offset="0.94879" stop-color="#55779f" stop-opacity="0.20053"/></linearGradient><linearGradient id="linear-gradient-29" x1="-296.61119" y1="170.97382" x2="132.71067" y2="408.87148" xlink:href="#linear-gradient-27"/><linearGradient id="linear-gradient-30" x1="-364.28549" y1="579.02646" x2="513.51706" y2="-294.90163" gradientTransform="translate(1044.40246)" gradientUnits="userSpaceOnUse"><stop offset="0.40618" stop-color="#18193d"/><stop offset="0.42524" stop-color="#1e2247"/><stop offset="0.51415" stop-color="#364a74"/><stop offset="0.60405" stop-color="#4a6b98"/><stop offset="0.69362" stop-color="#5985b5"/><stop offset="0.78289" stop-color="#6497c9"/><stop offset="0.87171" stop-color="#6ba2d5"/><stop offset="0.95965" stop-color="#6da6d9"/><stop offset="0.97191" stop-color="#6da5d8" stop-opacity="0.99042"/><stop offset="0.97797" stop-color="#6ca4d6" stop-opacity="0.95746"/><stop offset="0.98266" stop-color="#6aa0d2" stop-opacity="0.9007"/><stop offset="0.98666" stop-color="#689bcc" stop-opacity="0.82003"/><stop offset="0.99021" stop-color="#6495c4" stop-opacity="0.71525"/><stop offset="0.99344" stop-color="#618ebb" stop-opacity="0.58627"/><stop offset="0.99643" stop-color="#5c85b0" stop-opacity="0.43268"/><stop offset="0.99916" stop-color="#577ba3" stop-opacity="0.25989"/><stop offset="1" stop-color="#55779f" stop-opacity="0.2"/><stop offset="1" stop-color="#3b4f75" stop-opacity="0.54312"/><stop offset="1" stop-color="#18193d"/></linearGradient><linearGradient id="linear-gradient-31" x1="-183.05423" y1="322.25604" x2="-125.23263" y2="354.29639" xlink:href="#linear-gradient-27"/><linearGradient id="linear-gradient-32" x1="-73.19569" y1="251.55792" x2="-12.8216" y2="285.01266" xlink:href="#linear-gradient-27"/><linearGradient id="linear-gradient-33" x1="46.79779" y1="152.60739" x2="123.21071" y2="194.94964" xlink:href="#linear-gradient-27"/><linearGradient id="linear-gradient-34" x1="-229.20426" y1="774.70874" x2="938.87702" y2="-143.19054" gradientTransform="translate(1044.40246)" gradientUnits="userSpaceOnUse"><stop offset="0.06238" stop-color="#18193d"/><stop offset="0.11082" stop-color="#353c5a"/><stop offset="0.17034" stop-color="#536078"/><stop offset="0.22613" stop-color="#687a8e"/><stop offset="0.2762" stop-color="#75899b"/><stop offset="0.31564" stop-color="#7a8fa0"/><stop offset="0.37927" stop-color="#7f93a4"/><stop offset="0.45745" stop-color="#8ea0ae"/><stop offset="0.54327" stop-color="#a7b4c0"/><stop offset="0.63386" stop-color="#cad1d8"/><stop offset="0.7067" stop-color="#ebecef"/><stop offset="0.94134" stop-color="#fff"/></linearGradient><linearGradient id="linear-gradient-35" x1="53.12074" y1="732.08856" x2="650.68931" y2="262.50843" gradientTransform="translate(1044.40246 11.93603)" gradientUnits="userSpaceOnUse"><stop offset="0.06238" stop-color="#18193d"/><stop offset="0.13362" stop-color="#353c5a"/><stop offset="0.22114" stop-color="#536078"/><stop offset="0.30319" stop-color="#687a8e"/><stop offset="0.37681" stop-color="#75899b"/><stop offset="0.43482" stop-color="#7a8fa0"/><stop offset="0.50027" stop-color="#7f93a4"/><stop offset="0.58069" stop-color="#8ea0ae"/><stop offset="0.66895" stop-color="#a7b4c0"/><stop offset="0.76213" stop-color="#cad1d8"/><stop offset="0.83706" stop-color="#ebecef"/><stop offset="0.94134" stop-color="#fff"/></linearGradient><linearGradient id="linear-gradient-36" x1="-18.48338" y1="999.74095" x2="350.01428" y2="710.16922" gradientTransform="translate(1044.40246 11.93603)" gradientUnits="userSpaceOnUse"><stop offset="0.06238" stop-color="#18193d"/><stop offset="0.11341" stop-color="#2c3152"/><stop offset="0.19696" stop-color="#48536e"/><stop offset="0.2826" stop-color="#5e6d84"/><stop offset="0.37003" stop-color="#6e8094"/><stop offset="0.46036" stop-color="#778b9d"/><stop offset="0.55807" stop-color="#7a8fa0"/><stop offset="0.62482" stop-color="#788ea0" stop-opacity="0.96734"/><stop offset="0.70684" stop-color="#748ba0" stop-opacity="0.87324"/><stop offset="0.79685" stop-color="#6d87a0" stop-opacity="0.71771"/><stop offset="0.8926" stop-color="#63809f" stop-opacity="0.50057"/><stop offset="0.99194" stop-color="#56789f" stop-opacity="0.22454"/><stop offset="1" stop-color="#55779f" stop-opacity="0.2"/></linearGradient><linearGradient id="linear-gradient-37" x1="-157.18686" y1="1064.33176" x2="404.54918" y2="-319.2231" gradientTransform="translate(1044.40246 11.93603)" gradientUnits="userSpaceOnUse"><stop offset="0" stop-color="#51a2b6"/><stop offset="0.03359" stop-color="#4b95aa"/><stop offset="0.14167" stop-color="#3c6f89"/><stop offset="0.25449" stop-color="#2f506d"/><stop offset="0.37163" stop-color="#253858"/><stop offset="0.49496" stop-color="#1e2649"/><stop offset="0.62861" stop-color="#191c40"/><stop offset="0.79141" stop-color="#18193d"/></linearGradient><linearGradient id="linear-gradient-38" x1="254.58989" y1="195.08672" x2="-87.42119" y2="825.02422" gradientTransform="translate(1044.40246 11.93603)" gradientUnits="userSpaceOnUse"><stop offset="0.06238" stop-color="#18193d"/><stop offset="0.08435" stop-color="#232c52"/><stop offset="0.13323" stop-color="#3a517b"/><stop offset="0.18336" stop-color="#4c709d"/><stop offset="0.23425" stop-color="#5b88b7"/><stop offset="0.28621" stop-color="#6599ca"/><stop offset="0.33987" stop-color="#6ba3d5"/><stop offset="0.39793" stop-color="#6da6d9"/><stop offset="0.4427" stop-color="#6ca5d7" stop-opacity="0.97738"/><stop offset="0.49772" stop-color="#6aa1d3" stop-opacity="0.9122"/><stop offset="0.55814" stop-color="#679bcb" stop-opacity="0.8044"/><stop offset="0.62239" stop-color="#6392c0" stop-opacity="0.65389"/><stop offset="0.68974" stop-color="#5d86b2" stop-opacity="0.46043"/><stop offset="0.75868" stop-color="#5679a1" stop-opacity="0.22752"/><stop offset="0.76621" stop-color="#55779f" stop-opacity="0.2"/><stop offset="0.88451" stop-color="#3b4f75" stop-opacity="0.54312"/><stop offset="1" stop-color="#18193d"/></linearGradient><linearGradient id="linear-gradient-39" x1="72.61208" y1="960.68856" x2="415.77925" y2="115.46843" xlink:href="#linear-gradient-37"/><linearGradient id="linear-gradient-40" x1="-190.27812" y1="1019.18074" x2="952.09057" y2="121.48799" xlink:href="#linear-gradient-36"/><linearGradient id="linear-gradient-41" x1="168.83624" y1="921.48084" x2="906.39536" y2="341.89362" xlink:href="#linear-gradient-35"/><linearGradient id="linear-gradient-42" x1="133.33583" y1="1002.58392" x2="688.93903" y2="565.98147" xlink:href="#linear-gradient-36"/><linearGradient id="linear-gradient-43" x1="262.75087" y1="1069.79164" x2="1035.43202" y2="462.6049" gradientTransform="translate(1044.40246 11.93603)" gradientUnits="userSpaceOnUse"><stop offset="0.06238" stop-color="#18193d"/><stop offset="0.07236" stop-color="#353c5a"/><stop offset="0.08461" stop-color="#536078"/><stop offset="0.0961" stop-color="#687a8e"/><stop offset="0.1064" stop-color="#75899b"/><stop offset="0.11453" stop-color="#7a8fa0"/><stop offset="0.20543" stop-color="#7f93a4"/><stop offset="0.31711" stop-color="#8ea0ae"/><stop offset="0.43971" stop-color="#a7b4c0"/><stop offset="0.56912" stop-color="#cad1d8"/><stop offset="0.67319" stop-color="#ebecef"/><stop offset="0.94134" stop-color="#fff"/></linearGradient><linearGradient id="linear-gradient-44" x1="413.10365" y1="594.14016" x2="597.6121" y2="825.26163" gradientTransform="translate(1044.40246 11.93603)" gradientUnits="userSpaceOnUse"><stop offset="0.06238" stop-color="#18193d"/><stop offset="0.3302" stop-color="#191b3f"/><stop offset="0.45919" stop-color="#1d2247"/><stop offset="0.55847" stop-color="#242e54"/><stop offset="0.6426" stop-color="#2e3e66"/><stop offset="0.71714" stop-color="#3c547e"/><stop offset="0.78483" stop-color="#4c6f9c"/><stop offset="0.84608" stop-color="#5e8ebe"/><stop offset="0.88582" stop-color="#6da6d9"/><stop offset="0.8997" stop-color="#6ca5d7" stop-opacity="0.97738"/><stop offset="0.91676" stop-color="#6aa1d3" stop-opacity="0.9122"/><stop offset="0.93549" stop-color="#679bcb" stop-opacity="0.8044"/><stop offset="0.95541" stop-color="#6392c0" stop-opacity="0.65389"/><stop offset="0.97629" stop-color="#5d86b2" stop-opacity="0.46043"/><stop offset="0.99766" stop-color="#5679a1" stop-opacity="0.22752"/><stop offset="1" stop-color="#55779f" stop-opacity="0.2"/></linearGradient><linearGradient id="linear-gradient-45" x1="671.88632" y1="676.80078" x2="920.15218" y2="987.78692" gradientTransform="translate(1044.40246)" xlink:href="#linear-gradient-44"/><linearGradient id="linear-gradient-46" x1="696.2611" y1="689.14124" x2="861.36281" y2="895.95318" xlink:href="#linear-gradient-44"/><linearGradient id="linear-gradient-47" x1="-324.85155" y1="470.71115" x2="-278.70423" y2="505.69664" xlink:href="#linear-gradient-2"/><linearGradient id="linear-gradient-48" x1="309.58316" y1="719.45967" x2="632.87604" y2="1124.42718" xlink:href="#linear-gradient-44"/></defs><polygon class="cls-1" points="630.657 449.906 1418.506 32.82 1454.515 481.036 1883.568 843.316 1901.981 955.996 737.552 1108.89 635.21 972.606 482.753 626.949 630.657 449.906"/><polygon class="cls-2" points="1202.04 1087.943 1195.274 1087.065 1121.043 1077.432 1540.977 92.191 690.699 668.025 824.338 1098.331 1202.04 1087.943"/><polygon class="cls-3" points="0 234.244 66.069 151.658 214.724 192.951 421.94 184.692 596.121 304.818 683.212 324.338 683.212 361.877 666.694 337.852 581.105 321.335 415.933 205.714 199.708 217.727 75.078 169.677 0 234.244"/><polygon class="cls-4" points="630.657 874.911 745.791 1009.808 901.94 1003.045 855.892 669.698 630.657 874.911"/><polygon class="cls-5" points="33.034 1018.06 513.535 1018.06 612.594 342.051 614.681 327.814 581.105 321.335 415.933 205.714 199.708 217.727 75.078 169.677 58.039 184.33 192.2 240.25 33.034 1018.06"/><polygon class="cls-6" points="683.212 361.877 612.594 342.051 614.681 327.814 666.694 337.852 683.212 361.877"/><polygon class="cls-7" points="774.056 382.899 612.594 342.051 610.841 354.015 774.056 399.416 774.056 382.899"/><polygon class="cls-8" points="764.296 448.217 768.05 399.416 610.841 354.015 573.528 608.654 686.966 532.304 764.296 448.217"/><polygon class="cls-9" points="747.779 1018.06 698.227 812.346 636.663 867.153 573.528 696.726 533.055 635.912 513.535 1018.06 747.779 1018.06"/><polygon class="cls-10" points="0 234.244 75.078 169.677 199.708 217.727 33.034 1018.06 0 234.244"/><polygon class="cls-11" points="147.153 671.199 175.683 675.704 171.929 710.991 135.141 710.991 147.153 671.199"/><polygon class="cls-12" points="451.971 737.268 457.226 698.227 487.258 701.981 487.258 737.268 451.971 737.268"/><path class="cls-13" d="M192.20021,461.05667S210.96976,333.118,379.89572,358.79745s136.64234,161.571,136.64234,161.571l-25.52659-3.75391v-6.00626h16.51721S518.79041,392.7355,377.64338,370.212,209.4682,449.04416,209.4682,449.04416l14.26486,5.25547v12.01251Z" transform="translate(0 11.93603)"/><polygon class="cls-14" points="204.963 514.286 174.045 691.095 454.598 717.748 482.753 558.582 204.963 514.286"/><polygon class="cls-15" points="295.808 522.544 323.858 527.049 309.833 563.087 292.805 563.087 295.808 522.544"/><polygon class="cls-16" points="377.643 535.308 371.637 572.096 386.653 572.096 405.422 538.311 377.643 535.308"/><polygon class="cls-17" points="192.2 481.335 506.778 535.308 506.778 539.062 192.2 487.258 192.2 481.335"/><polygon class="cls-18" points="151.658 671.199 192.2 487.258 209.004 490.025 175.683 675.704 151.658 671.199"/><polygon class="cls-19" points="487.258 701.981 482.753 701.981 506.778 539.062 483.982 535.308 461.731 698.227 487.258 701.981"/><polygon class="cls-20" points="180.331 783.112 157.736 894.932 395.412 897.935 411.804 803.837 180.331 783.112"/><path class="cls-20" d="M391.15746,315.87814s-21.0219-2.72554-12.7633-35.75995,36.03754-18.01877,36.03754-18.01877,18.01877,5.25548,9.76017,41.293C424.19187,303.39243,415.18248,329.86541,391.15746,315.87814Z" transform="translate(0 11.93603)"/><polygon class="cls-20" points="225.235 526.298 294.863 535.308 265.777 698.227 192.2 692.82 225.235 526.298"/><polygon class="cls-20" points="319.183 539.062 371.637 547.32 349.489 707.762 292.805 702.377 313.485 553.702 319.183 539.062"/><polygon class="cls-20" points="391.658 563.087 371.637 709.866 421.134 714.569 451.971 563.087 396.872 553.702 391.658 563.087"/><polygon class="cls-21" points="199.708 514.286 482.753 558.582 496.267 539.062 209.004 490.025 199.708 514.286"/><path class="cls-20" d="M223.73306,454.29963s32.13043-89.14256,140.39624-74.32742S500.49268,486.02485,500.77164,506.10359Z" transform="translate(0 11.93603)"/><path class="cls-22" d="M233.11783,453.661s28.95222-80.32494,126.50881-66.97526,122.87487,95.56235,123.12623,113.655Z" transform="translate(0 11.93603)"/><path class="cls-20" d="M323.26614,486.32661a11.22045,11.22045,0,0,1-6.642-2.19721l-36.99546-4.15828-.01008-9.48a120.61588,120.61588,0,0,1,3.0712-25.43636c6.55563-27.00147,21.51565-31.033,29.84949-31.033a28.41245,28.41245,0,0,1,3.43692.2131A21.60014,21.60014,0,0,1,331.0586,422.825c8.24025,11.06524,5.70324,28.56947,3.45132,41.94854l-1.14468,16.41427.14686,4.89693-5.74931-.67385a11.46488,11.46488,0,0,1-4.48513.91574Z" transform="translate(0 11.93603)"/><path class="cls-20" d="M327.63053,485.02875s18.48267-95.159,48.87747-73.36541c20.71352,14.85195,5.9372,80.786,5.9372,80.786Z" transform="translate(0 11.93603)"/><path class="cls-20" d="M375.62867,496.49726s16.183-78.3766,47.61772-59.49007c21.42217,12.87084,8.21,67.1234,8.21,67.1234Z" transform="translate(0 11.93603)"/><path class="cls-23" d="M333.19323,483.74362S348.349,404.66,372.245,422.57233c16.28472,12.207,4.22663,67.01406,4.22663,67.01406Z" transform="translate(0 11.93603)"/><path class="cls-24" d="M385.90024,493.33231s7.14012-55.26977,28.90651-50.558,8.4118,57.29922,8.4118,57.29922Z" transform="translate(0 11.93603)"/><polygon class="cls-20" points="174.046 691.095 454.599 717.748 452.99 729.695 172.888 701.981 174.046 691.095"/><polygon class="cls-25" points="171.929 710.991 451.971 737.268 452.99 729.695 172.888 701.981 171.929 710.991"/><polygon class="cls-9" points="482.753 558.582 469.614 558.582 454.599 717.748 482.753 558.582"/><polygon class="cls-9" points="192.2 487.258 135.141 710.991 146.152 707.762 192.2 487.258"/><path class="cls-26" d="M396.87056,307.25673s-13.97882-1.81238-8.48714-23.7791,23.96369-11.98184,23.96369-11.98184,11.98184,3.49471,6.49016,27.45839C418.83727,298.95418,412.84635,316.55777,396.87056,307.25673Z" transform="translate(0 11.93603)"/><path class="cls-27" d="M286.22021,476.1776s-.05279-54.10318,27.14275-50.75413.3869,66.86383,11.63848,55.11205Z" transform="translate(0 11.93603)"/><polygon class="cls-28" points="163.67 759.791 446.465 778.811 446.465 803.837 163.67 781.814 163.67 759.791"/><polygon class="cls-29" points="135.141 909.948 163.67 781.814 180.331 783.112 157.736 894.932 223.733 893.931 233.118 913.952 135.141 909.948"/><polygon class="cls-30" points="247.374 788.333 223.733 893.931 233.118 913.952 243.531 913.952 247.374 895.933 270.282 788.333 247.374 788.333"/><polygon class="cls-31" points="332.221 794.94 312.46 893.931 247.374 895.933 243.531 913.952 336.726 913.952 356.981 796.869 332.221 794.94"/><polygon class="cls-32" points="411.804 803.837 395.412 897.935 340.363 892.932 336.726 913.952 420.278 918.957 435.486 802.982 411.804 803.837"/><polygon class="cls-9" points="18.019 870.907 108.113 877.914 73.076 1048.092 12.013 1042.086 18.019 870.907"/><polygon class="cls-9" points="135.141 1009.051 135.141 975.016 217.226 982.023 217.226 1003.045 163.67 1001.043 163.67 1009.051 135.141 1009.051"/><polygon class="cls-9" points="238.248 981.022 308.331 981.022 308.331 1003.045 233.118 1003.045 238.248 981.022"/><polygon class="cls-9" points="332.221 981.022 328.399 1003.045 388.53 1009.051 398.415 981.022 332.221 981.022"/><polygon class="cls-33" points="41.043 201.21 151.658 230.24 39.979 714.569 33.034 205.834 41.043 201.21"/><polygon class="cls-20" points="69.871 911.543 617.191 926.558 635.21 972.606 545.116 1015.651 37.588 1015.651 69.871 911.543"/><path class="cls-20" d="M662.6903,510.60828s1.4565-78.82441,29.75849-60.4341c0,0,7.28009,18.9051-9.23711,62.19306Z" transform="translate(0 11.93603)"/><polygon class="cls-34" points="533.055 635.912 630.657 874.911 855.892 669.698 901.94 1003.045 1108.154 986.027 1203.253 819.479 1136.184 860.97 1120.167 759.791 1033.076 939.979 911.95 794.94 1102.148 281.168 533.055 635.912"/><polygon class="cls-35" points="712.505 367.327 774.056 312.325 1459.52 0 1099.621 287.995 527.55 638.165 692.449 524.303 717.039 498.263 764.296 448.217 768.05 381.379 725.97 370.733 712.505 367.327"/><path class="cls-36" d="M1069.11366,195.27982,956.31577,249.03113l-10.76692,5.13074L725.9696,358.79745l71.86147-42.91931,19.01982-19.493,7.0073-6.78474-10.01043,20.36875,47.049-20.36875,7.25756-20.36875,9.76016-10.53714-3.00312,18.34412,66.06882-32.2072,2.11741-21.46422,7.893-6.06445,4.00417,27.52867,114.11887-57.56,146.15224-94.098h13.56943l-90.64972,64.56725,119.12409-55.55787,90.16363-63.06569,8.91354-4.06137-47.023,41.1,83.19014-39.01683,13.62342-6.38949-137.85631,76.43865-187.195,132.13764,27.02643,29.90595L942.98227,369.46126l3.00313-36.55173L837.87278,414.02175l-.16378,20.04833L527.54953,626.22872,764.29614,436.28086l63.56622-33.78519L843.879,342.07911l-54.05631,30.38527-21.77268-3.02107s35.78728-45.40709,32.78415-49.48613,3.62878-4.079,3.62878-4.079l-13.88947,44.57373,54.4317-24.77581,21.39729-48.05,7.50782-3.00313-13.13868,43.86619,85.21376-57.38026-2.62774-21.77268,6.757-.75079,7.50782,17.268Z" transform="translate(0 11.93603)"/><polygon class="cls-37" points="840.125 410.302 857.393 349.114 945.235 292.805 942.982 335.224 840.125 410.302"/><polygon class="cls-38" points="963.629 285.297 963.629 324.713 1059.729 258.644 1041.898 237.247 963.629 285.297"/><polygon class="cls-39" points="1061.606 228.238 1072.492 242.503 1211.762 143.024 1094.64 196.705 1061.606 228.238"/><path class="cls-40" d="M1418.506,20.884l41.0143-26.81377-26.02711,325.887L1228.27946,729.83665c-43.04484,28.02919-82.08551,53.05526-82.08551,53.05526l-14.0146-65.13268Z" transform="translate(0 11.93603)"/><polygon class="cls-41" points="1252.304 729.695 1434.494 354.015 1417.477 539.062 1310.365 701.981 1252.304 729.695"/><polygon class="cls-42" points="1203.253 819.479 1252.304 794.828 1132.179 981.022 1108.154 986.027 1203.253 819.479"/><polygon class="cls-43" points="919.958 788.822 1092.138 344.846 1379.584 127.55 1418.506 32.82 1099.621 287.995 911.95 794.94 1033.076 939.979 919.958 788.822"/><polygon class="cls-44" points="1379.584 127.55 1120.167 759.791 1033.076 939.979 919.958 788.822 1092.138 344.846 1379.584 127.55"/><polygon class="cls-45" points="1252.304 794.828 1310.365 701.981 1252.304 729.695 1434.494 354.015 1433.493 331.893 1228.279 741.773 1146.194 794.828 1132.179 729.695 1120.167 759.791 1136.184 860.97 1252.304 794.828"/><polygon class="cls-46" points="1430.319 399.416 1584.651 395.412 1553.618 496.517 1343.399 698.728 1384.442 762.795 1139.187 986.027 1132.179 981.022 1417.477 539.062 1430.319 399.416"/><polygon class="cls-47" points="1413.472 996.038 1553.618 496.517 1343.399 698.728 1384.442 762.795 1139.187 986.027 1413.472 996.038"/><polygon class="cls-48" points="1584.651 395.412 1573.639 541.855 1558.624 697.727 1459.52 986.027 1459.52 903.942 1443.396 889.38 1572.638 425.443 1584.651 395.412"/><polygon class="cls-49" points="1252.304 912.951 1505.031 669.698 1443.396 889.38 1418.506 866.903 1418.506 912.951 1252.304 912.951"/><polygon class="cls-50" points="1422.482 1009.808 1420.165 931.189 1406.177 975.016 1388.446 974.015 1393.452 996.038 1422.482 1009.808"/><polygon class="cls-51" points="1454.515 996.038 1558.624 697.727 1574.645 528.476 1920 802.836 1890.97 966.006 1858.936 986.027 1454.515 996.038"/><polygon class="cls-52" points="1584.651 461.481 1449.027 894.466 1459.912 912.951 1577.643 627.654 1505.031 794.828 1501.564 762.257 1584.651 461.481"/><path class="cls-53" d="M1670.74035,664.76887l164.171,285.29718,20.02085-5.00521L1752.82586,794.90443l72.07508,54.12933,59.06152,101.03229,18.01877-6.00625-67.06986-95.026,45.04692,40.96973,7.0073,3.00313v42.04379l15.01564-39.04067-9.00938-8.00834-24.025-144.65068h-8.80037l25.8181,139.64547-49.0511-40.04171L1704.77581,633.73654s-13.01356,0-9.00939,4.00417,120.12513,193.63921,120.12513,193.63921l-66.06882-51.99166L1682.6758,657.76157Z" transform="translate(0 11.93603)"/><polygon class="cls-54" points="1742.014 661.438 1809.885 773.806 1792.868 766.799 1793.573 786.269 1816.893 794.828 1816.893 803.837 1826.903 803.837 1826.903 819.854 1834.911 828.863 1834.911 839.753 1818.217 825.287 1815.892 843.316 1852.93 853.889 1852.93 843.316 1886.5 860.97 1883.568 843.316 1861.94 843.316 1865.944 832.868 1881.971 833.701 1844.922 814.849 1844.922 794.828 1828.905 794.828 1828.905 784.818 1756.582 673.012 1742.014 661.438"/><polygon class="cls-55" points="670.789 553.702 716.706 486.4 795.057 431.868 804.315 466.695 670.789 553.702"/><polygon class="cls-56" points="1463.525 996.038 1459.52 903.942 1418.506 866.903 1418.506 996.038 1393.452 996.038 1388.446 974.015 1406.177 975.016 1425.985 912.951 1252.304 912.951 1505.031 669.698 1510.574 690.719 1553.618 496.517 1343.399 698.728 1384.442 762.795 1139.187 986.027 1132.179 991.032 1459.52 1009.808 1636.705 1014.056 1636.705 1003.045 1660.73 1003.045 1665.735 986.027 1712.784 986.027 1690.761 932.972 1636.705 928.968 1645.714 952.993 1584.651 950.991 1737.81 771.804 1686.757 735.766 1660.73 690.719 1651.721 690.719 1683.754 746.277 1703.775 802.836 1618.686 897.935 1562.628 785.819 1645.714 704.734 1711.783 642.106 1691.762 620.647 1675.746 608.654 1689.76 638.165 1674.745 650.678 1615.683 560.584 1604.672 553.577 1660.73 652.68 1660.73 663.691 1649.718 669.698 1589.656 562.586 1575.641 566.59 1640.709 676.705 1619.687 701.731 1562.628 663.691 1558.624 697.727 1511.575 815.85 1511.575 827.862 1553.618 794.828 1610.678 901.94 1559.625 960 1553.618 974.015 1545.61 970.01 1538.603 978.019 1515.579 986.027 1513.577 948.989 1507.57 949.99 1501.564 965.005 1501.564 986.027 1463.525 996.038"/><line class="cls-57" x1="945.23462" y1="746.27737" x2="966.8635" y2="851.50034"/><line class="cls-57" x1="963.62878" y1="676.21437" x2="1026.49789" y2="931.18876"/><line class="cls-57" x1="993.52533" y1="599.12409" x2="1053.39729" y2="897.93535"/><line class="cls-57" x1="1023.46131" y1="553.70177" x2="1081.60623" y2="839.57203"/><line class="cls-57" x1="1045.32112" y1="465.56514" x2="1108.15433" y2="788.33286"/><line class="cls-57" x1="1076.73772" y1="384.5553" x2="1132.17935" y2="729.69526"/><line class="cls-57" x1="1120.16684" y1="340.4251" x2="1156.83072" y2="669.6976"/><line class="cls-57" x1="1176.37301" y1="281.16768" x2="1180.22941" y2="618.64442"/><line class="cls-57" x1="1231.28259" y1="216.97602" x2="1202.4851" y2="558.58186"/><line class="cls-57" x1="1295.84984" y1="151.65798" x2="1232.14279" y2="486.39958"/><line class="cls-57" x1="1041.89781" y1="514.28571" x2="1379.58418" y2="151.65798"/><line class="cls-57" x1="980.04171" y1="638.16475" x2="1326.56443" y2="256.76747"/><line class="cls-57" x1="911.94995" y1="794.94045" x2="1283.43657" y2="361.87696"/><line class="cls-57" x1="952.34978" y1="843.31595" x2="1211.76225" y2="518.03962"/><line class="cls-58" x1="1002.38862" y1="903.23337" x2="1185.82742" y2="599.12409"/><line class="cls-59" x1="715.49531" y1="816.1001" x2="789.82273" y2="1025.13142"/><line class="cls-59" x1="752.65902" y1="763.75391" x2="840.12513" y2="1018.06048"/><line class="cls-59" x1="804.31534" y1="719.62461" x2="892.67987" y2="986.02711"/><line class="cls-59" x1="662.6903" y1="890.90719" x2="866.47014" y2="746.27737"/><line class="cls-59" x1="683.21168" y1="945.33457" x2="868.15433" y2="840.52359"/><line class="cls-59" x1="704.23358" y1="1009.05109" x2="888.15175" y2="903.23337"/><line class="cls-60" x1="1723.44352" y1="788.61206" x2="1645.71429" y2="952.9927"/><line class="cls-60" x1="1695.89291" y1="945.33457" x2="1760.8171" y2="818.59228"/><line class="cls-60" x1="1737.81022" y1="992.03337" x2="1771.11845" y2="851.14245"/><line class="cls-60" x1="1786.36079" y1="987.82354" x2="1795.16409" y2="892.92908"/><line class="cls-60" x1="1684.5789" y1="818.59228" x2="1796.39124" y2="870.90719"/><line class="cls-60" x1="1653.19146" y1="870.80238" x2="1802.84868" y2="906.2834"/><line class="cls-60" x1="1613.39109" y1="917.36621" x2="1814.2567" y2="940.37631"/><line class="cls-60" x1="1713.8239" y1="970.49818" x2="1846.1731" y2="975.01564"/><line class="cls-58" x1="1588.1074" y1="680.67779" x2="1553.61835" y2="794.82795"/><line class="cls-58" x1="1527.76247" y1="748.52972" x2="1592.40535" y2="756.75848"/><line class="cls-58" x1="1543.96276" y1="705.19571" x2="1620.1368" y2="729.69526"/><line class="cls-58" x1="1363.23788" y1="729.69526" x2="1468.48363" y2="578.4087"/><line class="cls-58" x1="1443.3962" y1="719.69083" x2="1537.51241" y2="512.00959"/><line class="cls-58" x1="1343.39937" y1="698.72784" x2="1519.43111" y2="669.6976"/><line class="cls-58" x1="1400.59878" y1="635.42768" x2="1541.04928" y2="607.60276"/></svg>