<svg id="Layer_1" data-name="Layer 1" xmlns="http://www.w3.org/2000/svg" xmlns:xlink="http://www.w3.org/1999/xlink" viewBox="0 0 2720.85056 1098.06754"><defs><style>.cls-1,.cls-12,.cls-4{fill:none;stroke-miterlimit:10;}.cls-1{stroke:#29abe2;stroke-linecap:round;stroke-width:5px;}.cls-2{fill:#3359a8;opacity:0.21;}.cls-3{fill:#51a3b7;opacity:0.1;}.cls-4{stroke:#e8b520;}.cls-5{fill:url(#linear-gradient);}.cls-6{fill:url(#linear-gradient-2);}.cls-7{fill:url(#linear-gradient-3);}.cls-8{fill:url(#linear-gradient-4);}.cls-9{fill:url(#linear-gradient-5);}.cls-10{fill:url(#linear-gradient-6);}.cls-11{fill:url(#linear-gradient-7);}.cls-12{stroke:#2267b1;}.cls-13{fill:url(#linear-gradient-8);}.cls-14{fill:url(#linear-gradient-9);}.cls-15{fill:url(#linear-gradient-10);}.cls-16{opacity:0.39;fill:url(#linear-gradient-11);}.cls-17,.cls-25{opacity:0.54;}.cls-17{fill:url(#linear-gradient-12);}.cls-18{fill:url(#linear-gradient-13);}.cls-19{fill:#18193d;}.cls-20{fill:#1a2855;}.cls-21{fill:url(#linear-gradient-14);}.cls-22{fill:url(#linear-gradient-15);}.cls-23{fill:#7a8e9f;}.cls-24,.cls-26{opacity:0.57;}.cls-24{fill:url(#linear-gradient-16);}.cls-25{fill:url(#linear-gradient-17);}.cls-26{fill:url(#linear-gradient-18);}.cls-27,.cls-28{opacity:0.25;}.cls-27{fill:url(#linear-gradient-19);}.cls-28{fill:url(#linear-gradient-20);}.cls-29,.cls-30{fill:#fff;}.cls-30{opacity:0.65;}</style><linearGradient id="linear-gradient" x1="-596.74555" y1="432.01391" x2="164.36349" y2="853.76288" gradientTransform="matrix(-1, 0, 0, 1, 2004.3584, 6)" gradientUnits="userSpaceOnUse"><stop offset="0" stop-color="#51a2b6"/><stop offset="0.03116" stop-color="#4b93ad"/><stop offset="0.09353" stop-color="#427a9e"/><stop offset="0.164" stop-color="#3c6793"/><stop offset="0.2462" stop-color="#375a8b"/><stop offset="0.35087" stop-color="#345286"/><stop offset="0.55415" stop-color="#335085"/><stop offset="0.87225" stop-color="#51a2b6"/></linearGradient><linearGradient id="linear-gradient-2" x1="-362.77272" y1="1015.35963" x2="193.09836" y2="1015.35963" gradientTransform="matrix(-1, 0, 0, 1, 2004.3584, 6)" gradientUnits="userSpaceOnUse"><stop offset="0" stop-color="#7acde1"/><stop offset="0.97716" stop-color="#7a8e9f"/></linearGradient><linearGradient id="linear-gradient-3" x1="-580.79047" y1="465.03404" x2="62.70317" y2="465.03404" gradientTransform="matrix(-1, 0, 0, 1, 2004.3584, 6)" gradientUnits="userSpaceOnUse"><stop offset="0.06238" stop-color="#9698af"/><stop offset="0.38641" stop-color="#9d9185"/><stop offset="1" stop-color="#5c6f86"/></linearGradient><linearGradient id="linear-gradient-4" x1="-585.03605" y1="529.25122" x2="130.13903" y2="529.25122" xlink:href="#linear-gradient-3"/><linearGradient id="linear-gradient-5" x1="-537.40016" y1="287.25273" x2="-1.57901" y2="287.25273" gradientTransform="matrix(-1, 0, 0, 1, 2004.3584, 6)" gradientUnits="userSpaceOnUse"><stop offset="0.06238" stop-color="#75b0e0"/><stop offset="0.33376" stop-color="#667b96"/><stop offset="1" stop-color="#2e79b8"/></linearGradient><linearGradient id="linear-gradient-6" x1="-543.94598" y1="320.71423" x2="13.30372" y2="320.71423" xlink:href="#linear-gradient-3"/><linearGradient id="linear-gradient-7" x1="-549.69479" y1="352.31154" x2="24.88788" y2="352.31154" gradientTransform="matrix(-1, 0, 0, 1, 2004.3584, 6)" gradientUnits="userSpaceOnUse"><stop offset="0" stop-color="#4883c0"/><stop offset="0.13367" stop-color="#a1a0ab"/><stop offset="0.20145" stop-color="#aba39c"/><stop offset="0.34315" stop-color="#bca882"/><stop offset="0.42737" stop-color="#c2aa78"/><stop offset="0.44954" stop-color="#b6a179"/><stop offset="0.4926" stop-color="#a59579"/><stop offset="0.53977" stop-color="#9b8d7a"/><stop offset="0.59835" stop-color="#988b7a"/><stop offset="0.97716" stop-color="#2267b1"/></linearGradient><linearGradient id="linear-gradient-8" x1="-565.29102" y1="409.99534" x2="-231.24693" y2="409.99534" gradientTransform="matrix(-1, 0, 0, 1, 2004.3584, 6)" gradientUnits="userSpaceOnUse"><stop offset="0" stop-color="#76b1e0"/><stop offset="0.25285" stop-color="#a1a0ab"/><stop offset="0.40839" stop-color="#597497"/><stop offset="0.49441" stop-color="#365f8e"/><stop offset="0.49618" stop-color="#38608e"/><stop offset="0.55701" stop-color="#738084"/><stop offset="0.60891" stop-color="#9e977e"/><stop offset="0.64928" stop-color="#b8a57a"/><stop offset="0.67318" stop-color="#c2aa78"/><stop offset="0.70741" stop-color="#b6a179"/><stop offset="0.77393" stop-color="#a59579"/><stop offset="0.84679" stop-color="#9b8d7a"/><stop offset="0.93727" stop-color="#988b7a"/></linearGradient><linearGradient id="linear-gradient-9" x1="-192.25607" y1="327.46802" x2="-149.67895" y2="327.46802" xlink:href="#linear-gradient-3"/><linearGradient id="linear-gradient-10" x1="-97.27635" y1="428.19296" x2="52.37177" y2="428.19296" xlink:href="#linear-gradient-5"/><linearGradient id="linear-gradient-11" x1="-649.16549" y1="722.95115" x2="-303.22883" y2="722.95115" gradientTransform="matrix(-1, 0, 0, 1, 2004.3584, 6)" gradientUnits="userSpaceOnUse"><stop offset="0.06238" stop-color="#18193d"/><stop offset="0.07173" stop-color="#1e2247"/><stop offset="0.11533" stop-color="#364a74"/><stop offset="0.1594" stop-color="#4a6b98"/><stop offset="0.20332" stop-color="#5985b5"/><stop offset="0.24709" stop-color="#6497c9"/><stop offset="0.29064" stop-color="#6ba2d5"/><stop offset="0.33376" stop-color="#6da6d9"/><stop offset="0.47657" stop-color="#6da5d8" stop-opacity="0.99042"/><stop offset="0.54703" stop-color="#6ca4d6" stop-opacity="0.95746"/><stop offset="0.60169" stop-color="#6aa0d2" stop-opacity="0.9007"/><stop offset="0.64819" stop-color="#689bcc" stop-opacity="0.82003"/><stop offset="0.68952" stop-color="#6495c4" stop-opacity="0.71525"/><stop offset="0.72715" stop-color="#618ebb" stop-opacity="0.58627"/><stop offset="0.76203" stop-color="#5c85b0" stop-opacity="0.43268"/><stop offset="0.7938" stop-color="#577ba3" stop-opacity="0.25989"/><stop offset="0.80354" stop-color="#55779f" stop-opacity="0.2"/><stop offset="0.90295" stop-color="#3b4f75" stop-opacity="0.54312"/><stop offset="1" stop-color="#18193d"/></linearGradient><linearGradient id="linear-gradient-12" x1="-686.3993" y1="951.7636" x2="-28.5529" y2="951.7636" gradientTransform="matrix(-1, 0, 0, 1, 2004.3584, 6)" gradientUnits="userSpaceOnUse"><stop offset="0" stop-color="#7acde1"/><stop offset="0.13367" stop-color="#e8b520"/><stop offset="0.18287" stop-color="#eec017"/><stop offset="0.28639" stop-color="#f6d10a"/><stop offset="0.39978" stop-color="#fbdb02"/><stop offset="0.54061" stop-color="#fdde00"/><stop offset="0.63666" stop-color="#fbda03"/><stop offset="0.7393" stop-color="#f4cd0d"/><stop offset="0.84468" stop-color="#e9b81e"/><stop offset="0.85533" stop-color="#e8b520"/><stop offset="0.97716" stop-color="#2267b1"/></linearGradient><linearGradient id="linear-gradient-13" x1="-476.19716" y1="653.14336" x2="165.24532" y2="653.14336" gradientTransform="matrix(-1, 0, 0, 1, 2004.3584, 6)" gradientUnits="userSpaceOnUse"><stop offset="0.13367" stop-color="#a1a0ab"/><stop offset="0.20145" stop-color="#aba39c"/><stop offset="0.34315" stop-color="#bca882"/><stop offset="0.42737" stop-color="#c2aa78"/><stop offset="0.44954" stop-color="#b6a179"/><stop offset="0.4926" stop-color="#a59579"/><stop offset="0.53977" stop-color="#9b8d7a"/><stop offset="0.59835" stop-color="#988b7a"/><stop offset="0.97716" stop-color="#4fa2b7"/></linearGradient><linearGradient id="linear-gradient-14" x1="-263.54147" y1="885.773" x2="-224.84123" y2="583.04815" gradientTransform="matrix(-1, 0, 0, 1, 2004.3584, 6)" gradientUnits="userSpaceOnUse"><stop offset="0" stop-color="#51a2b6"/><stop offset="0.03359" stop-color="#4b95aa"/><stop offset="0.14167" stop-color="#3c6f89"/><stop offset="0.25449" stop-color="#2f506d"/><stop offset="0.37163" stop-color="#253858"/><stop offset="0.49496" stop-color="#1e2649"/><stop offset="0.62861" stop-color="#191c40"/><stop offset="0.79141" stop-color="#18193d"/></linearGradient><linearGradient id="linear-gradient-15" x1="-33.32321" y1="1024.81832" x2="20.28039" y2="605.51488" xlink:href="#linear-gradient-14"/><linearGradient id="linear-gradient-16" x1="-686.3993" y1="951.62397" x2="-298.28554" y2="951.62397" gradientTransform="matrix(-1, 0, 0, 1, 2004.3584, 6)" gradientUnits="userSpaceOnUse"><stop offset="0" stop-color="#18193d"/><stop offset="0.23502" stop-color="#1d1d3f"/><stop offset="0.50585" stop-color="#2b2a44"/><stop offset="0.79336" stop-color="#423e4e"/><stop offset="1" stop-color="#575156"/></linearGradient><linearGradient id="linear-gradient-17" x1="-117.95697" y1="913.93242" x2="-7.02743" y2="913.93242" xlink:href="#linear-gradient-12"/><linearGradient id="linear-gradient-18" x1="-374.67551" y1="874.18755" x2="-331.35009" y2="874.18755" xlink:href="#linear-gradient-12"/><linearGradient id="linear-gradient-19" x1="-660.55765" y1="966.13998" x2="-298.28554" y2="966.13998" xlink:href="#linear-gradient-12"/><linearGradient id="linear-gradient-20" x1="-39.67743" y1="959.22502" x2="17.07525" y2="959.22502" xlink:href="#linear-gradient-12"/></defs><line class="cls-1" x1="2402.42528" y1="153.5" x2="1662.42528" y2="557.5"/><polygon class="cls-2" points="1893.774 659.639 1893.774 926.111 1756.898 926.111 1756.898 874.504 1645.165 874.504 1645.165 791.361 1592.13 791.361 1541.591 753.753 1482.137 797.994 1482.137 897.157 1482.137 994.12 1413.995 994.12 1413.995 917.51 1363.291 917.51 1363.291 785.627 1324.227 785.627 1257.378 835.371 1111.176 835.371 1111.176 785.627 1037.116 785.627 1037.116 994.12 893.86 994.12 893.86 805.696 795.884 805.696 710.238 741.965 565.062 741.965 479.729 805.463 479.729 1033.224 244.863 1033.224 244.863 980.584 115.585 980.584 53.94 934.712 0 934.712 0 1092.398 2720.851 1092.398 2720.851 163.604 2498.229 163.604 2498.229 0 2359.644 0 2359.644 85.42 2320.252 114.733 2289.421 114.733 2289.421 62.161 2265.474 62.161 2265.474 353.44 2178.178 418.4 2178.178 377.532 2080.612 377.532 2080.612 559.069 1995.774 559.069 1893.774 659.639"/><polygon class="cls-3" points="2633.665 887.49 2510.847 400.892 2220.995 107.528 1990.096 334.139 1870.552 566.019 1780.485 933.163 2029.398 954.243 2165.681 861.14 2371.652 847.086 2633.665 887.49"/><polygon class="cls-4" points="2706.656 913.833 2583.837 427.235 2293.985 133.871 2063.086 360.482 1943.543 592.362 1853.476 959.506 2102.388 980.586 2238.672 887.482 2444.643 873.429 2706.656 913.833"/><polygon class="cls-5" points="2659.143 910.169 2536.325 423.571 2246.473 130.208 2015.574 356.818 1896.03 588.698 1805.963 955.842 2054.876 976.922 2191.159 883.819 2397.13 869.766 2659.143 910.169"/><polyline class="cls-6" points="2367.131 972.14 2074.81 999.603 2057.121 944.652 1840.737 944.652 1811.26 1098.068 2312.36 1086.356"/><polygon class="cls-7" points="2573.187 573.409 2231.39 328.744 1941.655 541.301 1941.655 562.381 2232.203 365.634 2585.149 613.324 2575.627 588.731 2573.187 573.409"/><polygon class="cls-8" points="2589.394 665.813 2220.332 451.971 1874.219 677.608 1887.615 623.653 2227.777 392.895 2589.394 635.95 2589.394 665.813"/><polygon class="cls-9" points="2539.056 434.394 2246.106 141.405 2012.813 362.173 2005.937 375.51 2245.014 171.854 2541.759 445.1 2539.056 434.394"/><polygon class="cls-10" points="2544.587 456.307 2246.106 182.394 2005.937 382.735 1991.055 404.378 2242.831 212.843 2548.304 471.034 2544.587 456.307"/><polygon class="cls-11" points="2550.608 480.161 2240.717 222.813 1987.283 411.694 1979.471 426.848 2242.831 258.517 2554.053 493.81 2550.608 480.161"/><line class="cls-12" x1="2500.38888" y1="393.36647" x2="2600.8272" y2="877.69066"/><line class="cls-12" x1="2453.61487" y1="344.06586" x2="2554.05319" y2="865.05047"/><line class="cls-12" x1="2422.99539" y1="308.869" x2="2503.83403" y2="845.75772"/><line class="cls-12" x1="2206.62499" y1="555.90721" x2="2246.4728" y2="222.13997"/><line class="cls-12" x1="2252.41661" y1="610.46157" x2="2293.25631" y2="185.6518"/><polygon class="cls-13" points="2235.605 313.166 2569.649 553.565 2557.974 509.346 2471.64 446.741 2476.401 470.586 2441.712 445.1 2446.262 463.397 2411.195 436.526 2411.195 445.1 2364.254 413.324 2364.751 373.611 2338.902 353.377 2240.253 278.426 2235.605 313.166"/><polygon class="cls-14" points="2196.614 301.848 2154.037 328.744 2154.037 365.088 2196.614 333.468 2196.614 301.848"/><polygon class="cls-15" points="2101.635 411.933 2101.635 389.024 2044.137 434.574 2047.47 415.995 2050.688 387.842 1968.346 449.896 1951.987 480.544 2046.518 415.995 2037.672 457.785 2101.635 411.933"/><polygon class="cls-16" points="2653.524 887.905 2379.541 776.713 2339.178 670.814 2489.332 749.442 2476.429 663.745 2307.587 587.927 2312.031 569.997 2361.835 593.455 2361.835 569.997 2605.496 697.622 2653.524 887.905"/><polygon class="cls-17" points="2690.758 1062.739 2652.002 933.371 2645.618 912.836 2426.171 839.385 2136.807 882.192 2032.911 961.925 2032.911 1006.526 2346.912 989.388 2291.188 1076.142 2690.758 1062.739"/><polygon class="cls-18" points="2468.817 665.813 2480.556 744.846 2235.605 646.155 2133.659 646.155 1839.113 820.713 1858.939 739.894 2218.267 497.574 2468.817 665.813"/><line class="cls-12" x1="2302.69642" y1="770.12333" x2="2328.56682" y2="215.50366"/><line class="cls-12" x1="2367.13112" y1="252.32785" x2="2360.2847" y2="817.60221"/><line class="cls-12" x1="2453.61487" y1="847.30735" x2="2395.09584" y2="280.6314"/><polygon class="cls-19" points="2391.232 807.387 2226.291 393.366 2089.053 710.608 1855.91 926.841 1806.782 937.056 2055.695 975.702 2153.855 894.431 2389.121 869.252 2658.324 912.462 2391.232 807.387"/><polygon class="cls-20" points="2108.431 665.813 1851.995 907.313 1817.868 907.313 1806.782 937.056 1855.91 926.841 2089.053 710.608 2108.431 665.813"/><polygon class="cls-21" points="2391.232 807.387 2105.7 672.125 2184.969 865.05 2391.232 807.387"/><polygon class="cls-22" points="2054.799 961.153 1855.91 926.841 2112.208 688.337 2184.969 865.05 2054.876 976.922 2054.799 961.153"/><polygon class="cls-23" points="2122.315 780.895 2110.573 753.508 2087.09 791.428 1987.283 1086.356 2004.896 873.586 2019.043 844.094 2044.036 852.52 2004.896 1086.356 2019.043 1086.356 2122.315 780.895"/><polygon class="cls-23" points="2386.682 900.755 2360.176 832.225 2335.708 832.225 2361.195 943.586 2386.682 900.755"/><polygon class="cls-24" points="2645.618 912.836 2402.627 832.63 2302.644 1082.618 2690.758 1062.739 2645.618 912.836"/><polygon class="cls-23" points="2652.76 955.008 2393.813 857.924 2271.476 1086.356 2324.489 1086.356 2406.047 889.333 2652.76 972.14 2652.76 955.008"/><polygon class="cls-25" points="2110.573 753.508 2011.386 1086.356 2019.043 1086.356 2122.315 780.895 2110.573 753.508"/><polygon class="cls-26" points="2349.091 832.63 2379.034 907.745 2356.203 928.15 2335.708 832.225 2349.091 832.63"/><polygon class="cls-27" points="2324.489 1086.356 2302.644 1082.618 2402.627 857.924 2659.267 957.624 2664.916 976.922 2405.311 890.072 2324.489 1086.356"/><polygon class="cls-28" points="2044.036 852.52 2019.043 844.094 1987.283 1086.356 2020.44 993.493 2044.036 852.52"/><rect class="cls-29" x="2500.75933" y="458.73061" width="15.62526" height="33.00295"/><rect class="cls-30" x="2195.38684" y="760.52687" width="30.76561" height="16.76156"/><rect class="cls-29" x="2112.11082" y="701.28806" width="7.81263" height="16.50148"/><rect class="cls-30" x="2297.7228" y="391.95816" width="41.57702" height="26.51309"/><path class="cls-1" d="M-2228.5,74.5" transform="translate(793.92528 6)"/><path class="cls-1" d="M1919.5,82.5" transform="translate(793.92528 6)"/><line class="cls-1" x1="2713.42528" y1="153.5" x2="2402.42528" y2="153.5"/><line class="cls-1" x1="1662.42528" y1="557.5" x2="794.42528" y2="557.5"/></svg>