<svg id="Layer_1" data-name="Layer 1" xmlns="http://www.w3.org/2000/svg" xmlns:xlink="http://www.w3.org/1999/xlink" viewBox="0 0 693 552.10275"><defs><style>.cls-1,.cls-10,.cls-12,.cls-13,.cls-3{fill:#fff;}.cls-2{fill:url(#linear-gradient);}.cls-3{opacity:0.16;}.cls-4{font-size:35.03958px;fill:#0c4e98;letter-spacing:-0.01001em;}.cls-10,.cls-12,.cls-13,.cls-4{font-family:Helvetica-Bold, Helvetica;font-weight:700;}.cls-5{fill:#fbe8ab;opacity:0.81;}.cls-6{fill:url(#linear-gradient-2);}.cls-7{fill:url(#linear-gradient-3);}.cls-8{fill:url(#linear-gradient-4);}.cls-9{fill:url(#linear-gradient-5);}.cls-10{font-size:16.02385px;}.cls-11{letter-spacing:-0.01755em;}.cls-12,.cls-13{font-size:19.3973px;}.cls-12,.cls-14{letter-spacing:-0.01002em;}.cls-13{letter-spacing:-0.06469em;}</style><linearGradient id="linear-gradient" x1="315.61584" y1="30.96415" x2="370.36601" y2="428.95558" gradientUnits="userSpaceOnUse"><stop offset="0.0657" stop-color="#51a2b6"/><stop offset="0.20421" stop-color="#4480a4"/><stop offset="0.37762" stop-color="#375c90"/><stop offset="0.51894" stop-color="#2f4684"/><stop offset="0.60944" stop-color="#2c3e80"/><stop offset="0.93704" stop-color="#18193d"/></linearGradient><linearGradient id="linear-gradient-2" x1="398.32938" y1="24.78574" x2="473.64122" y2="572.24452" xlink:href="#linear-gradient"/><linearGradient id="linear-gradient-3" x1="1203.26268" y1="206.09578" x2="1300.47353" y2="912.74342" xlink:href="#linear-gradient"/><linearGradient id="linear-gradient-4" x1="1107.50123" y1="230.19178" x2="1201.16679" y2="911.06795" xlink:href="#linear-gradient"/><linearGradient id="linear-gradient-5" x1="1001.71959" y1="249.4826" x2="1092.61485" y2="910.22087" xlink:href="#linear-gradient"/></defs><rect class="cls-1" x="0.50204" y="239.51927" width="689.49796" height="36.16695"/><rect class="cls-2" x="2" y="149.10275" width="690" height="220"/><rect class="cls-3" x="3" y="148.85275" width="690" height="44.5"/><text class="cls-4" transform="translate(316.53729 183.07516)">15</text><path class="cls-5" d="M1276.99541,424.29455a25.51237,25.51237,0,0,0-4.27893-1.658,14.89244,14.89244,0,0,0,6.54587-3.59322q4.48077-4.2477,4.48077-11.43031,0-9.08874-7.62607-12.64916a18.11341,18.11341,0,0,0-2.57713-.95193,24.59258,24.59258,0,0,0,3.45549-1.40388q6.85334-3.47889,6.85313-12.12089,0-8.64239-6.85313-12.1209a25.51237,25.51237,0,0,0-4.27893-1.658,14.89254,14.89254,0,0,0,6.54587-3.59322q4.48077-4.24772,4.48077-11.43031,0-9.08876-7.62607-12.64916a27.19268,27.19268,0,0,0-10.50783-2.09223v8.64237a18.78519,18.78519,0,0,1,6.2552.99841,5.47062,5.47062,0,0,1,3.40927,5.52213,5.33346,5.33346,0,0,1-2.14382,4.55516,8.7773,8.7773,0,0,1-5.37684,1.591,11.185,11.185,0,0,1-7.30981-2.7766,67.99809,67.99809,0,0,1-7.099-7.95581q-5.69331-7.08279-10.78909-8.98529a26.44873,26.44873,0,0,0-10.01573-2.0904v30.98057h7.70014a22.97867,22.97867,0,0,0-2.14747.94137q-6.81812,3.47889-6.81771,12.1209,0,8.64182,6.81771,12.12089,6.81751,3.47834,19.43395,3.47888a71.17314,71.17314,0,0,0,8.08317-.43216V401.514a18.785,18.785,0,0,1,6.2552.9984,5.47062,5.47062,0,0,1,3.40927,5.52213,5.33344,5.33344,0,0,1-2.14382,4.55516,8.7773,8.7773,0,0,1-5.37684,1.591,11.185,11.185,0,0,1-7.30981-2.7766,67.99721,67.99721,0,0,1-7.099-7.95581q-5.69331-7.08279-10.78909-8.98529a26.44873,26.44873,0,0,0-10.01573-2.0904v30.98057h7.70014a22.97605,22.97605,0,0,0-2.14747.94138q-6.81812,3.47888-6.81771,12.12089c0,.30019.00983.59293.02218.88375-.04792-.25321-.06012-.40146-.06012-.40146V851h52.55032V437.92c.0368-.48933.06177-.98753.06177-1.50455Q1283.84854,427.77307,1276.99541,424.29455Zm-35.63487-76.61844a11.11,11.11,0,0,1,2.77633,2.07468q1.194,1.23219,3.86555,4.57709l2.84675,3.56334a31.45375,31.45375,0,0,0,6.50145,6.47044c.28008.19134.56756.36508.85536.53814-.23035-.00178-.44665-.01206-.67993-.01206-6.57568,0-11.95272.71882-16.16551,2.13632Zm2.72321,38.006q-4.65681-1.2333-4.65619-5.19493,0-3.96255,4.65619-5.24136,4.65619-1.27991,13.4423-1.27918,9.20737,0,13.63584,1.27918,4.42764,1.27881,4.42806,5.24136,0,3.962-4.42806,5.19493-4.42826,1.23164-13.63584,1.23237A55.77847,55.77847,0,0,1,1244.08375,385.68208Zm-2.72321,17.92232a11.11,11.11,0,0,1,2.77633,2.07468q1.194,1.23219,3.86555,4.57709l2.84675,3.56334a31.45384,31.45384,0,0,0,6.50145,6.47045c.28008.19133.56756.36508.85536.53813-.23035-.00178-.44665-.01206-.67993-.01206-6.57568,0-11.95272.71883-16.16551,2.13633Zm2.72321,27.56968q4.65619-1.2799,13.4423-1.27917,9.20737,0,13.63584,1.27917,4.42764,1.27881,4.42806,5.24136,0,3.962-4.42806,5.19493-4.42826,1.23165-13.63584,1.23238a55.77786,55.77786,0,0,1-13.4423-1.23238q-4.65681-1.2333-4.65619-5.19493Q1239.42756,432.45289,1244.08375,431.17408Z" transform="translate(-717 -334.89725)"/><rect class="cls-3" y="321.85275" width="692" height="44.5"/><rect class="cls-3" x="2" y="237.85275" width="690" height="44.5"/><rect class="cls-6" x="419" y="125.10275" width="45" height="427"/><path class="cls-7" d="M1279.38281,419.26029a26.15764,26.15764,0,0,0-4.27894-1.5922,15.07837,15.07837,0,0,0,6.54588-3.45058q4.48077-4.0791,4.48077-10.97659,0-8.728-7.62608-12.14705a18.59474,18.59474,0,0,0-2.57713-.91414,25.18405,25.18405,0,0,0,3.4555-1.34816q6.85334-3.34079,6.85313-11.63975,0-8.29932-6.85313-11.63976a26.15764,26.15764,0,0,0-4.27894-1.59219,15.07849,15.07849,0,0,0,6.54588-3.45059q4.48077-4.0791,4.48077-10.97658,0-8.728-7.62608-12.14706a28.16257,28.16257,0,0,0-10.50783-2.00917v8.29931a19.48732,19.48732,0,0,1,6.2552.95878,5.24263,5.24263,0,0,1,3.40927,5.30292,5.0491,5.0491,0,0,1-2.14381,4.37434,9.03538,9.03538,0,0,1-5.37684,1.52787,11.45712,11.45712,0,0,1-7.30981-2.66639,66.307,66.307,0,0,1-7.099-7.64q-5.69331-6.80164-10.78909-8.62862a27.38707,27.38707,0,0,0-10.01573-2.00743v29.7508h7.70014c-.75333.27972-1.478.57594-2.14747.904q-6.81813,3.34078-6.81771,11.63976,0,8.29878,6.81771,11.63975,6.81752,3.34026,19.434,3.34079a74.08586,74.08586,0,0,0,8.08316-.415V397.384a19.48738,19.48738,0,0,1,6.2552.95877,5.24265,5.24265,0,0,1,3.40927,5.30293,5.04912,5.04912,0,0,1-2.14381,4.37434,9.03538,9.03538,0,0,1-5.37684,1.52786,11.4571,11.4571,0,0,1-7.30981-2.66638,66.30736,66.30736,0,0,1-7.099-7.64q-5.69331-6.80164-10.78909-8.62862a27.38706,27.38706,0,0,0-10.01573-2.00742v29.7508h7.70014c-.75333.27972-1.478.57593-2.14747.904q-6.81813,3.34079-6.81771,11.63975c0,.28828.00983.5694.02218.84867-.04792-.24316-.06012-.38552-.06012-.38552V887h52.55032V432.34488c.0368-.46991.06177-.94833.06177-1.44484Q1286.23594,422.60074,1279.38281,419.26029Zm-35.63487-73.57709a11.08672,11.08672,0,0,1,2.77633,1.99233q1.194,1.18329,3.86554,4.39541l2.84676,3.42189a30.8913,30.8913,0,0,0,6.50145,6.2136c.28007.18374.56756.35059.85536.51678-.23035-.00171-.44665-.01159-.67993-.01159a53.48956,53.48956,0,0,0-16.16551,2.05153Zm2.72321,36.49733q-4.65681-1.18434-4.65619-4.98871,0-3.80526,4.65619-5.03331a55.90292,55.90292,0,0,1,13.4423-1.22839q9.20737,0,13.63584,1.22839,4.42764,1.22805,4.428,5.03331,0,3.80472-4.428,4.98871-4.42827,1.18277-13.63584,1.18346A58.00272,58.00272,0,0,1,1246.47115,382.18053Zm-2.72321,17.2109a11.08672,11.08672,0,0,1,2.77633,1.99233q1.194,1.18329,3.86554,4.39541l2.84676,3.42188a30.89139,30.89139,0,0,0,6.50145,6.21361c.28007.18374.56756.35059.85536.51677-.23035-.00171-.44665-.01158-.67993-.01158a53.48956,53.48956,0,0,0-16.16551,2.05153Zm2.72321,26.47531a55.90282,55.90282,0,0,1,13.4423-1.2284q9.20737,0,13.63584,1.2284,4.42764,1.22805,4.428,5.0333,0,3.80474-4.428,4.98872-4.42827,1.18277-13.63584,1.18346a58.00272,58.00272,0,0,1-13.4423-1.18346q-4.65681-1.18434-4.65619-4.98872Q1241.815,427.0948,1246.47115,425.86674Z" transform="translate(-717 -334.89725)"/><path class="cls-8" d="M1182.15156,435.96a12.06332,12.06332,0,0,0-4.45317-9.70139,15.36094,15.36094,0,0,0-6.16363-3.08073h10.247v-6.60656a8.11112,8.11112,0,0,1-1.7872-.30451,8.01134,8.01134,0,0,1-3.205-1.55038,7.20052,7.20052,0,0,1-2.3423-3.8767,31.51471,31.51471,0,0,1-.55469-5.23272h-.7523a21.32538,21.32538,0,0,0,2.94018-1.21657q6.00956-3.095,6.00977-10.78368,0-7.68942-6.00977-10.78406a22.17381,22.17381,0,0,0-3.75266-1.47532,13.00776,13.00776,0,0,0,5.7404-3.1966q3.92979-3.77933,3.92937-10.16983,0-8.08609-6.68759-11.25362a23.54678,23.54678,0,0,0-9.21437-1.86157v7.68885a16.27055,16.27055,0,0,1,5.48555.88832,4.87278,4.87278,0,0,1,2.98924,4.913,4.76982,4.76982,0,0,1-1.87986,4.05288,7.61925,7.61925,0,0,1-4.71508,1.41537,9.72823,9.72823,0,0,1-6.41044-2.47022,60.21645,60.21645,0,0,1-6.22514-7.07835q-4.99222-6.30131-9.461-7.99411a22.90807,22.90807,0,0,0-8.78323-1.85972v27.56342h6.752a19.99541,19.99541,0,0,0-1.8829.8375q-5.97867,3.095-5.97847,10.78406,0,7.68829,5.97847,10.78368,5.97869,3.095,17.04264,3.0952a57.13139,57.13139,0,0,0,8.90636-.63712v8.224h-30.81809v8.10538h23.78582a11.94856,11.94856,0,0,0-5.43366,3.06664,11.78,11.78,0,0,0-3.6827,8.52191,9.64623,9.64623,0,0,0,1.47917,5.46825,8.92963,8.92963,0,0,0,2.31142,2.30368,30.896,30.896,0,0,1-7.7352-1.0823q-4.80753-1.58227-4.80773-5.49606a4.36575,4.36575,0,0,1,1.23251-3.24764,5.49472,5.49472,0,0,1,3.20543-1.4992V423.3299q-5.702.52743-8.67533,4.136a12.45209,12.45209,0,0,0-2.974,8.1332,15.66206,15.66206,0,0,0,.15,2.17642V841.96512L1182.03441,887V437.92213A16.81163,16.81163,0,0,0,1182.15156,435.96Zm-37.32077-71.54567a9.7543,9.7543,0,0,1,2.435,1.846q1.047,1.096,3.38992,4.07216l2.49631,3.1705a27.77393,27.77393,0,0,0,5.70133,5.75681c.24564.17025.49776.32482.75014.47879-.20193-.00157-.39157-.01071-.59613-.01071a44.56109,44.56109,0,0,0-14.17653,1.90061Zm2.38843,33.8139q-4.08358-1.09657-4.08338-4.62147,0-3.52565,4.08338-4.66339a46.51281,46.51281,0,0,1,11.7881-1.13793q8.07392,0,11.95736,1.13793,3.88346,1.13775,3.88325,4.66339,0,3.52452-3.88325,4.62147-3.88284,1.09657-11.95736,1.09639A48.21275,48.21275,0,0,1,1147.21922,398.22818Zm13.6832,33.77607q1.98774-1.4571,5.96364-1.45729,4.71487,0,6.68759,2.27625a5.40816,5.40816,0,0,1-.95537,7.84166,10.10476,10.10476,0,0,1-6.00977,1.596q-4.71488,0-6.62582-2.6924a5.6202,5.6202,0,0,1,.93973-7.56423Z" transform="translate(-717 -334.89725)"/><path class="cls-5" d="M1076.10564,454.54676a3.79626,3.79626,0,0,0,0-.512Z" transform="translate(-717 -334.89725)"/><path class="cls-9" d="M1076.0711,454.34353q0-6.23193-3.19555-9.64923a10.18848,10.18848,0,0,0-7.722-3.41709,12.11966,12.11966,0,0,0-4.37.90554,9.70306,9.70306,0,0,0-4.34117,3.92608,10.03527,10.03527,0,0,0-4.26951-4.627,12.19685,12.19685,0,0,0-2.55433-1.05791h26.25161v-6.81977a6.8545,6.8545,0,0,1-1.662-.3142,7.17834,7.17834,0,0,1-2.97977-1.60066,7.61217,7.61217,0,0,1-2.17758-4.00184,35.90821,35.90821,0,0,1-.51639-5.402h-.55263a18.69151,18.69151,0,0,0,2.58773-1.19709q5.58768-3.19534,5.58726-11.13253,0-7.93739-5.58726-11.13252a19.46632,19.46632,0,0,0-3.48957-1.523,11.82926,11.82926,0,0,0,5.33772-3.29993q3.653-3.90136,3.65346-10.49836,0-8.34754-6.21814-11.61762a20.05423,20.05423,0,0,0-8.56785-1.92145v7.93739a13.77572,13.77572,0,0,1,5.10052.91707q2.77839,1.34658,2.77963,5.0717a5.14754,5.14754,0,0,1-1.74849,4.18386,6.60405,6.60405,0,0,1-4.384,1.46105,8.55494,8.55494,0,0,1-5.96036-2.55026,60.56,60.56,0,0,1-5.78822-7.30693q-4.64136-6.50495-8.79681-8.25241a19.51923,19.51923,0,0,0-8.16676-1.92021v28.45436h6.27862a17.72927,17.72927,0,0,0-1.75132.86478q-5.55927,3.19471-5.55927,11.13252,0,7.93677,5.55927,11.13253,5.55926,3.19472,15.846,3.19472a47.96667,47.96667,0,0,0,8.28207-.65764v8.43155h-28.65532V440.424h7.75368a12.2817,12.2817,0,0,0-5.16018,3.063q-3.68271,3.5851-3.68229,10.5556c0,.25717.018.4993.02548.75014v431.7891h42.84832v-432.035c-.00865.15447-.02713.33957-.0594.55052C1076.05447,454.846,1076.0711,454.60209,1076.0711,454.34353Zm-34.558-74.52335a9.2391,9.2391,0,0,1,2.26406,1.90539q.97349,1.13223,3.15189,4.204l2.32089,3.273a27.42056,27.42056,0,0,0,5.30148,5.94264c.22829.17569.46266.33521.69723.49411-.18794-.00165-.36439-.01107-.55475-.01107a37.61869,37.61869,0,0,0-13.1808,1.96227Zm13.1808,36.03843a40.56169,40.56169,0,0,1-10.96039-1.13162q-3.79637-1.13223-3.79677-4.77108,0-3.63946,3.79677-4.81391a39.122,39.122,0,0,1,10.96039-1.17486q7.50748,0,11.11853,1.17486a4.69017,4.69017,0,0,1,3.61064,4.81391,4.62383,4.62383,0,0,1-3.61064,4.77108Q1062.20136,415.85862,1054.69388,415.85861Zm-8.30924,44.50252a6.67166,6.67166,0,0,1-4.75708-1.59036,6.56625,6.56625,0,0,1,0-8.79682,7.95945,7.95945,0,0,1,9.585.02842,6.61791,6.61791,0,0,1,0,8.74A6.61611,6.61611,0,0,1,1046.38464,460.36113Zm21.70583-2.13888a5.26437,5.26437,0,0,1-3.85442,1.36552,5.13976,5.13976,0,0,1-3.69629-1.36552,5.08147,5.08147,0,0,1-1.43223-3.8643,5.1403,5.1403,0,0,1,1.43223-3.86472,5.07992,5.07992,0,0,1,3.69629-1.39352,5.47717,5.47717,0,0,1,3.85442,9.12254Z" transform="translate(-717 -334.89725)"/><text class="cls-10" transform="translate(135.91425 174.81051)">HACKERS</text><text class="cls-10" transform="translate(135.91425 221.20065)">DEMOS</text><text class="cls-10" transform="translate(135.91425 268.14254)">MEN<tspan class="cls-11" x="35.60742" y="0">T</tspan><tspan x="45.11426" y="0">ORS</tspan></text><text class="cls-10" transform="translate(135.91425 309.95992)">JUDGES</text><text class="cls-10" transform="translate(135.91425 348.56295)">WORKSHOPS</text><text class="cls-12" transform="translate(321.93085 174.98922)">245</text><text class="cls-12" transform="translate(526.73553 174.98922)">450</text><text class="cls-12" transform="translate(425.77655 174.98922)">275</text><text class="cls-12" transform="translate(327.2287 220.49996)">37</text><text class="cls-12" transform="translate(532.03339 221.22164)">89</text><text class="cls-12" transform="translate(431.0744 221.22164)">51</text><text class="cls-12" transform="translate(327.2287 265.6274)">18</text><text class="cls-12" transform="translate(532.03339 266.54684)">47</text><text class="cls-12" transform="translate(431.0744 266.54684)">20</text><text class="cls-12" transform="translate(332.52557 308.73629)">8</text><text class="cls-12" transform="translate(532.03339 308.73629)">15</text><text class="cls-13" transform="translate(431.60468 308.32613)">1<tspan class="cls-14" x="9.5332" y="0">1</tspan></text><text class="cls-12" transform="translate(332.52557 350.91451)">9</text><text class="cls-12" transform="translate(532.03339 350.91451)">10</text><text class="cls-12" transform="translate(436.37128 350.915)">9</text></svg>