<svg id="svg" version="1.1" xmlns="http://www.w3.org/2000/svg" xmlns:xlink="http://www.w3.org/1999/xlink" width="400" height="100.05998800239952" viewBox="0, 0, 400,100.05998800239952"><g id="svgg"><path id="path0" d="M36.333 54.583 L 36.333 56.500 34.417 56.500 L 32.500 56.500 32.500 66.417 L 32.500 76.333 34.417 76.333 L 36.333 76.333 36.333 78.250 L 36.333 80.167 44.250 80.167 L 52.167 80.167 52.167 78.250 L 52.167 76.333 53.833 76.333 L 55.500 76.333 55.500 78.250 L 55.500 80.167 57.732 80.167 C 60.346 80.167,60.167 80.322,60.167 78.059 C 60.167 75.787,60.213 75.833,57.911 75.833 L 56.000 75.833 56.000 74.167 L 56.000 72.500 57.981 72.500 C 60.426 72.500,60.162 73.476,60.164 64.447 C 60.167 55.700,60.394 56.500,57.911 56.500 L 56.000 56.500 56.000 54.583 L 56.000 52.667 46.167 52.667 L 36.333 52.667 36.333 54.583 M230.000 56.583 L 230.000 60.500 226.167 60.500 L 222.333 60.500 222.333 62.667 L 222.333 64.833 226.167 64.833 L 230.000 64.833 230.000 72.500 L 230.000 80.167 234.083 80.167 L 238.167 80.167 238.167 72.503 L 238.167 64.839 242.042 64.795 L 245.917 64.750 245.917 62.667 L 245.917 60.583 242.042 60.539 L 238.167 60.494 238.167 56.580 L 238.167 52.667 234.083 52.667 L 230.000 52.667 230.000 56.583 M261.000 54.833 L 261.000 57.000 265.083 57.000 L 269.167 57.000 269.167 54.833 L 269.167 52.667 265.083 52.667 L 261.000 52.667 261.000 54.833 M51.667 62.583 L 51.667 68.167 47.833 68.167 L 44.000 68.167 44.000 70.333 L 44.000 72.500 45.917 72.500 L 47.833 72.500 47.833 74.167 L 47.833 75.833 44.250 75.833 L 40.667 75.833 40.667 66.417 L 40.667 57.000 46.167 57.000 L 51.667 57.000 51.667 62.583 M63.500 68.417 L 63.500 76.333 65.417 76.333 L 67.333 76.333 67.333 78.250 L 67.333 80.167 79.168 80.167 L 91.003 80.167 90.960 70.375 L 90.917 60.583 86.792 60.539 L 82.667 60.494 82.667 68.164 L 82.667 75.833 77.167 75.833 L 71.667 75.833 71.667 68.167 L 71.667 60.500 67.583 60.500 L 63.500 60.500 63.500 68.417 M98.500 62.667 L 98.500 64.833 106.167 64.833 L 113.833 64.833 113.833 66.500 L 113.833 68.167 106.167 68.167 L 98.500 68.167 98.500 70.083 L 98.500 72.000 96.583 72.000 L 94.667 72.000 94.667 74.167 L 94.667 76.333 96.583 76.333 L 98.500 76.333 98.500 78.250 L 98.500 80.167 110.335 80.167 L 122.170 80.167 122.127 72.292 L 122.083 64.417 120.125 64.370 L 118.167 64.323 118.167 62.411 L 118.167 60.500 108.333 60.500 L 98.500 60.500 98.500 62.667 M129.500 70.333 L 129.500 80.167 133.583 80.167 L 137.667 80.167 137.667 74.417 L 137.667 68.667 139.583 68.667 L 141.500 68.667 141.500 66.752 L 141.500 64.838 147.292 64.794 L 153.083 64.750 153.083 62.667 L 153.083 60.583 147.042 60.540 L 141.000 60.496 141.000 62.415 L 141.000 64.333 139.333 64.333 L 137.667 64.333 137.667 62.417 L 137.667 60.500 133.583 60.500 L 129.500 60.500 129.500 70.333 M160.333 62.667 L 160.333 64.833 168.083 64.833 L 175.833 64.833 175.833 66.498 L 175.833 68.163 168.125 68.207 L 160.417 68.250 160.370 70.125 L 160.322 72.000 158.411 72.000 L 156.500 72.000 156.500 74.167 L 156.500 76.333 158.417 76.333 L 160.333 76.333 160.333 78.250 L 160.333 80.167 172.252 80.167 L 184.170 80.167 184.127 72.292 L 184.083 64.417 182.125 64.370 L 180.167 64.323 180.167 62.411 L 180.167 60.500 170.250 60.500 L 160.333 60.500 160.333 62.667 M187.500 70.333 L 187.500 80.167 191.583 80.167 L 195.667 80.167 195.667 72.500 L 195.667 64.833 201.167 64.833 L 206.667 64.833 206.667 72.503 L 206.667 80.172 210.875 80.128 L 215.083 80.083 215.127 72.436 C 215.158 66.928,215.117 64.725,214.981 64.561 C 214.842 64.393,214.295 64.333,212.896 64.333 L 211.000 64.333 211.000 62.417 L 211.000 60.500 199.250 60.500 L 187.500 60.500 187.500 70.333 M257.167 62.667 L 257.167 64.833 259.083 64.833 L 261.000 64.833 261.000 70.333 L 261.000 75.833 257.167 75.833 L 253.333 75.833 253.333 78.000 L 253.333 80.167 265.167 80.167 L 277.000 80.167 277.000 78.264 C 277.000 75.568,277.438 75.833,272.982 75.833 L 269.167 75.833 269.167 68.167 L 269.167 60.500 263.167 60.500 L 257.167 60.500 257.167 62.667 M280.667 70.333 L 280.667 80.167 284.750 80.167 L 288.833 80.167 288.833 72.500 L 288.833 64.833 294.333 64.833 L 299.833 64.833 299.833 72.500 L 299.833 80.167 304.002 80.167 L 308.170 80.167 308.127 72.292 L 308.083 64.417 306.125 64.370 L 304.167 64.323 304.167 62.411 L 304.167 60.500 292.417 60.500 L 280.667 60.500 280.667 70.333 M315.500 62.417 L 315.500 64.333 313.500 64.333 L 311.500 64.333 311.500 70.333 L 311.500 76.333 313.500 76.333 L 315.500 76.333 315.500 78.250 L 315.500 80.167 325.338 80.167 L 335.177 80.167 335.130 78.042 L 335.083 75.917 327.375 75.873 L 319.667 75.830 319.667 74.166 L 319.667 72.503 329.375 72.460 L 339.083 72.417 339.083 68.417 L 339.083 64.417 337.125 64.370 L 335.167 64.323 335.167 62.411 L 335.167 60.500 325.333 60.500 L 315.500 60.500 315.500 62.417 M330.833 66.500 L 330.833 68.167 325.250 68.167 L 319.667 68.167 319.667 66.500 L 319.667 64.833 325.250 64.833 L 330.833 64.833 330.833 66.500 M113.833 74.167 L 113.833 75.833 108.333 75.833 L 102.833 75.833 102.833 74.167 L 102.833 72.500 108.333 72.500 L 113.833 72.500 113.833 74.167 M175.833 74.167 L 175.833 75.833 170.250 75.833 L 164.667 75.833 164.667 74.167 L 164.667 72.500 170.250 72.500 L 175.833 72.500 175.833 74.167 " stroke="none" fill="#fcc404" fill-rule="evenodd"></path><path id="path1" d="M32.500 28.917 L 32.500 46.667 37.667 46.667 L 42.833 46.667 42.833 39.083 L 42.833 31.500 50.167 31.500 L 57.500 31.500 57.500 39.083 L 57.500 46.667 62.667 46.667 L 67.833 46.667 67.833 28.917 L 67.833 11.167 62.667 11.167 L 57.500 11.167 57.500 18.583 L 57.500 26.000 50.167 26.000 L 42.833 26.000 42.833 18.583 L 42.833 11.167 37.667 11.167 L 32.500 11.167 32.500 28.917 M152.500 28.917 L 152.500 46.667 157.667 46.667 L 162.833 46.667 162.833 41.583 L 162.833 36.500 167.579 36.500 L 172.325 36.500 172.371 39.042 L 172.417 41.583 174.958 41.629 L 177.500 41.675 177.500 44.173 L 177.500 46.671 182.625 46.627 L 187.750 46.583 187.796 43.875 L 187.842 41.167 185.254 41.167 L 182.667 41.167 182.667 38.667 L 182.667 36.167 180.333 36.167 L 178.000 36.167 178.000 33.833 L 178.000 31.500 180.333 31.500 L 182.667 31.500 182.667 29.000 L 182.667 26.500 185.250 26.500 L 187.833 26.500 187.833 23.833 L 187.833 21.167 182.667 21.167 L 177.500 21.167 177.500 23.579 L 177.500 25.991 174.958 26.037 L 172.417 26.083 172.371 28.542 L 172.324 31.000 167.579 31.000 L 162.833 31.000 162.833 21.083 L 162.833 11.167 157.667 11.167 L 152.500 11.167 152.500 28.917 M77.333 23.833 L 77.333 26.500 87.417 26.500 L 97.500 26.500 97.500 28.749 L 97.500 30.997 87.458 31.040 L 77.417 31.083 77.371 33.625 L 77.325 36.167 74.996 36.167 L 72.667 36.167 72.667 38.917 L 72.667 41.667 74.996 41.667 L 77.324 41.667 77.371 44.125 L 77.417 46.583 92.625 46.626 L 107.833 46.668 107.833 36.334 L 107.833 26.000 105.333 26.000 L 102.833 26.000 102.833 23.583 L 102.833 21.167 90.083 21.167 L 77.333 21.167 77.333 23.833 M117.500 23.583 L 117.500 26.000 115.083 26.000 L 112.667 26.000 112.667 33.833 L 112.667 41.667 115.083 41.667 L 117.500 41.667 117.500 44.167 L 117.500 46.667 132.750 46.667 L 148.000 46.667 148.000 43.917 L 148.000 41.167 135.500 41.167 L 123.000 41.167 123.000 33.833 L 123.000 26.500 135.500 26.500 L 148.000 26.500 148.000 23.833 L 148.000 21.167 132.750 21.167 L 117.500 21.167 117.500 23.583 M97.500 38.833 L 97.500 41.167 90.167 41.167 L 82.833 41.167 82.833 38.833 L 82.833 36.500 90.167 36.500 L 97.500 36.500 97.500 38.833 M17.000 54.578 L 17.000 56.489 15.042 56.536 L 13.083 56.583 13.036 58.542 L 12.989 60.500 11.078 60.500 L 9.167 60.500 9.167 62.417 L 9.167 64.333 7.250 64.333 L 5.333 64.333 5.333 66.500 L 5.333 68.667 7.250 68.667 L 9.167 68.667 9.167 70.583 L 9.167 72.500 11.083 72.500 L 13.000 72.500 13.000 74.417 L 13.000 76.333 15.000 76.333 L 17.000 76.333 17.000 78.250 L 17.000 80.167 21.000 80.167 L 25.000 80.167 25.000 78.000 L 25.000 75.833 23.083 75.833 L 21.167 75.833 21.167 73.917 L 21.167 72.000 19.250 72.000 L 17.333 72.000 17.333 70.083 L 17.333 68.167 15.417 68.167 L 13.500 68.167 13.500 66.500 L 13.500 64.833 15.417 64.833 L 17.333 64.833 17.333 62.917 L 17.333 61.000 19.250 61.000 L 21.167 61.000 21.167 59.000 L 21.167 57.000 23.083 57.000 L 25.000 57.000 25.000 54.833 L 25.000 52.667 21.000 52.667 L 17.000 52.667 17.000 54.578 M365.611 52.778 C 365.550 52.839,365.500 53.701,365.500 54.694 L 365.500 56.500 363.847 56.500 C 361.524 56.500,361.667 56.362,361.667 58.601 L 361.667 60.500 359.750 60.500 L 357.833 60.500 357.833 62.417 L 357.833 64.333 355.917 64.333 L 354.000 64.333 354.000 66.250 L 354.000 68.167 352.083 68.167 L 350.167 68.167 350.167 70.083 L 350.167 72.000 348.250 72.000 L 346.333 72.000 346.333 73.917 L 346.333 75.833 344.417 75.833 L 342.500 75.833 342.500 78.000 L 342.500 80.167 344.667 80.167 L 346.833 80.167 346.833 78.250 L 346.833 76.333 348.750 76.333 L 350.667 76.333 350.667 74.417 L 350.667 72.500 352.583 72.500 L 354.500 72.500 354.500 70.583 L 354.500 68.667 356.417 68.667 L 358.333 68.667 358.333 66.750 L 358.333 64.833 360.250 64.833 L 362.167 64.833 362.167 62.917 L 362.167 61.000 364.083 61.000 L 366.000 61.000 366.000 59.005 L 366.000 57.010 368.042 56.963 L 370.083 56.917 370.131 55.024 C 370.162 53.771,370.113 53.053,369.985 52.899 C 369.782 52.655,365.843 52.545,365.611 52.778 M377.333 54.833 L 377.333 57.000 379.250 57.000 L 381.167 57.000 381.167 59.000 L 381.167 61.000 383.083 61.000 L 385.000 61.000 385.000 62.917 L 385.000 64.833 386.917 64.833 L 388.833 64.833 388.833 66.500 L 388.833 68.167 386.917 68.167 L 385.000 68.167 385.000 70.083 L 385.000 72.000 383.083 72.000 L 381.167 72.000 381.167 73.917 L 381.167 75.833 379.250 75.833 L 377.333 75.833 377.333 78.000 L 377.333 80.167 381.417 80.167 L 385.500 80.167 385.500 78.250 L 385.500 76.333 387.417 76.333 L 389.333 76.333 389.333 74.417 L 389.333 72.500 391.250 72.500 L 393.167 72.500 393.167 70.583 L 393.167 68.667 395.083 68.667 L 397.000 68.667 397.000 66.500 L 397.000 64.333 395.083 64.333 L 393.167 64.333 393.167 62.417 L 393.167 60.500 391.255 60.500 L 389.344 60.500 389.297 58.542 L 389.250 56.583 387.375 56.536 L 385.500 56.489 385.500 54.578 L 385.500 52.667 381.417 52.667 L 377.333 52.667 377.333 54.833 " stroke="none" fill="#040404" fill-rule="evenodd"></path><path id="path2" d="" stroke="none" fill="#bcc804" fill-rule="evenodd"></path><path id="path3" d="" stroke="none" fill="#bcc804" fill-rule="evenodd"></path><path id="path4" d="" stroke="none" fill="#bcc804" fill-rule="evenodd"></path></g></svg>